<svg width="480" height="480" viewBox="0 0 480 480" fill="none" xmlns="http://www.w3.org/2000/svg">
<path d="M241.346 56.0784H28.1203V196.509H241.346V56.0784Z" fill="#F5F5F5"/>
<path d="M61.5158 89.6285C61.5158 89.6285 58.5312 87.9792 56.6323 90.0048C55.9584 90.7248 55.7808 93.0854 58.4131 93.5568C58.4131 93.5568 64.1078 93.2429 66.7008 92.7715C69.2928 92.3002 75.1843 89.7082 75.1843 89.7082L78.2477 82.8739C78.2477 82.8739 78.6403 79.6531 79.033 79.5744C79.4256 79.4957 80.6045 82.8739 80.6045 82.8739L87.2026 84.7594L87.9091 86.0947L82.5677 88.2941C82.5677 88.2941 83.353 96.7776 82.6464 98.2704C81.9398 99.7632 79.897 101.57 79.897 101.57L80.2109 113.903C80.2109 113.903 81.3888 113.432 81.4675 114.296H78.3264C78.3264 114.296 77.0698 106.597 75.263 106.047L75.7344 102.827L63.4013 101.805C63.4013 101.805 64.2653 104.712 60.7306 107.068C57.1958 109.425 55.6243 111.31 55.6243 111.31V113.667C55.6243 113.667 56.6458 114.06 56.7245 114.924H52.9536C52.9536 114.924 53.425 108.403 52.9536 107.304C52.9536 107.304 57.5818 102.574 56.9597 96.7776C56.9597 96.7776 51.697 95.4422 52.9536 90.336C54.2112 85.2298 60.1027 85.151 61.5158 89.6285Z" fill="#E0E0E0"/>
<path d="M62.3021 128.95C62.3021 128.95 60.4474 127.925 59.2675 129.183C58.848 129.631 58.7386 131.098 60.3734 131.39C60.3734 131.39 63.913 131.196 65.5238 130.903C67.1347 130.61 70.7962 128.999 70.7962 128.999L72.6998 124.752C72.6998 124.752 72.9437 122.75 73.1875 122.701C73.4314 122.652 74.1638 124.752 74.1638 124.752L78.264 125.923L78.7037 126.753L75.384 128.12C75.384 128.12 75.8726 133.392 75.433 134.319C74.9933 135.247 73.7242 136.37 73.7242 136.37L73.92 144.035C73.92 144.035 74.6525 143.742 74.7014 144.278H72.7488C72.7488 144.278 71.9674 139.495 70.8451 139.153L71.1379 137.151L63.4733 136.517C63.4733 136.517 64.0099 138.323 61.8134 139.788C59.617 141.252 58.6406 142.424 58.6406 142.424V143.888C58.6406 143.888 59.2752 144.132 59.3242 144.669H56.9808C56.9808 144.669 57.2736 140.618 56.9808 139.934C56.9808 139.934 59.857 136.995 59.4701 133.393C59.4701 133.393 56.1994 132.563 56.9808 129.39C57.7622 126.216 61.4227 126.168 62.3021 128.95Z" fill="#E0E0E0"/>
<path d="M60.959 161.589C60.959 161.589 59.5613 160.817 58.6733 161.765C58.3574 162.102 58.2749 163.207 59.5066 163.428C59.5066 163.428 62.1725 163.281 63.3859 163.06C64.5994 162.839 67.3574 161.626 67.3574 161.626L68.7917 158.426C68.7917 158.426 68.975 156.918 69.1594 156.881C69.3427 156.845 69.8947 158.426 69.8947 158.426L72.984 159.308L73.3152 159.933L70.8144 160.963C70.8144 160.963 71.1821 164.935 70.8509 165.634C70.5197 166.333 69.5635 167.178 69.5635 167.178L69.7104 172.952C69.7104 172.952 70.2624 172.731 70.2989 173.136H68.8282C68.8282 173.136 68.2397 169.532 67.3939 169.275L67.6147 167.767L61.8413 167.289C61.8413 167.289 62.2454 168.649 60.5914 169.752C58.9363 170.855 58.201 171.738 58.201 171.738V172.841C58.201 172.841 58.679 173.026 58.7155 173.43H56.9501C56.9501 173.43 57.1709 170.378 56.9501 169.862C56.9501 169.862 59.1168 167.648 58.8259 164.935C58.8259 164.935 56.3616 164.31 56.9501 161.919C57.5395 159.53 60.2976 159.493 60.959 161.589Z" fill="#E0E0E0"/>
<path d="M209.121 95.1437C209.121 95.2819 186.948 95.3933 159.605 95.3933C132.252 95.3933 110.084 95.281 110.084 95.1437C110.084 95.0054 132.252 94.8941 159.605 94.8941C186.948 94.8931 209.121 95.0054 209.121 95.1437Z" fill="#E0E0E0"/>
<path d="M209.121 98.9626C209.121 99.1008 186.948 99.2122 159.605 99.2122C132.252 99.2122 110.084 99.0998 110.084 98.9626C110.084 98.8243 132.252 98.713 159.605 98.713C186.948 98.712 209.121 98.8243 209.121 98.9626Z" fill="#E0E0E0"/>
<path d="M209.121 102.781C209.121 102.92 186.948 103.031 159.605 103.031C132.252 103.031 110.084 102.919 110.084 102.781C110.084 102.644 132.252 102.532 159.605 102.532C186.948 102.531 209.121 102.643 209.121 102.781Z" fill="#E0E0E0"/>
<path d="M209.121 106.6C209.121 106.739 186.948 106.85 159.605 106.85C132.252 106.85 110.084 106.738 110.084 106.6C110.084 106.462 132.252 106.351 159.605 106.351C186.948 106.35 209.121 106.462 209.121 106.6Z" fill="#E0E0E0"/>
<path d="M209.121 128.241C209.121 128.379 186.948 128.49 159.605 128.49C132.252 128.49 110.084 128.378 110.084 128.241C110.084 128.102 132.252 127.991 159.605 127.991C186.948 127.99 209.121 128.102 209.121 128.241Z" fill="#E0E0E0"/>
<path d="M209.121 132.06C209.121 132.198 186.948 132.309 159.605 132.309C132.252 132.309 110.084 132.197 110.084 132.06C110.084 131.921 132.252 131.81 159.605 131.81C186.948 131.809 209.121 131.921 209.121 132.06Z" fill="#E0E0E0"/>
<path d="M209.121 135.878C209.121 136.017 186.948 136.128 159.605 136.128C132.252 136.128 110.084 136.016 110.084 135.878C110.084 135.74 132.252 135.629 159.605 135.629C186.948 135.628 209.121 135.74 209.121 135.878Z" fill="#E0E0E0"/>
<path d="M209.121 139.697C209.121 139.836 186.948 139.948 159.605 139.948C132.252 139.948 110.084 139.836 110.084 139.697C110.084 139.559 132.252 139.448 159.605 139.448C186.948 139.447 209.121 139.559 209.121 139.697Z" fill="#E0E0E0"/>
<path d="M209.121 161.338C209.121 161.476 186.948 161.587 159.605 161.587C132.252 161.587 110.084 161.475 110.084 161.338C110.084 161.199 132.252 161.088 159.605 161.088C186.948 161.087 209.121 161.199 209.121 161.338Z" fill="#E0E0E0"/>
<path d="M209.121 165.156C209.121 165.295 186.948 165.406 159.605 165.406C132.252 165.406 110.084 165.294 110.084 165.156C110.084 165.019 132.252 164.907 159.605 164.907C186.948 164.906 209.121 165.018 209.121 165.156Z" fill="#E0E0E0"/>
<path d="M209.121 168.975C209.121 169.114 186.948 169.225 159.605 169.225C132.252 169.225 110.084 169.113 110.084 168.975C110.084 168.838 132.252 168.726 159.605 168.726C186.948 168.725 209.121 168.837 209.121 168.975Z" fill="#E0E0E0"/>
<path d="M209.121 172.794C209.121 172.932 186.948 173.044 159.605 173.044C132.252 173.044 110.084 172.932 110.084 172.794C110.084 172.656 132.252 172.545 159.605 172.545C186.948 172.544 209.121 172.656 209.121 172.794Z" fill="#E0E0E0"/>
<path d="M200.339 76.081C200.339 77.4614 178.338 78.5808 151.206 78.5808C124.064 78.5808 102.068 77.4614 102.068 76.081C102.068 74.7005 124.064 73.5811 151.206 73.5811C178.337 73.5821 200.339 74.7014 200.339 76.081Z" fill="#E0E0E0"/>
<path d="M362.427 52.9094H359.728V47.8013C359.728 46.1453 358.533 44.7984 357.065 44.7984H336.532C335.063 44.7984 333.869 46.1453 333.869 47.8013V52.9094H331.17V47.8013C331.17 44.6573 333.576 42.0989 336.533 42.0989H357.066C360.023 42.0989 362.429 44.6563 362.429 47.8013V52.9094H362.427Z" fill="#EBEBEB"/>
<path d="M390.961 123.959H302.22C297.38 123.959 293.458 120.036 293.458 115.197V61.6714C293.458 56.832 297.38 52.9094 302.22 52.9094H390.961C395.799 52.9094 399.723 56.832 399.723 61.6714V115.197C399.723 120.036 395.799 123.959 390.961 123.959Z" fill="#EBEBEB"/>
<path d="M349.984 74.0861H343.612V102.645H349.984V74.0861Z" fill="#F5F5F5"/>
<path d="M332.519 85.1801V91.5525H361.078V85.1801H332.519Z" fill="#F5F5F5"/>
<path d="M370.517 88.4342C370.508 88.4342 370.493 88.3037 370.472 88.0493C370.452 87.7709 370.425 87.3974 370.39 86.9203C370.374 86.6698 370.356 86.3933 370.336 86.089C370.303 85.7846 370.236 85.4554 370.181 85.0963C370.065 84.3792 369.954 83.5488 369.678 82.6454C369.253 80.8109 368.389 78.6451 367.032 76.3498C365.663 74.064 363.69 71.6774 361.008 69.6538C358.333 67.6483 354.961 65.9434 351.068 65.256C347.202 64.5936 342.838 64.7146 338.683 66.2938C337.626 66.6326 336.632 67.1558 335.61 67.6464C334.643 68.232 333.622 68.7715 332.722 69.504C331.764 70.1616 330.926 70.9853 330.049 71.7773C329.257 72.6547 328.424 73.513 327.741 74.5085C326.34 76.4554 325.116 78.6192 324.374 80.9981C323.606 83.3626 323.194 85.8739 323.159 88.4294C323.193 90.9859 323.605 93.4982 324.372 95.8637C325.113 98.2435 326.338 100.408 327.739 102.356C328.423 103.352 329.255 104.211 330.048 105.088C330.925 105.881 331.763 106.704 332.721 107.362C333.622 108.095 334.642 108.635 335.61 109.22C336.633 109.711 337.626 110.234 338.684 110.573C342.84 112.153 347.204 112.274 351.07 111.611C354.963 110.922 358.336 109.217 361.01 107.212C363.692 105.187 365.665 102.801 367.034 100.515C368.391 98.2195 369.255 96.0538 369.68 94.2192C369.956 93.3158 370.067 92.4845 370.183 91.7683C370.237 91.4102 370.305 91.08 370.337 90.7757C370.357 90.4723 370.375 90.1958 370.391 89.9453C370.426 89.4691 370.452 89.0947 370.473 88.8163C370.493 88.5648 370.508 88.4342 370.517 88.4342C370.525 88.4342 370.527 88.5648 370.523 88.8202C370.515 89.0995 370.503 89.4749 370.49 89.9539C370.48 90.2064 370.471 90.4848 370.46 90.7901C370.434 91.0963 370.376 91.4294 370.328 91.7914C370.227 92.5152 370.131 93.3542 369.867 94.2691C369.468 96.1258 368.624 98.3242 367.273 100.661C365.911 102.987 363.932 105.423 361.223 107.496C358.523 109.55 355.102 111.303 351.144 112.021C347.213 112.715 342.767 112.607 338.523 111.01C337.444 110.666 336.428 110.136 335.385 109.638C334.395 109.044 333.354 108.494 332.433 107.748C331.454 107.078 330.597 106.241 329.701 105.434C328.89 104.54 328.041 103.665 327.341 102.649C325.907 100.663 324.655 98.4528 323.896 96.023C323.11 93.6077 322.689 91.0416 322.655 88.4314C322.69 85.8221 323.112 83.257 323.898 80.8416C324.658 78.4118 325.908 76.2029 327.343 74.2176C328.042 73.2029 328.892 72.3264 329.703 71.4336C330.599 70.6262 331.456 69.7891 332.435 69.119C333.356 68.3741 334.397 67.824 335.386 67.2307C336.429 66.7315 337.445 66.2026 338.524 65.8589C342.767 64.2614 347.212 64.153 351.143 64.8461C355.102 65.5642 358.522 67.3171 361.222 69.3706C363.931 71.4432 365.91 73.8797 367.272 76.2058C368.624 78.5424 369.468 80.7408 369.867 82.5974C370.131 83.5123 370.227 84.3514 370.328 85.0752C370.376 85.4371 370.434 85.7693 370.46 86.0765C370.471 86.3818 370.481 86.6611 370.49 86.9136C370.503 87.3926 370.514 87.768 370.523 88.0483C370.527 88.3037 370.525 88.4342 370.517 88.4342Z" fill="#F5F5F5"/>
<path d="M431.525 58.1386V47.3961H423.961C423.961 47.8166 423.961 58.1386 423.961 58.1386H416.364V119.589H438.586V58.1386H431.525Z" fill="#EBEBEB"/>
<path d="M464.538 119.589H281.218V128.942H464.538V119.589Z" fill="#E0E0E0"/>
<path d="M322.384 128.942H317.048V151.054H322.384V128.942Z" fill="#E0E0E0"/>
<path d="M429.124 128.942H423.787V151.054H429.124V128.942Z" fill="#E0E0E0"/>
<path d="M390.18 74.6688V66.816H384.65C384.65 67.1232 384.65 74.6688 384.65 74.6688H379.096V119.59H395.341V74.6688H390.18Z" fill="#FAFAFA"/>
<path d="M408.619 74.6688V66.816H403.09C403.09 67.1232 403.09 74.6688 403.09 74.6688H397.536V119.59H413.781V74.6688H408.619Z" fill="#F5F5F5"/>
<path d="M317.048 90.4051H287.864V119.59H317.048V90.4051Z" fill="#E0E0E0"/>
<path d="M316.905 97.9037C316.905 98.0918 310.462 98.2445 302.516 98.2445C294.567 98.2445 288.126 98.0918 288.126 97.9037C288.126 97.7155 294.567 97.5629 302.516 97.5629C310.462 97.5629 316.905 97.7155 316.905 97.9037Z" fill="#EBEBEB"/>
<path d="M303.564 101.754C303.571 101.732 303.671 101.747 303.861 101.797C304.054 101.838 304.322 101.959 304.638 102.164C305.272 102.575 305.982 103.522 306.236 104.85C306.477 106.135 306.525 107.882 305.485 109.437C304.981 110.19 304.195 110.865 303.216 111.156C302.244 111.454 301.183 111.398 300.184 111.128C298.19 110.62 296.462 109.081 296.128 107.225C295.743 105.417 296.462 103.701 297.499 102.812C298.533 101.897 299.672 101.657 300.405 101.639C301.156 101.619 301.545 101.795 301.535 101.824C301.526 101.885 301.125 101.804 300.426 101.903C299.742 101.997 298.714 102.299 297.829 103.164C296.947 103.995 296.375 105.516 296.741 107.09C297.057 108.672 298.546 109.997 300.363 110.47C301.264 110.715 302.203 110.761 303.022 110.516C303.842 110.282 304.51 109.732 304.968 109.079C305.901 107.763 305.931 106.146 305.76 104.938C305.58 103.695 305.006 102.815 304.474 102.374C303.941 101.929 303.54 101.82 303.564 101.754Z" fill="#EBEBEB"/>
<path d="M45.1997 333.419C39.0864 330.264 31.8874 329.854 25.1011 330.976C21.455 331.579 17.6534 332.67 15.1718 335.409C12.6912 338.148 12.2208 342.968 15.0691 345.321C16.7654 346.721 19.1299 346.934 21.3293 346.908C26.6419 346.847 32.5373 345.911 36.7824 349.108C39.2035 350.932 40.8163 353.963 43.7117 354.86C46.5446 355.738 49.7405 354.066 51.2429 351.51C52.7453 348.953 52.7952 345.757 52.0944 342.876C52.0944 342.876 51.3581 336.596 45.1997 333.419Z" fill="#EBEBEB"/>
<path d="M59.2051 306.381C55.4669 311.72 48.2016 309.952 44.833 306.694C41.4643 303.435 40.0406 298.712 38.7446 294.207C35.783 283.916 32.7974 273.12 34.9997 262.64C35.6582 259.506 36.8294 256.382 39.0317 254.057C41.233 251.733 44.6189 250.35 47.7139 251.168C51.3773 252.135 53.6544 255.723 55.2998 259.137C60.1373 269.17 62.6986 280.291 62.736 291.429C62.7533 296.631 62.1398 302.087 59.2051 306.381Z" fill="#EBEBEB"/>
<path d="M69.4714 314.042C65.4125 309.225 64.6426 302.199 66.4483 296.165C68.255 290.13 72.335 284.996 77.0371 280.805C82.5504 275.891 89.0314 272.067 95.9981 269.617C98.7398 268.653 101.632 267.892 104.526 268.168C107.419 268.445 110.333 269.923 111.682 272.498C113.677 276.304 111.764 280.92 109.694 284.686C106.048 291.321 101.88 297.668 97.2403 303.651C93.5078 308.463 89.232 313.211 83.543 315.386C77.8541 317.56 71.9453 317.305 68.929 313.359" fill="#EBEBEB"/>
<path d="M59.4586 386.92C59.3885 386.924 59.2752 386.059 59.1206 384.494C58.9488 382.729 58.7328 380.511 58.4765 377.873C58.1683 375.087 57.7613 371.772 56.9866 368.162C56.2147 364.561 55.008 360.658 53.4566 356.7C51.8505 352.764 49.8922 349.188 47.6035 346.329C45.3312 343.455 42.6883 341.376 40.2038 340.177C37.728 338.954 35.5075 338.458 33.9725 338.237C32.424 338.078 31.5581 337.956 31.5571 337.887C31.5562 337.818 32.425 337.807 34.0157 337.85C35.591 337.955 37.9037 338.354 40.5139 339.54C43.1318 340.702 45.936 342.813 48.3197 345.746C50.7226 348.666 52.753 352.321 54.3869 356.326C55.9651 360.353 57.1546 364.297 57.8918 367.976C58.6272 371.649 58.9632 375.001 59.183 377.81C59.3933 380.622 59.473 382.898 59.5114 384.471C59.545 386.044 59.5267 386.916 59.4586 386.92Z" fill="#E0E0E0"/>
<path d="M59.0026 381.826C58.968 381.824 58.9469 381.436 58.9373 380.7C58.9392 379.854 58.9421 378.788 58.9459 377.481C58.9536 374.687 58.9526 370.644 58.8029 365.652C58.5562 355.667 57.696 344.921 56.0352 329.772C54.4627 315.526 52.3526 298.948 50.1254 288.169C49.6474 285.718 49.1664 283.511 48.7142 281.58C48.2822 279.644 47.9136 277.975 47.5584 276.625C47.2531 275.354 47.0045 274.318 46.8058 273.496C46.6445 272.777 46.5754 272.395 46.609 272.386C46.6426 272.376 46.776 272.74 47.0006 273.441C47.2464 274.251 47.5555 275.271 47.9347 276.525C48.3494 277.863 48.7738 279.521 49.2595 281.45C49.7654 283.374 50.2954 285.574 50.8186 288.022C53.0227 297.789 55.3555 311.439 57.0317 326.626C58.6954 341.807 59.4451 355.63 59.5114 365.64C59.5709 370.644 59.4643 374.696 59.3366 377.491C59.257 378.799 59.1917 379.863 59.1398 380.708C59.0832 381.443 59.0371 381.828 59.0026 381.826Z" fill="#E0E0E0"/>
<path d="M58.9354 355.165C58.8662 355.163 58.8778 353.968 58.9594 351.803C59.0832 349.642 59.3798 346.518 59.9885 342.692C60.6336 338.875 61.535 334.343 62.952 329.418C63.5654 327.167 65.0083 321.773 68.5027 313.712C73.1069 302.79 79.3622 293.86 84.8035 288.329C86.0794 286.861 87.5011 285.803 88.6387 284.765C89.2272 284.268 89.7475 283.771 90.2765 283.379C90.8093 283.011 91.3046 282.67 91.7645 282.353C93.5558 281.128 94.5581 280.482 94.5955 280.541C94.7568 280.759 90.5846 283.214 85.3162 288.82C80.0698 294.413 73.9891 303.28 69.4224 314.11C66.8755 319.984 65.0995 325.224 63.84 329.673C62.3846 334.549 61.4179 339.036 60.6874 342.815C59.9933 346.602 59.591 349.694 59.3482 351.836C59.1475 353.979 59.0045 355.167 58.9354 355.165Z" fill="#E0E0E0"/>
<path d="M84.7046 402.194L82.0329 438.794H35.015L32.3434 402.194H84.7046Z" fill="#E0E0E0"/>
<path d="M89.2454 387.768H26.7331V402.194H89.2454V387.768Z" fill="#E0E0E0"/>
<path d="M89.2454 437.393V441.392H86.3088H27.7661V437.393H89.2454Z" fill="#EBEBEB"/>
<path d="M83.4298 448.429L86.3088 441.392H30.0058L33.3648 448.429H83.4298Z" fill="#E0E0E0"/>
<path d="M33.216 414.155C33.2054 414.164 33.2803 414.278 33.4349 414.491C33.6211 414.739 33.8525 415.045 34.1376 415.424C34.8048 416.278 35.7226 417.452 36.8765 418.929L36.9984 419.084L37.1165 418.921C38.8378 416.54 41.1379 413.359 43.8461 409.614H43.4592C45.4608 412.448 47.6899 415.605 50.0842 418.995L50.2915 419.289L50.5238 419.012C52.969 416.103 55.6243 412.944 58.3814 409.664L57.9283 409.658C58.0646 409.83 58.2125 410.015 58.3603 410.201C60.7968 413.256 63.1555 416.213 65.3856 419.009L65.6198 419.303L65.8358 418.997C68.2205 415.621 70.4496 412.469 72.4646 409.619L72.0787 409.637C75.3456 413.359 78.1152 416.515 80.2416 418.937L80.3866 419.102L80.497 418.916C81.5731 417.108 82.4314 415.667 83.0534 414.622C83.3203 414.156 83.5373 413.779 83.7091 413.479C83.8531 413.218 83.9222 413.078 83.9098 413.071C83.8973 413.063 83.8042 413.187 83.6362 413.434C83.4451 413.723 83.2061 414.085 82.9104 414.534C82.2576 415.56 81.3571 416.975 80.2272 418.75L80.4826 418.73C78.3907 416.278 75.6643 413.083 72.4502 409.316L72.2477 409.078L72.0643 409.334C70.031 412.172 67.7827 415.311 65.377 418.67L65.8272 418.658C63.6019 415.858 61.249 412.897 58.8182 409.837C58.6704 409.651 58.5226 409.466 58.3862 409.294L58.1626 409.014L57.9331 409.288C55.1837 412.574 52.536 415.74 50.0976 418.655L50.5373 418.672C48.12 415.3 45.8678 412.159 43.8461 409.338L43.6502 409.065L43.4592 409.338C40.8086 413.124 38.5574 416.339 36.8726 418.746L37.1117 418.74C35.9117 417.3 34.9574 416.156 34.2624 415.324C33.9533 414.966 33.7018 414.675 33.4992 414.441C33.3226 414.245 33.2266 414.147 33.216 414.155Z" fill="#F5F5F5"/>
<path d="M31.6886 401.953C31.6886 402.114 43.4698 402.246 57.9993 402.246C72.5337 402.246 84.3129 402.114 84.3129 401.953C84.3129 401.792 72.5337 401.66 57.9993 401.66C43.4707 401.66 31.6886 401.792 31.6886 401.953Z" fill="#F5F5F5"/>
<path d="M29.3136 441.786C29.3136 441.947 42.1171 442.079 57.9082 442.079C73.705 442.079 86.5056 441.947 86.5056 441.786C86.5056 441.625 73.705 441.493 57.9082 441.493C42.1171 441.493 29.3136 441.625 29.3136 441.786Z" fill="#F5F5F5"/>
<path d="M442.673 163.274H354.013V255.694H442.673V163.274Z" fill="#E0E0E0"/>
<path d="M436.668 163.274H348.009V255.694H436.668V163.274Z" fill="#EBEBEB"/>
<path d="M424.75 175.697H359.927V243.27H424.75V175.697Z" fill="#FAFAFA"/>
<path d="M359.927 243.719C359.97 243.771 359.348 244.469 358.308 245.556C357.267 246.642 355.809 248.118 354.178 249.724C352.547 251.331 351.051 252.766 349.951 253.788C348.851 254.809 348.146 255.418 348.099 255.37C348.052 255.322 348.671 254.627 349.712 253.54C350.752 252.453 352.214 250.975 353.849 249.364C355.484 247.754 356.983 246.316 358.083 245.294C359.182 244.274 359.884 243.668 359.927 243.719Z" fill="#E0E0E0"/>
<path d="M424.751 243.554C424.802 243.511 425.501 244.133 426.588 245.173C427.674 246.214 429.149 247.672 430.756 249.303C432.363 250.934 433.798 252.43 434.82 253.53C435.841 254.63 436.45 255.335 436.402 255.382C436.354 255.429 435.659 254.81 434.572 253.769C433.485 252.729 432.007 251.267 430.396 249.632C428.786 247.997 427.348 246.498 426.326 245.398C425.305 244.299 424.699 243.597 424.751 243.554Z" fill="#E0E0E0"/>
<path d="M424.573 175.878C424.53 175.826 425.152 175.128 426.193 174.041C427.234 172.955 428.692 171.479 430.323 169.873C431.954 168.266 433.45 166.831 434.55 165.809C435.65 164.788 436.355 164.179 436.402 164.227C436.449 164.275 435.829 164.97 434.789 166.057C433.748 167.144 432.286 168.622 430.651 170.233C429.016 171.843 427.518 173.281 426.418 174.302C425.318 175.324 424.617 175.93 424.573 175.878Z" fill="#E0E0E0"/>
<path d="M359.75 176.044C359.699 176.087 359.001 175.465 357.914 174.424C356.827 173.384 355.353 171.925 353.746 170.294C352.139 168.662 350.703 167.168 349.682 166.068C348.66 164.967 348.052 164.263 348.099 164.216C348.147 164.169 348.842 164.788 349.929 165.829C351.015 166.869 352.494 168.331 354.105 169.966C355.715 171.601 357.153 173.1 358.174 174.2C359.196 175.299 359.801 176.001 359.75 176.044Z" fill="#E0E0E0"/>
<path d="M424.573 243.271C424.573 243.271 424.565 243.156 424.561 242.944C424.558 242.719 424.554 242.408 424.549 242.004C424.544 241.163 424.535 239.944 424.524 238.359C424.511 235.164 424.493 230.509 424.469 224.592C424.443 212.76 424.405 195.894 424.361 175.698L424.573 175.91C405.704 175.92 383.541 175.931 359.934 175.942H359.927L360.17 175.698C360.157 200.501 360.146 223.704 360.135 243.271L359.926 243.061C379.307 243.106 395.44 243.143 406.746 243.168C412.4 243.191 416.843 243.21 419.89 243.223C421.401 243.233 422.562 243.242 423.365 243.247C423.75 243.252 424.046 243.255 424.261 243.258C424.465 243.262 424.573 243.271 424.573 243.271C424.573 243.271 424.48 243.278 424.285 243.282C424.075 243.285 423.786 243.289 423.411 243.294C422.618 243.3 421.47 243.307 419.976 243.318C416.94 243.33 412.512 243.348 406.88 243.372C395.542 243.398 379.362 243.435 359.927 243.479H359.718V243.27C359.708 223.703 359.696 200.5 359.683 175.697V175.453H359.927H359.934C383.541 175.465 405.704 175.476 424.573 175.485H424.786V175.697C424.741 195.949 424.704 212.862 424.678 224.727C424.654 230.624 424.636 235.263 424.622 238.447C424.612 240.013 424.603 241.219 424.597 242.05C424.593 242.444 424.588 242.748 424.585 242.967C424.581 243.173 424.573 243.271 424.573 243.271Z" fill="#E0E0E0"/>
<path d="M377.035 203.927C377.035 203.927 375.647 220.658 393.766 220.658C393.766 211.73 386.4 204.682 377.035 203.927Z" fill="#EBEBEB"/>
<path d="M410.19 203.94C410.19 203.94 393.459 202.551 393.459 220.67C402.387 220.67 409.435 213.304 410.19 203.94Z" fill="#EBEBEB"/>
<path d="M392.963 194.783C392.963 194.783 379.295 207.053 393.71 220.658C400.415 213.554 399.847 202.415 392.963 194.783Z" fill="#E0E0E0"/>
<path d="M443.653 448.544C443.653 448.682 352.616 448.793 240.342 448.793C128.028 448.793 37.0109 448.681 37.0109 448.544C37.0109 448.405 128.028 448.294 240.342 448.294C352.617 448.294 443.653 448.406 443.653 448.544Z" fill="#263238"/>
<path d="M202.336 285.261C202.336 285.261 182.996 282.232 181.381 282.293C179.767 282.353 164.429 285.353 164.429 285.353C164.429 285.353 142.723 289.205 140.536 290.767C138.349 292.33 139.959 297.287 139.959 297.287C142.364 298.218 149.959 296.736 149.959 296.736C149.959 296.736 149.925 298.767 151.29 301.523C152.654 304.278 156.377 303.583 156.377 303.583L153.465 305.081C153.465 305.081 153.708 307.298 154.77 310.172C155.833 313.046 162.747 312.635 162.747 312.635C162.747 312.635 164.578 316.747 167.443 317.44C170.309 318.132 185.252 314.627 189.684 314.141C194.118 313.655 202.63 308.409 202.63 308.409C202.63 308.409 209.177 310.726 213.059 311.508L215.239 283.331C213.64 283.188 202.336 285.261 202.336 285.261Z" fill="#455A64"/>
<path d="M124.841 374.664C116.593 372.59 110.347 365.373 107.513 357.354C104.679 349.334 104.785 340.581 105.631 332.118C105.788 330.54 105.954 328.866 105.255 327.443C104.146 325.182 101.115 324.398 98.7091 325.143C96.3034 325.888 94.439 327.789 92.8973 329.781C84.4387 340.708 83.1264 356.682 89.687 368.844C96.2477 381.005 110.318 388.68 124.095 387.612" fill="#AE7461"/>
<path d="M187.311 295.072C187.311 295.072 206.636 328.548 211.522 342.01C216.407 355.471 222.63 392.474 222.63 392.474C222.63 392.474 251.649 399.948 233.671 431.142C227.025 442.672 227.621 448.025 220.171 448.365C214.366 448.629 167.644 448.274 167.644 448.274L168.484 452.85C168.484 452.85 164.575 466.079 156.658 462.348C148.74 458.616 139.423 448.274 139.423 448.274L125.82 448.088L93.3984 448.274L83.9184 448.088C83.928 448.003 83.9376 447.918 83.9482 447.83C84.5942 442.57 88.2931 438.183 93.3658 436.644L100.318 434.533C100.318 434.533 91.2883 396.59 99.1104 387.518C106.932 378.446 119.66 379.042 119.66 379.042L113.815 340.007C112.654 330.852 113.579 321.552 116.518 312.804L120.901 299.762L187.311 295.072Z" fill="#AE7461"/>
<path d="M120.168 380.367C133.562 387.979 142.61 400.742 147.108 415.318C147.153 415.465 147.385 415.403 147.339 415.255C143.852 403.955 137.668 393.491 128.532 385.854C125.964 383.707 123.199 381.813 120.29 380.16C120.155 380.084 120.034 380.292 120.168 380.367Z" fill="#263238"/>
<path d="M120.447 301.117C120.447 301.117 114.147 317.958 113.618 326.379C112.741 340.353 119.661 379.042 119.661 379.042C119.661 379.042 117.292 416.978 115.234 422.599C113.176 428.22 114.041 433.408 104.68 435.326C102.15 435.845 97.7462 444.029 97.7462 448.088H123.925C123.925 448.088 131.008 440.084 131.351 432.59C131.694 425.097 144.141 384.424 144.141 384.424" fill="#AE7461"/>
<path d="M144.141 384.424C144.141 384.424 144.122 384.529 144.066 384.731C144.005 384.947 143.921 385.242 143.812 385.627C143.578 386.433 143.238 387.598 142.797 389.111C141.91 392.178 140.619 396.643 138.982 402.305C137.379 407.989 135.418 414.879 133.457 422.83C132.973 424.819 132.492 426.876 132.079 429.004C131.982 429.537 131.885 430.073 131.787 430.614C131.695 431.154 131.657 431.7 131.589 432.248C131.532 432.808 131.476 433.373 131.418 433.941C131.318 434.505 131.217 435.074 131.079 435.636C129.879 440.13 127.312 444.359 124.091 448.235L124.028 448.309H123.924C115.842 448.316 107.004 448.323 97.7462 448.33H97.4938L97.5043 448.088C97.6128 445.521 98.6179 443.142 99.7469 440.848C100.332 439.706 100.988 438.586 101.768 437.532C102.168 437.013 102.583 436.499 103.076 436.041C103.53 435.574 104.195 435.166 104.866 435.027C107.362 434.475 109.959 433.545 111.613 431.507C113.281 429.474 113.698 426.716 114.479 424.119C114.614 423.632 114.782 423.152 114.946 422.672C115.096 422.194 115.21 421.725 115.345 421.253C115.537 420.281 115.747 419.313 115.88 418.329C116.187 416.37 116.425 414.41 116.65 412.462C117.097 408.566 117.45 404.713 117.782 400.924C118.439 393.345 118.971 386.015 119.429 379.027L119.432 379.082C117.446 367.624 115.859 356.968 114.741 347.412C114.183 342.636 113.742 338.132 113.532 333.938C113.331 329.756 113.274 325.833 114.015 322.38C114.683 318.93 115.532 315.9 116.308 313.269C117.091 310.641 117.826 308.417 118.438 306.616C119.052 304.815 119.555 303.44 119.898 302.513C120.07 302.062 120.203 301.716 120.299 301.466C120.391 301.232 120.448 301.116 120.448 301.116C120.448 301.116 120.416 301.241 120.335 301.479C120.249 301.733 120.128 302.083 119.971 302.54C119.651 303.493 119.185 304.875 118.582 306.665C117.993 308.473 117.281 310.701 116.52 313.332C115.766 315.963 114.939 318.996 114.295 322.432C113.58 325.863 113.655 329.743 113.872 333.92C114.1 338.101 114.558 342.597 115.13 347.366C116.276 356.907 117.888 367.557 119.89 378.999L119.894 379.027L119.892 379.055C119.445 386.049 118.922 393.38 118.271 400.965C117.942 404.757 117.59 408.613 117.144 412.517C116.919 414.468 116.681 416.433 116.373 418.405C116.241 419.392 116.028 420.375 115.832 421.365C115.693 421.855 115.568 422.361 115.416 422.839C115.257 423.309 115.092 423.778 114.958 424.26C114.573 425.553 114.272 426.875 113.855 428.173C113.441 429.468 112.878 430.753 111.999 431.82C111.131 432.896 109.979 433.693 108.766 434.275C107.553 434.878 106.252 435.204 104.969 435.51C104.357 435.648 103.877 435.947 103.412 436.402C102.952 436.827 102.55 437.324 102.163 437.826C101.405 438.849 100.759 439.949 100.184 441.071C99.0701 443.311 98.087 445.694 97.9882 448.087L97.7462 447.845C107.004 447.852 115.842 447.859 123.924 447.865L123.758 447.94C126.942 444.132 129.503 439.925 130.684 435.536C130.819 434.987 130.92 434.432 131.019 433.883C131.076 433.325 131.134 432.771 131.191 432.22C131.262 431.66 131.303 431.096 131.398 430.55C131.499 430.007 131.599 429.467 131.698 428.93C132.121 426.791 132.61 424.733 133.101 422.743C135.094 414.788 137.089 407.908 138.729 402.232C140.382 396.561 141.732 392.107 142.664 389.071C143.132 387.566 143.493 386.408 143.743 385.606C143.866 385.226 143.961 384.933 144.03 384.72C144.098 384.523 144.141 384.424 144.141 384.424Z" fill="#263238"/>
<path d="M189.987 318.62C189.987 318.62 190.081 318.828 190.24 319.24C190.403 319.67 190.634 320.282 190.935 321.08C191.538 322.717 192.416 325.105 193.545 328.175C195.779 334.348 199.017 343.28 202.767 354.406C203.7 357.189 204.662 360.11 205.607 363.175C206.085 364.705 206.538 366.277 206.978 367.888C207.394 369.521 207.631 371.207 207.853 372.922C208.68 379.788 209.078 387.157 209.523 394.905C209.954 402.653 210.33 410.791 210.895 419.212C211.189 423.42 211.502 427.708 212.091 432.014C212.245 433.089 212.418 434.166 212.663 435.223C212.782 435.752 212.929 436.275 213.118 436.768C213.21 437.015 213.327 437.251 213.465 437.441C213.533 437.523 213.612 437.619 213.676 437.634C213.725 437.675 213.919 437.725 214.034 437.769C215.1 438.118 216.17 438.542 217.092 439.229C217.585 439.525 217.977 439.955 218.403 440.34C218.765 440.788 219.155 441.22 219.422 441.734C220.609 443.762 220.841 446.18 220.414 448.424L220.378 448.615H220.171C210.057 448.629 200.256 448.643 190.902 448.655H190.657L190.661 448.416C190.704 445.902 191.244 443.516 191.772 441.178C192.325 438.841 192.958 436.566 193.648 434.339L193.641 434.443C191.876 422.916 190.203 412.254 188.635 402.755C187.841 398.007 187.105 393.541 186.275 389.436C186.161 388.927 186.078 388.408 185.942 387.922L185.751 387.189C185.693 386.943 185.547 386.743 185.451 386.519C184.998 385.654 184.397 384.858 183.812 384.102C182.641 382.577 181.422 381.195 180.27 379.878C175.595 374.664 171.692 370.715 169.044 367.995C167.72 366.65 166.698 365.613 165.995 364.898C165.658 364.553 165.398 364.289 165.212 364.098C165.037 363.918 164.955 363.819 164.955 363.819C164.955 363.819 165.056 363.9 165.239 364.07C165.432 364.255 165.7 364.51 166.048 364.843C166.764 365.546 167.802 366.566 169.149 367.889C171.832 370.577 175.767 374.496 180.479 379.691C181.642 381.004 182.869 382.381 184.058 383.912C184.653 384.676 185.257 385.461 185.743 386.376C185.846 386.612 186.003 386.837 186.063 387.087L186.263 387.839C186.404 388.342 186.489 388.852 186.606 389.366C187.456 393.483 188.209 397.943 189.018 402.69C190.618 412.188 192.316 422.846 194.099 434.373L194.106 434.425L194.09 434.478C193.408 436.691 192.78 438.964 192.233 441.286C191.711 443.604 191.18 445.996 191.144 448.413L190.903 448.175C200.257 448.156 210.058 448.137 220.172 448.116L219.93 448.307C220.33 446.212 220.106 443.869 218.992 441.987C218.743 441.504 218.375 441.101 218.038 440.681C217.636 440.321 217.272 439.916 216.804 439.638C215.938 438.989 214.913 438.583 213.888 438.247C213.746 438.192 213.665 438.182 213.471 438.089C213.273 438.006 213.176 437.867 213.069 437.744C212.882 437.486 212.758 437.22 212.656 436.953C212.451 436.418 212.301 435.877 212.179 435.336C211.929 434.253 211.755 433.167 211.599 432.085C211.008 427.749 210.699 423.459 210.407 419.245C209.848 410.815 209.483 402.677 209.064 394.93C208.633 387.185 208.25 379.815 207.444 372.973C207.227 371.268 206.993 369.587 206.591 367.989C206.158 366.386 205.712 364.817 205.239 363.288C204.306 360.227 203.355 357.303 202.433 354.518C198.728 343.383 195.54 334.433 193.362 328.241C192.272 325.158 191.423 322.76 190.841 321.115C190.56 320.311 190.344 319.693 190.192 319.26C190.048 318.839 189.987 318.62 189.987 318.62Z" fill="#263238"/>
<path d="M164.417 407.077C164.406 407.091 164.222 406.95 163.884 406.669C163.509 406.351 163.02 405.936 162.413 405.42C161.164 404.307 159.402 402.636 157.357 400.447C153.231 396.102 147.993 389.678 142.698 382.234C137.442 374.759 133.117 367.685 130.41 362.339C129.039 359.676 128.058 357.455 127.435 355.901C127.16 355.153 126.938 354.552 126.768 354.091C126.621 353.676 126.552 353.456 126.568 353.45C126.585 353.444 126.685 353.653 126.863 354.057C127.055 354.508 127.305 355.095 127.615 355.827C128.291 357.352 129.317 359.541 130.724 362.175C133.502 367.462 137.863 374.487 143.107 381.946C148.39 389.374 153.571 395.815 157.618 400.207C159.623 402.42 161.34 404.123 162.545 405.277C163.126 405.821 163.592 406.258 163.95 406.593C164.267 406.898 164.428 407.064 164.417 407.077Z" fill="#263238"/>
<path d="M148.318 403.365C150.077 409.042 151.284 414.876 151.828 420.796C151.946 422.087 152.846 423.196 154.228 423.196C155.435 423.196 156.747 422.095 156.628 420.796C156.045 414.447 154.835 408.18 152.947 402.088C152.563 400.851 151.273 400.061 149.995 400.412C148.771 400.748 147.933 402.122 148.318 403.365Z" fill="#AE7461"/>
<path d="M120.606 304.977C119.792 284.442 118.313 260.463 120.542 252.652C122.772 244.841 138.501 229.4 147.529 225.819C156.557 222.238 171.521 227.015 176.043 231.011L204.483 224.134C204.483 224.134 210.058 237.062 203.181 247.435C196.304 257.807 176.038 257.681 176.038 257.681C176.038 257.681 174.219 268.966 182.886 269.957C191.553 270.948 203.093 269.586 204.205 279.015L186.393 280.613L187.39 296.315L153.508 314.321L121.773 305.161" fill="#AE7461"/>
<path d="M144.973 238.277C145.002 238.274 145.065 238.569 145.155 239.133C145.25 239.795 145.367 240.612 145.509 241.608C145.795 243.886 146.183 246.971 146.655 250.727C147.112 254.619 147.651 259.199 148.245 264.264C148.541 266.807 148.857 269.505 148.882 272.326C148.883 275.135 148.626 278.129 147.45 280.961C146.275 283.778 144.061 286.121 141.38 287.254C138.711 288.432 135.807 288.474 133.241 287.974C130.664 287.424 128.368 286.249 126.613 284.694C124.871 283.135 123.603 281.33 122.739 279.561C120.984 276.006 120.659 272.757 120.591 270.594C120.57 269.502 120.624 268.655 120.686 268.085C120.754 267.515 120.803 267.218 120.832 267.221C120.912 267.227 120.791 268.427 120.924 270.579C121.089 272.707 121.508 275.88 123.276 279.286C124.146 280.982 125.396 282.694 127.079 284.16C128.76 285.61 130.949 286.7 133.398 287.201C135.835 287.654 138.575 287.592 141.044 286.485C143.519 285.424 145.55 283.274 146.661 280.627C147.768 277.965 148.035 275.076 148.043 272.329C148.03 269.565 147.736 266.901 147.461 264.349C146.934 259.277 146.458 254.691 146.053 250.792C145.692 247.023 145.397 243.928 145.178 241.644C145.1 240.641 145.035 239.818 144.983 239.151C144.948 238.582 144.944 238.281 144.973 238.277Z" fill="#263238"/>
<path d="M196.003 226.305C195.894 227.781 196.599 229.395 197.556 230.453C198.514 231.511 199.876 232.107 201.234 232.546C203.001 233.117 204.975 233.463 206.678 232.721C206.678 230.436 206.319 228.153 205.62 225.979C205.404 225.309 205.094 224.581 204.448 224.301C204.086 224.145 203.676 224.158 203.283 224.187C200.744 224.372 198.245 225.1 196.003 226.305Z" fill="#263238"/>
<g opacity="0.3">
<path d="M120.903 272.389C121.668 277.466 123.07 283.031 126.541 286.815C130.013 290.599 135.462 292.832 140.422 291.504C146.512 289.874 150.281 283.388 150.765 277.102C151.249 270.816 149.153 264.65 147.086 258.694C148.078 264.36 149.066 270.216 147.738 275.814C146.411 281.412 142.14 286.73 136.428 287.417C132.46 287.894 128.415 286.016 125.777 283.013C123.138 280.01 121.18 276.376 120.903 272.389Z" fill="black"/>
</g>
<path d="M206.773 234.972C206.826 234.975 206.852 235.505 206.781 236.459C206.718 237.413 206.532 238.788 206.136 240.457C205.742 242.124 205.097 244.079 204.086 246.126C203.057 248.148 201.621 250.306 199.508 251.962C197.418 253.617 195.109 254.674 192.985 255.459C190.854 256.247 188.861 256.712 187.182 257.029C185.5 257.338 184.124 257.485 183.171 257.536C182.218 257.588 181.689 257.566 181.685 257.511C181.673 257.37 183.771 257.197 187.059 256.438C188.698 256.049 190.642 255.532 192.708 254.722C194.767 253.916 196.995 252.862 198.976 251.292C200.962 249.738 202.352 247.703 203.387 245.764C204.401 243.804 205.092 241.917 205.551 240.301C206.477 237.065 206.623 234.956 206.773 234.972Z" fill="#263238"/>
<path d="M165.341 239.269C163.668 239.947 163.27 242.574 164.667 243.717C166.064 244.86 168.56 243.952 168.895 242.178C169.23 240.404 167.237 238.648 165.519 239.203" fill="#263238"/>
<path d="M155.559 242.315C155.24 242.436 154.716 242.027 154.318 241.12C153.919 240.226 153.714 238.827 154.031 237.351C154.35 235.877 155.111 234.685 155.844 234.034C156.58 233.371 157.225 233.214 157.467 233.456C157.956 233.991 156.974 235.689 156.54 237.891C156.03 240.077 156.227 242.028 155.559 242.315Z" fill="#263238"/>
<path d="M190.903 410.259C190.902 410.315 189.918 410.259 188.148 410.345C187.265 410.388 186.183 410.478 184.956 410.714C183.728 410.945 182.356 411.373 180.987 412.143C178.237 413.678 175.559 416.412 172.485 419.245C169.455 422.112 166.638 425.863 162.639 428.74C160.655 430.177 158.374 431.147 156.084 431.521C153.793 431.894 151.572 431.845 149.495 432.014C147.426 432.175 145.445 432.533 143.844 433.432C142.231 434.301 140.969 435.525 140.084 436.812C138.295 439.403 137.846 442.051 137.914 443.788C137.967 445.551 138.34 446.487 138.272 446.503C138.272 446.503 137.836 445.59 137.72 443.796C137.592 442.029 137.989 439.306 139.793 436.611C140.686 435.274 141.973 433.989 143.646 433.068C145.314 432.11 147.361 431.73 149.458 431.556C151.562 431.373 153.775 431.41 156.002 431.038C158.221 430.667 160.409 429.735 162.35 428.331C166.259 425.525 169.091 421.793 172.165 418.913C175.267 416.092 177.967 413.377 180.818 411.833C182.233 411.064 183.651 410.649 184.904 410.44C186.158 410.227 187.252 410.165 188.142 410.152C189.033 410.138 189.724 410.162 190.191 410.195C190.658 410.22 190.903 410.242 190.903 410.259Z" fill="#263238"/>
<path d="M155.152 439.508C155.151 439.478 155.464 439.435 156.034 439.434C156.603 439.431 157.43 439.499 158.43 439.718C160.414 440.138 163.135 441.341 165.25 443.7C167.361 446.062 168.255 448.901 168.453 450.919C168.561 451.936 168.536 452.766 168.47 453.332C168.406 453.899 168.33 454.204 168.3 454.2C168.204 454.193 168.401 452.941 168.104 450.966C167.822 449.01 166.904 446.301 164.878 444.034C162.849 441.771 160.259 440.558 158.346 440.063C156.415 439.548 155.148 439.604 155.152 439.508Z" fill="#263238"/>
<path d="M164.628 452.162C164.678 452.172 164.557 453.062 163.916 454.347C163.288 455.622 162.047 457.268 160.163 458.429C158.277 459.589 156.248 459.956 154.826 459.942C153.39 459.936 152.54 459.643 152.555 459.593C152.568 459.509 153.43 459.673 154.814 459.589C156.188 459.513 158.107 459.106 159.9 458.003C161.691 456.899 162.918 455.369 163.605 454.177C164.304 452.98 164.546 452.136 164.628 452.162Z" fill="#263238"/>
<path d="M156.343 445.963C156.358 446.044 155.575 446.194 154.41 446.684C153.25 447.167 151.715 448.057 150.412 449.464C149.108 450.872 148.337 452.47 147.945 453.664C147.544 454.863 147.455 455.655 147.372 455.646C147.317 455.644 147.28 454.83 147.606 453.563C147.923 452.305 148.676 450.601 150.045 449.125C151.412 447.648 153.054 446.766 154.284 446.355C155.522 445.933 156.337 445.909 156.343 445.963Z" fill="#263238"/>
<path d="M211.014 448.985C210.938 448.967 211.09 448.228 211.216 447.033C211.335 445.848 211.415 444.153 210.805 442.456C210.189 440.772 208.899 439.61 207.842 439.136C206.771 438.638 205.989 438.728 205.992 438.632C205.972 438.593 206.778 438.362 207.979 438.809C209.158 439.235 210.605 440.452 211.276 442.285C211.929 444.109 211.777 445.885 211.567 447.081C211.346 448.291 211.072 449.001 211.014 448.985Z" fill="#263238"/>
<path d="M116.225 437.977C116.218 438.063 115.334 437.955 113.948 438.16C112.572 438.356 110.675 438.957 109.014 440.286C107.354 441.617 106.354 443.339 105.863 444.638C105.36 445.947 105.274 446.832 105.187 446.82C105.136 446.821 105.095 445.909 105.529 444.521C105.949 443.147 106.949 441.301 108.701 439.896C110.453 438.493 112.472 437.92 113.906 437.809C115.356 437.689 116.237 437.928 116.225 437.977Z" fill="#263238"/>
<path d="M235.747 429.227C235.704 429.192 236.204 428.621 236.935 427.474C237.668 426.332 238.596 424.58 239.319 422.265C240.023 419.949 240.503 417.064 240.377 413.862C240.259 410.668 239.539 407.151 237.978 403.806C236.409 400.463 234.069 397.709 231.424 395.912C228.804 394.077 226.068 392.991 223.698 392.544C221.318 392.103 219.325 392.292 218.025 392.654C217.376 392.846 216.875 393.011 216.551 393.165C216.22 393.301 216.04 393.366 216.033 393.35C216.025 393.335 216.188 393.241 216.509 393.074C216.822 392.888 217.318 392.692 217.971 392.467C219.278 392.039 221.318 391.789 223.76 392.196C226.192 392.608 228.997 393.681 231.687 395.533C233.028 396.459 234.343 397.593 235.483 398.961C236.625 400.326 237.621 401.891 238.43 403.592C240.026 407.011 240.743 410.594 240.838 413.845C240.941 417.105 240.415 420.033 239.657 422.37C238.879 424.71 237.889 426.46 237.098 427.58C236.7 428.14 236.374 428.561 236.128 428.827C235.89 429.1 235.761 429.237 235.747 429.227Z" fill="#263238"/>
<path d="M119.592 380.121C119.579 380.268 117.132 379.288 113.096 379.757C111.094 379.972 108.751 380.621 106.368 381.799C104.005 382.997 101.601 384.774 99.7046 387.183C98.7379 388.368 98.0342 389.685 97.5341 391.04C97.0474 392.398 96.7536 393.768 96.5405 395.082C96.1546 397.722 96.1104 400.142 96.1248 402.169C96.1411 404.197 96.2054 405.841 96.2294 406.978C96.2352 407.498 96.24 407.93 96.2448 408.288C96.2419 408.587 96.2333 408.745 96.216 408.746C96.1987 408.747 96.1747 408.59 96.145 408.293C96.1152 407.937 96.0797 407.506 96.0365 406.988C95.9539 405.854 95.8349 404.213 95.7734 402.176C95.7139 400.141 95.7206 397.702 96.0874 395.015C96.2909 393.676 96.5808 392.274 97.0762 390.874C97.5811 389.481 98.3194 388.092 99.3168 386.872C101.264 384.398 103.739 382.588 106.166 381.387C108.614 380.205 111.018 379.58 113.062 379.405C115.107 379.22 116.778 379.379 117.893 379.631C118.459 379.717 118.877 379.883 119.166 379.96C119.45 380.05 119.598 380.104 119.592 380.121Z" fill="#263238"/>
<path d="M79.9949 359.342C79.9613 359.348 79.8758 358.976 79.7501 358.294C79.6157 357.614 79.4909 356.618 79.4006 355.381C79.2144 352.91 79.3046 349.45 80.0842 345.733C80.8752 342.018 82.1933 338.817 83.3626 336.632C83.9453 335.537 84.4627 334.676 84.8602 334.109C85.2509 333.537 85.4794 333.23 85.5082 333.249C85.584 333.297 84.7526 334.581 83.6774 336.791C82.5994 338.996 81.3533 342.171 80.5728 345.836C79.8038 349.502 79.6589 352.91 79.7539 355.362C79.8432 357.818 80.0832 359.328 79.9949 359.342Z" fill="#263238"/>
<path d="M76.9162 360.837C76.8826 360.844 76.7837 360.472 76.633 359.793C76.4765 359.115 76.3066 358.12 76.1482 356.886C75.8285 354.418 75.6595 350.959 76.0214 347.167C76.393 343.375 77.2214 340.012 78.0086 337.65C78.4003 336.468 78.7574 335.526 79.0416 334.89C79.319 334.252 79.487 333.906 79.5197 333.92C79.5984 333.951 79.0397 335.382 78.3475 337.755C77.6525 340.125 76.8883 343.463 76.5206 347.215C76.1626 350.966 76.273 354.388 76.5005 356.847C76.7251 359.31 76.9997 360.822 76.9162 360.837Z" fill="#263238"/>
<g opacity="0.3">
<path d="M139.535 398.904C143.518 403.267 146.401 408.628 147.846 414.356C148.166 415.628 148.41 417.013 147.895 418.22C146.793 420.804 143.235 420.926 140.8 422.327C138.762 423.499 137.5 425.63 136.328 427.669C132.361 434.568 128.393 441.467 124.427 448.366C128.103 448.063 129.467 448.45 133.143 448.145L139.057 448.275C138.838 448.369 137.907 445.461 137.829 444.097C137.59 439.932 140.403 434.889 144.141 433.034C148.84 430.701 154.243 432.65 159.011 430.46C163.575 428.365 166.295 425.158 169.262 422.214C172.987 418.518 176.677 413.621 181.451 411.443C183.608 410.459 188.769 410.361 188.769 410.361C186.313 407.478 181.82 407.625 178.164 408.611C174.507 409.597 170.765 411.187 167.071 410.357C163.967 409.66 161.506 407.372 159.206 405.174C153.321 399.546 147.231 393.608 144.609 385.898C142.971 390.128 141.334 394.357 139.696 398.586" fill="black"/>
</g>
<g opacity="0.3">
<path d="M220.172 448.365C222.074 443.702 217.74 438.189 215.994 433.466C214.224 428.678 214.607 423.412 214.619 418.308C214.642 407.574 212.896 396.838 209.473 386.664C209.093 400.651 210.689 415.513 211.523 429.481C211.699 432.447 211.47 435.876 213.647 437.899C214.76 438.932 215.423 438.479 216.668 439.348C217.913 440.217 220.368 442.188 220.172 448.365Z" fill="black"/>
</g>
<path d="M163.642 310.495C163.613 310.612 161.162 309.75 158.84 307.621C156.499 305.512 155.408 303.155 155.522 303.115C155.655 303.032 156.908 305.212 159.177 307.252C161.422 309.314 163.712 310.355 163.642 310.495Z" fill="#263238"/>
<path d="M167.245 308.524C167.207 308.644 165.14 307.975 162.976 306.438C160.803 304.913 159.481 303.19 159.581 303.113C159.691 303.012 161.148 304.546 163.264 306.029C165.371 307.526 167.304 308.385 167.245 308.524Z" fill="#263238"/>
<path d="M171.985 308.355C171.957 308.477 169.932 307.964 167.83 306.53C165.718 305.109 164.491 303.419 164.594 303.348C164.707 303.247 166.066 304.743 168.11 306.116C170.142 307.505 172.036 308.213 171.985 308.355Z" fill="#263238"/>
<path d="M139.332 349.581C139.292 349.694 136.933 348.571 134.865 346.177C132.775 343.8 131.985 341.31 132.102 341.286C132.245 341.22 133.217 343.55 135.241 345.849C137.241 348.167 139.418 349.449 139.332 349.581Z" fill="#263238"/>
<path d="M142.874 349.633C142.806 349.74 140.991 348.567 139.315 346.529C137.627 344.501 136.815 342.499 136.932 342.453C137.066 342.385 138.057 344.238 139.7 346.211C141.33 348.194 142.966 349.514 142.874 349.633Z" fill="#263238"/>
<path d="M149.053 350.835C148.953 350.929 147.429 349.457 145.65 347.549C143.871 345.639 142.512 344.016 142.613 343.922C142.714 343.828 144.237 345.299 146.016 347.208C147.795 349.117 149.154 350.741 149.053 350.835Z" fill="#263238"/>
<path d="M130.001 270.94C129.964 270.987 129.575 270.768 129.078 270.253C128.581 269.743 128.008 268.909 127.649 267.87C127.294 266.829 127.235 265.819 127.313 265.111C127.389 264.399 127.562 263.988 127.62 264.002C127.772 264.021 127.428 265.746 128.123 267.708C128.779 269.68 130.109 270.831 130.001 270.94Z" fill="#263238"/>
<path d="M131.689 270.204C131.586 270.282 130.73 269.226 130.244 267.647C129.749 266.071 129.856 264.715 129.986 264.722C130.133 264.717 130.249 266.003 130.721 267.499C131.181 268.998 131.813 270.124 131.689 270.204Z" fill="#263238"/>
<path d="M135.503 272.588C135.4 272.667 134.22 271.224 133.285 269.14C132.34 267.061 132.038 265.22 132.165 265.196C132.307 265.161 132.819 266.906 133.741 268.934C134.652 270.968 135.624 272.505 135.503 272.588Z" fill="#263238"/>
<path d="M248.56 95.3789C241.119 99.9398 238.599 110.944 238.278 119.666C237.956 128.388 240.337 136.948 242.266 145.459C244.194 153.972 245.68 162.89 243.59 171.364C241.655 179.213 236.756 187.485 240.277 194.761C242.937 200.255 249.745 203.106 251.624 208.914C253.816 215.694 248.274 222.315 243.182 227.299C245.492 231.074 250.956 232.489 254.807 230.308C254.695 232.366 253.672 234.358 252.066 235.65C257.838 237.136 264.398 234.847 267.993 230.093C267.288 232.513 266.582 234.933 265.878 237.353C271.658 236.015 276.857 232.326 280.029 227.313C280.845 228.84 281.66 230.367 282.476 231.895C291.843 225.466 298.349 215.349 301.54 204.446C304.731 193.544 304.773 181.889 302.94 170.677C297.759 139.001 277 110.257 248.56 95.3789Z" fill="#263238"/>
<path d="M357.448 175.329C354.113 171.325 350.004 167.348 349.543 162.158C349.339 159.865 349.892 157.515 349.372 155.272C348.03 149.484 340.502 147.197 338.234 141.705C335.387 134.813 341.867 125.69 337.068 119.982C334.764 117.242 330.794 116.706 327.769 114.794C320.069 109.928 321.953 96.5059 303.535 86.8224L304.907 116.213C311.108 141.068 316.034 166.241 319.657 191.601C333.518 190.918 347.38 190.236 361.241 189.553C363.634 184.925 360.784 179.332 357.448 175.329Z" fill="#263238"/>
<path d="M239.758 106.089C240.162 98.7706 243.652 91.6733 249.202 86.8848C255.299 81.625 263.527 79.2874 271.578 79.1731C279.63 79.0589 287.575 81.0067 295.236 83.4845C299.535 84.8746 303.87 86.4864 307.361 89.353C313.734 94.5859 316.273 103.045 318.487 110.988C320.276 117.41 322.078 124.158 320.598 130.659C319.24 136.625 315.012 141.869 309.469 144.461" fill="#263238"/>
<path d="M241.985 100.564C237.658 107.904 235.907 116.729 237.106 125.166C238.305 133.601 242.445 141.59 248.648 147.433C248.862 128.914 250.693 110.412 254.114 92.2099" fill="#263238"/>
<path d="M240.301 126.054C238.383 113.064 243.531 95.5306 256.591 94.1654L287.744 95.351C297.738 95.7312 305.772 102.373 308.558 111.979C308.698 112.458 308.619 111.855 308.69 112.222L323.189 190.045C325.54 202.808 317.159 215.077 304.415 217.528C291.812 219.952 279.579 211.871 276.859 199.329C275.508 193.093 273.923 185.744 273.927 185.776C273.927 185.776 256.973 186.54 249.036 165.895C245.09 155.628 242.434 140.485 240.301 126.054Z" fill="#9D6054"/>
<path d="M268.215 113.064C268.279 113.187 265.71 114.571 262.296 115.669C258.884 116.78 255.993 117.163 255.972 117.026C255.942 116.87 258.759 116.256 262.131 115.158C265.504 114.073 268.147 112.921 268.215 113.064Z" fill="#724A44"/>
<path d="M263.28 113.327C263.339 113.457 261.731 114.285 259.587 114.865C257.444 115.452 255.638 115.551 255.623 115.41C255.603 115.257 257.345 114.923 259.446 114.347C261.548 113.779 263.22 113.185 263.28 113.327Z" fill="#724A44"/>
<path d="M281.262 153.699C281.122 153.748 280.751 152.915 279.771 152.551C278.806 152.147 277.966 152.502 277.897 152.371C277.862 152.316 278.032 152.12 278.416 151.984C278.796 151.847 279.388 151.822 279.968 152.051C280.547 152.28 280.963 152.702 281.146 153.061C281.335 153.423 281.325 153.682 281.262 153.699Z" fill="#724A44"/>
<path d="M248.605 141.77C248.862 143.228 250.309 144.213 251.836 143.973C253.36 143.733 254.391 142.36 254.135 140.902C253.878 139.444 252.432 138.458 250.908 138.698C249.38 138.936 248.349 140.312 248.605 141.77Z" fill="#263238"/>
<path d="M246.009 134.314C246.424 134.599 248.173 132.621 251.124 132.001C254.062 131.34 256.548 132.397 256.791 131.968C256.914 131.775 256.43 131.204 255.343 130.718C254.27 130.233 252.546 129.904 250.712 130.303C248.877 130.703 247.476 131.708 246.735 132.589C245.977 133.477 245.807 134.189 246.009 134.314Z" fill="#263238"/>
<path d="M275.128 135.987C275.385 137.445 276.831 138.429 278.359 138.189C279.882 137.949 280.914 136.576 280.658 135.118C280.402 133.661 278.955 132.674 277.43 132.913C275.902 133.154 274.872 134.53 275.128 135.987Z" fill="#263238"/>
<path d="M275.109 128.7C275.526 128.985 277.278 127.006 280.226 126.387C283.164 125.725 285.651 126.782 285.894 126.353C286.017 126.16 285.537 125.588 284.445 125.103C283.372 124.617 281.649 124.289 279.814 124.687C277.98 125.088 276.579 126.093 275.837 126.973C275.081 127.862 274.909 128.575 275.109 128.7Z" fill="#263238"/>
<path d="M269.059 152.843C269.037 152.673 267.137 152.746 264.085 152.997C263.316 153.08 262.571 153.082 262.335 152.595C262.042 152.088 262.185 151.211 262.363 150.256C262.684 148.284 263.018 146.217 263.37 144.049C264.726 135.228 265.537 128.04 265.182 127.988C264.827 127.936 263.437 135.044 262.082 143.866C261.766 146.036 261.462 148.107 261.176 150.086C261.073 151.002 260.789 152.077 261.414 153.125C261.736 153.644 262.376 153.935 262.886 153.963C263.4 154.007 263.825 153.925 264.203 153.868C267.227 153.394 269.084 153.013 269.059 152.843Z" fill="#263238"/>
<path d="M300.621 172.087C300.621 172.087 296.824 188.25 275.015 190.798L273.928 185.775C273.928 185.775 288.201 183.675 300.621 172.087Z" fill="#724A44"/>
<path d="M271.817 159.684C272.58 158.057 274.274 156.892 276.161 156.698C277.47 156.564 278.894 156.905 279.893 157.783C280.891 158.659 281.369 160.104 280.874 161.247C280.316 162.536 278.708 163.148 277.216 163.047C275.724 162.947 274.316 162.278 272.969 161.6C272.597 161.412 272.215 161.215 271.942 160.907C271.668 160.599 271.529 160.15 271.713 159.808" fill="#724A44"/>
<path d="M278.171 153.036C277.685 153.11 278.36 156.313 276.103 159.167C273.853 162.028 270.365 162.395 270.435 162.847C270.433 163.057 271.327 163.308 272.774 163.04C274.197 162.788 276.164 161.895 277.545 160.149C278.919 158.401 279.244 156.389 279.073 155.052C278.912 153.689 278.386 152.972 278.171 153.036Z" fill="#263238"/>
<path d="M272.544 120.222C273.005 120.961 275.868 119.956 279.417 119.636C282.959 119.246 285.964 119.666 286.27 118.849C286.402 118.462 285.756 117.81 284.462 117.275C283.18 116.737 281.239 116.381 279.112 116.59C276.987 116.805 275.156 117.539 274.005 118.319C272.843 119.102 272.338 119.868 272.544 120.222Z" fill="#263238"/>
<path d="M245.278 125.549C245.94 126.108 247.823 124.98 250.259 124.428C252.675 123.791 254.866 123.919 255.193 123.117C255.329 122.732 254.861 122.131 253.822 121.69C252.797 121.247 251.197 121.047 249.53 121.455C247.863 121.866 246.538 122.782 245.835 123.649C245.116 124.521 244.98 125.27 245.278 125.549Z" fill="#263238"/>
<path d="M241.91 105.301C242.526 101.807 245.637 99.119 249.064 98.1994C252.491 97.2787 256.157 97.8634 259.533 98.953C273.832 103.571 284.123 116.635 298.326 121.54C301.819 122.747 305.538 123.454 308.7 125.367C311.863 127.281 314.419 130.874 313.676 134.494C314.867 131.815 316.071 129.088 316.451 126.181C316.83 123.275 316.275 120.108 314.309 117.933C312.816 116.283 310.587 115.258 309.606 113.261C308.743 111.504 309.058 109.404 308.567 107.509C308.067 105.58 306.762 103.972 305.439 102.482C298.645 94.8336 290.18 88.415 280.406 85.393C274.021 83.4182 267.104 82.9488 260.621 84.575C254.138 86.2013 248.132 90.0039 244.31 95.4874C242.059 98.712 239.688 102.059 241.91 105.301Z" fill="#263238"/>
<path d="M321.806 137.735C321.244 137.59 321.191 136.126 320.767 133.82C320.542 132.691 320.21 131.312 319.511 130.17C319.338 129.888 319.146 129.624 318.935 129.391C318.841 129.261 318.708 129.177 318.605 129.063C318.505 128.963 318.3 128.781 318.146 128.643C317.473 128.056 316.724 127.456 315.943 126.972C315.182 126.482 314.312 126.101 313.825 126.073C313.576 126.045 313.533 126.13 313.648 126.143C313.411 126.244 313.171 126.347 312.93 126.45C312.678 126.569 312.422 126.689 312.165 126.81C311.167 127.307 310.27 127.879 309.376 128.61C308.93 128.975 308.485 129.377 308.039 129.813L307.704 130.147L307.125 130.681C306.731 131.018 306.324 131.33 305.906 131.617C304.225 132.74 302.384 133.572 300.115 133.923C298.981 134.084 297.713 134.113 296.325 133.789L295.811 133.658L295.396 133.518C295.122 133.418 294.837 133.334 294.574 133.212C294.036 132.985 293.514 132.73 293.022 132.438C291.03 131.274 289.526 129.733 288.289 128.236C287.06 126.73 286.056 125.214 285.11 123.84C281.492 118.522 277.125 114.17 272.696 110.748C268.267 107.319 263.783 104.864 259.853 103.125C255.909 101.316 252.711 100.43 250.4 100.104C248.1 99.767 246.666 99.8573 246.462 99.3034C246.264 98.833 247.434 97.6493 250.21 96.9725C252.955 96.2832 257.146 96.4656 261.721 97.7395C266.34 98.9443 271.707 101.148 277.017 104.706C282.314 108.238 287.587 113.148 291.752 119.271C292.76 120.744 293.642 122.077 294.523 123.192C295.401 124.298 296.265 125.153 297.079 125.663C297.281 125.797 297.485 125.903 297.686 126.002C297.785 126.06 297.891 126.083 297.992 126.13L298.142 126.195L298.209 126.213C298.374 126.275 298.716 126.323 299.134 126.287C299.977 126.226 301.043 125.862 301.879 125.376C302.087 125.254 302.282 125.127 302.462 125.001L302.715 124.807L303.19 124.401C303.831 123.866 304.5 123.355 305.198 122.883C306.59 121.935 308.123 121.17 309.581 120.644C309.946 120.511 310.305 120.391 310.657 120.28L311.18 120.123L311.777 119.959C313.125 119.587 314.393 119.748 315.332 120.036C317.245 120.64 318.411 121.582 319.435 122.464C320.448 123.362 321.241 124.283 321.946 125.196C322.127 125.442 322.271 125.625 322.467 125.921C322.649 126.211 322.856 126.487 322.992 126.78C323.3 127.355 323.523 127.927 323.689 128.477C324.33 130.692 324.145 132.489 323.903 133.872C323.339 136.646 322.307 137.88 321.806 137.735Z" fill="#263238"/>
<path d="M309.844 128.624C309.937 127.962 320.214 121.548 322.907 133.356C325.523 144.829 313.428 145.06 313.334 144.735C313.241 144.411 309.844 128.624 309.844 128.624Z" fill="#9D6054"/>
<path d="M315.899 139.59C315.941 139.542 316.13 139.685 316.503 139.764C316.866 139.84 317.457 139.817 318.006 139.458C319.118 138.74 319.707 136.585 319.297 134.504C319.092 133.452 318.649 132.507 318.093 131.767C317.554 131.005 316.879 130.541 316.244 130.57C315.605 130.566 315.254 131.028 315.187 131.383C315.106 131.738 315.229 131.951 315.174 131.985C315.148 132.021 314.884 131.847 314.87 131.353C314.867 131.114 314.94 130.813 315.16 130.532C315.385 130.246 315.765 130.041 316.2 129.992C317.099 129.853 318.079 130.489 318.689 131.302C319.349 132.108 319.871 133.165 320.101 134.346C320.548 136.676 319.85 139.107 318.299 139.959C317.538 140.352 316.81 140.26 316.401 140.067C315.982 139.862 315.864 139.62 315.899 139.59Z" fill="#724A44"/>
<path d="M271.207 212.086C271.207 212.086 264.205 214.58 261.03 222.624C257.854 230.669 244.046 279.635 244.046 279.635L215.238 283.329L213.058 309.944C213.058 309.944 224.076 313.051 238.465 314.319C249.082 315.255 266.242 313.693 270.716 311.191C275.191 308.688 270.276 213.206 270.276 213.206L271.207 212.086Z" fill="#E0E0E0"/>
<path d="M277.045 204.814C286.169 215.175 310.126 194.165 320.793 177.472L286.482 338.612L280.627 337.182L277.045 204.814Z" fill="#455A64"/>
<path d="M276.331 197.738L274.125 208.201L265.956 215.651C265.849 229.326 273.242 256.623 271.404 262.103C268.782 269.92 267.738 278.03 270.871 289.431C272.475 295.27 282.178 337.183 282.178 337.183C282.178 337.183 279.378 446.865 279.671 448.275H301.98L280.195 302.407L279.312 211.001L276.331 197.738Z" fill="#E0E0E0"/>
<path d="M419.46 378.776C412.55 361.501 386.986 317.28 386.986 317.28C386.986 317.28 384.913 301.734 383.185 267.531C381.458 233.328 366.602 194.98 363.492 189.107C360.383 183.233 325.821 177.471 325.821 177.471L319.78 168.673C319.78 168.673 306.891 202.524 306.2 203.56C305.508 204.597 291.713 245.186 290.331 256.587C288.948 267.988 285.068 329.371 285.068 329.371L301.979 448.273H427.661C427.661 448.273 426.371 396.05 419.46 378.776Z" fill="#E0E0E0"/>
<path d="M303.043 374.475C304.841 374.272 328.188 371.637 365.563 367.419L365.78 367.395L365.8 367.613C367.578 386.747 369.687 409.456 371.943 433.736C372.19 436.412 372.436 439.069 372.679 441.704L372.704 441.97L372.437 441.975C354.328 442.391 337.26 442.783 322.175 443.128L322 443.132L321.954 442.964C316.389 422.574 311.714 405.441 308.424 393.389C306.752 387.39 305.433 382.659 304.526 379.408C304.061 377.808 303.703 376.575 303.455 375.725C303.328 375.321 303.231 375.011 303.161 374.785C303.081 374.574 303.036 374.472 303.043 374.475C303.043 374.475 303.108 374.577 303.194 374.773C303.27 374.981 303.39 375.29 303.522 375.704C303.8 376.528 304.176 377.761 304.66 379.369C305.621 382.587 306.982 387.313 308.678 393.317C312.07 405.326 316.81 422.447 322.383 442.847L322.164 442.683C337.247 442.321 354.317 441.911 372.424 441.476L372.181 441.749C371.938 439.115 371.693 436.457 371.445 433.781C369.216 409.499 367.13 386.787 365.373 367.651L365.609 367.844C328.207 371.808 304.84 374.284 303.043 374.475Z" fill="#263238"/>
<path d="M367.031 383.276C367.041 383.414 353.62 384.507 337.059 385.718C320.491 386.93 307.057 387.8 307.047 387.661C307.038 387.524 320.456 386.431 337.022 385.219C353.584 384.009 367.021 383.139 367.031 383.276Z" fill="#263238"/>
<path d="M386.526 317.095C386.542 317.125 386.277 317.294 385.783 317.574C385.292 317.86 384.558 318.229 383.635 318.654C381.789 319.497 379.129 320.469 376.072 321.05C373.014 321.625 370.193 321.728 368.168 321.708C367.153 321.693 366.334 321.66 365.769 321.612C365.203 321.567 364.892 321.527 364.893 321.492C364.896 321.416 366.148 321.417 368.164 321.354C370.178 321.284 372.964 321.126 375.979 320.558C378.993 319.985 381.63 319.08 383.497 318.328C385.364 317.573 386.488 317.022 386.526 317.095Z" fill="#263238"/>
<path d="M386.986 317.281C387.032 317.329 386.229 318.185 384.853 319.489C383.481 320.795 381.53 322.538 379.348 324.427C377.22 326.261 375.296 327.919 373.751 329.251C372.319 330.485 371.432 331.249 371.383 331.196C371.337 331.148 372.139 330.292 373.514 328.989C374.887 327.684 376.838 325.94 379.02 324.05C381.148 322.216 383.072 320.558 384.617 319.227C386.05 317.992 386.936 317.229 386.986 317.281Z" fill="#263238"/>
<path d="M344.27 410.247C341.862 409.372 339.231 409.025 337.01 410.303C335.219 411.333 334.355 413.58 334.585 415.633C334.815 417.686 335.984 419.539 337.447 420.998C338.443 421.993 339.679 422.875 341.084 422.95C342.657 423.034 344.1 422.096 345.265 421.037C346.45 419.959 347.501 418.679 348.028 417.167C348.555 415.655 348.495 413.882 347.601 412.553C346.56 411.01 344.657 410.341 342.887 409.769" fill="#FF9A6C"/>
<path d="M336.07 408.929C336.25 407.913 336.185 406.833 335.75 405.896C335.316 404.959 334.485 404.183 333.481 403.944C332.477 403.704 331.321 404.067 330.731 404.914C330.305 405.524 330.2 406.313 330.295 407.051C330.463 408.36 331.304 409.616 332.541 410.076C333.778 410.537 335.486 410.113 336.07 408.929Z" fill="#FF9A6C"/>
<path d="M346.8 409.464C347.832 409.435 348.876 409.155 349.707 408.541C350.537 407.926 351.13 406.957 351.161 405.925C351.194 404.893 350.606 403.834 349.657 403.427C348.973 403.133 348.18 403.189 347.476 403.429C346.227 403.858 345.167 404.934 344.964 406.238C344.763 407.542 345.523 409.13 346.8 409.464Z" fill="#FF9A6C"/>
<path d="M352.039 412.831C352.751 412.811 353.472 412.617 354.045 412.193C354.618 411.769 355.027 411.1 355.049 410.388C355.071 409.675 354.666 408.945 354.012 408.663C353.54 408.461 352.992 408.499 352.506 408.665C351.644 408.961 350.913 409.704 350.773 410.605C350.633 411.504 351.157 412.6 352.039 412.831Z" fill="#FF9A6C"/>
<path d="M340.916 407.7C342.035 407.218 343.057 406.453 343.698 405.418C344.34 404.382 344.565 403.061 344.15 401.916C343.735 400.77 342.629 399.867 341.412 399.834C340.534 399.811 339.688 400.218 339.022 400.79C337.841 401.805 337.149 403.448 337.497 404.965C337.844 406.483 339.371 407.892 340.916 407.7Z" fill="#FF9A6C"/>
<path d="M290.332 287.965C290.324 287.962 290.347 287.866 290.399 287.679C290.461 287.469 290.542 287.198 290.643 286.859C290.878 286.108 291.208 285.056 291.629 283.714C292.516 280.955 293.784 277.015 295.349 272.149C298.548 262.356 302.964 248.843 307.874 233.814L307.864 233.857C307.959 233.185 308.061 232.46 308.163 231.733C309.082 225.235 309.966 218.987 310.788 213.173L310.799 213.102L310.847 213.049C315.042 208.355 318.903 204.036 322.29 200.246L322.242 200.349C323.308 193.381 324.181 187.668 324.794 183.661C325.107 181.702 325.353 180.161 325.525 179.075C325.612 178.572 325.68 178.177 325.731 177.877C325.781 177.608 325.811 177.47 325.821 177.471C325.831 177.473 325.82 177.613 325.79 177.886C325.753 178.188 325.704 178.586 325.642 179.091C325.494 180.18 325.284 181.727 325.016 183.693C324.444 187.707 323.628 193.429 322.634 200.406L322.625 200.463L322.586 200.509C319.216 204.314 315.375 208.65 311.201 213.363L311.259 213.238C310.445 219.053 309.569 225.303 308.659 231.802C308.556 232.529 308.455 233.254 308.36 233.926L308.357 233.948L308.35 233.969C303.383 248.979 298.917 262.475 295.68 272.256C294.052 277.101 292.734 281.025 291.811 283.771C291.353 285.101 290.994 286.143 290.738 286.887C290.618 287.221 290.522 287.486 290.447 287.693C290.378 287.876 290.34 287.967 290.332 287.965Z" fill="#263238"/>
<path d="M279.619 299.91C279.612 299.911 279.595 299.846 279.569 299.72C279.541 299.566 279.508 299.381 279.468 299.155C279.381 298.619 279.264 297.89 279.116 296.967C278.823 295.018 278.408 292.255 277.892 288.824C276.887 281.856 275.492 272.185 273.905 261.182L273.9 261.15L273.904 261.117C274.252 258.365 274.613 255.502 274.982 252.577C275.62 247.578 276.234 242.761 276.808 238.262L276.873 238.457C274.338 235.812 271.95 233.321 269.745 231.021L269.669 230.941L269.688 230.835C270.93 224.054 271.965 218.404 272.699 214.404C273.07 212.457 273.364 210.914 273.574 209.815C273.677 209.315 273.758 208.916 273.821 208.61C273.88 208.338 273.916 208.199 273.927 208.201C273.939 208.203 273.924 208.346 273.886 208.621C273.84 208.931 273.779 209.333 273.703 209.838C273.521 210.942 273.266 212.491 272.943 214.447C272.253 218.455 271.279 224.117 270.108 230.91L270.052 230.724C272.268 233.014 274.668 235.494 277.215 238.126L277.294 238.208L277.28 238.321C276.713 242.821 276.107 247.639 275.477 252.638C275.104 255.564 274.74 258.426 274.39 261.178V261.112C275.91 272.124 277.246 281.803 278.209 288.778C278.663 292.217 279.029 294.988 279.287 296.942C279.4 297.87 279.489 298.602 279.555 299.142C279.578 299.37 279.597 299.557 279.613 299.713C279.625 299.843 279.627 299.909 279.619 299.91Z" fill="#263238"/>
<path d="M301.957 448.17C301.821 448.189 298.421 425.056 294.364 396.507C290.306 367.948 287.127 344.788 287.265 344.769C287.401 344.749 290.8 367.878 294.859 396.437C298.916 424.986 302.095 448.151 301.957 448.17Z" fill="#263238"/>
<path d="M222.715 322.245L242.144 316.66L254.215 344.769L227.169 343.922L222.715 323.388" fill="#9D6054"/>
<path d="M242.144 316.66L257.934 353.429C257.934 353.429 336.885 330.896 342.524 324.567C348.163 318.239 360.119 261.169 362.149 250.116C364.18 239.062 366.436 194.117 356.962 186.926C347.487 179.736 338.239 181.315 329.216 191.24C321.906 199.28 310.001 245.281 305.743 262.465C304.694 266.695 304.415 271.076 304.919 275.405L305.756 282.597C305.756 282.597 298.312 289.364 297.861 295.68L242.144 316.66Z" fill="#E0E0E0"/>
<path d="M318.718 215.773C318.718 215.773 318.625 216.177 318.418 216.955C318.204 217.743 317.893 218.897 317.486 220.405C316.654 223.445 315.432 227.904 313.861 233.634C312.279 239.372 310.348 246.38 308.108 254.501C307.548 256.531 306.967 258.632 306.369 260.798C305.715 262.956 305.261 265.214 305.026 267.582C304.792 269.944 304.779 272.397 305.041 274.888C305.333 277.387 305.632 279.95 305.94 282.575L305.95 282.667L305.879 282.734C304.125 284.412 302.438 286.32 300.996 288.463C299.564 290.592 298.312 293.027 298.06 295.694L298.047 295.824L297.929 295.868C281.29 302.145 262.485 309.238 242.225 316.881L242.361 316.564C247.403 328.296 252.7 340.623 258.16 353.328L257.864 353.187C264.372 351.318 271.261 349.292 278.224 347.203C291.785 343.128 304.994 339.038 317.635 334.752C323.946 332.588 330.144 330.425 336.034 327.899C337.507 327.272 338.947 326.588 340.327 325.832C340.997 325.433 341.683 325.033 342.217 324.518C342.492 324.266 342.688 323.931 342.912 323.627C343.101 323.289 343.301 322.959 343.48 322.617C344.848 319.821 345.836 316.865 346.776 313.955C348.62 308.112 350.157 302.329 351.59 296.7C353.022 291.068 354.323 285.578 355.547 280.262C357.975 269.628 360.119 259.69 361.879 250.584C363.533 241.463 364.484 233.112 365.046 225.77C365.589 218.425 365.67 212.065 365.266 206.897C364.863 201.737 363.963 197.753 362.745 195.309C361.602 192.796 360.211 192.053 360.293 191.998C360.293 191.998 360.568 192.226 361.094 192.693C361.335 192.947 361.599 193.297 361.932 193.698C362.185 194.151 362.568 194.631 362.835 195.265C364.092 197.714 365.026 201.71 365.46 206.882C365.895 212.062 365.842 218.434 365.324 225.791C364.788 233.148 363.861 241.504 362.225 250.649C360.486 259.769 358.362 269.71 355.95 280.356C354.733 285.676 353.44 291.17 352.016 296.808C350.588 302.444 349.057 308.234 347.215 314.095C346.274 317.018 345.291 319.977 343.898 322.831C343.713 323.183 343.505 323.528 343.309 323.877C343.072 324.204 342.858 324.564 342.556 324.845C341.947 325.432 341.25 325.829 340.56 326.244C339.155 327.016 337.705 327.705 336.225 328.336C330.308 330.879 324.109 333.046 317.794 335.216C305.144 339.512 291.932 343.606 278.368 347.682C271.404 349.771 264.512 351.797 258 353.665L257.79 353.725L257.703 353.524C252.25 340.816 246.958 328.486 241.923 316.751L241.824 316.522L242.057 316.433C262.327 308.816 281.14 301.745 297.787 295.489L297.658 295.664C297.927 292.873 299.22 290.401 300.674 288.244C302.144 286.071 303.839 284.16 305.628 282.457L305.569 282.616C305.268 279.99 304.974 277.424 304.688 274.923C304.428 272.407 304.449 269.93 304.691 267.546C304.932 265.167 305.404 262.86 306.061 260.716C306.667 258.55 307.254 256.452 307.821 254.423C310.093 246.311 312.055 239.31 313.661 233.578C315.273 227.859 316.527 223.407 317.382 220.375C317.811 218.872 318.14 217.723 318.364 216.938C318.589 216.166 318.718 215.773 318.718 215.773Z" fill="#263238"/>
<path d="M308.112 304.102C307.973 304.194 306.661 301.291 303.677 298.931C300.726 296.526 297.61 295.873 297.669 295.717C297.68 295.663 298.464 295.744 299.668 296.148C300.869 296.547 302.471 297.325 303.991 298.541C305.506 299.761 306.612 301.157 307.26 302.244C307.914 303.332 308.163 304.08 308.112 304.102Z" fill="#263238"/>
<path d="M325.821 289.185C325.746 289.239 325.028 288.113 323.49 286.653C321.971 285.197 319.524 283.467 316.431 282.544C313.337 281.622 310.343 281.73 308.273 282.117C306.187 282.496 304.971 283.045 304.937 282.959C304.925 282.931 305.215 282.766 305.769 282.531C306.322 282.294 307.149 282.009 308.203 281.771C310.296 281.286 313.382 281.114 316.573 282.065C319.764 283.017 322.252 284.85 323.738 286.401C324.49 287.176 325.025 287.869 325.359 288.371C325.694 288.871 325.847 289.167 325.821 289.185Z" fill="#263238"/>
<path d="M240.624 356.554C229.893 356.554 215.017 352.836 196.409 345.502C182.63 340.072 171.806 334.563 171.699 334.508L173.445 331.088C173.868 331.305 216.087 352.713 240.624 352.713C250.324 352.713 257.828 348.029 262.929 338.793C266.852 331.69 267.824 324.438 267.832 324.366C268.089 322.827 273.877 288.298 275.866 279.08C276.902 274.274 279.675 266.389 282.357 258.764C284.81 251.791 287.345 244.581 287.858 241.502C288.902 235.239 288.147 221.54 288.138 221.402L291.972 221.185C292.005 221.765 292.76 235.449 291.645 242.133C291.077 245.539 288.601 252.582 285.979 260.036C283.337 267.549 280.604 275.318 279.619 279.888C277.649 289.018 271.69 324.566 271.63 324.924C271.602 325.17 267.299 356.554 240.624 356.554Z" fill="#FF725E"/>
<g opacity="0.4">
<path d="M240.624 356.554C229.893 356.554 215.017 352.836 196.409 345.502C182.63 340.072 171.806 334.563 171.699 334.508L173.445 331.088C173.868 331.305 216.087 352.713 240.624 352.713C250.324 352.713 257.828 348.029 262.929 338.793C266.852 331.69 267.824 324.438 267.832 324.366C268.089 322.827 273.877 288.298 275.866 279.08C276.902 274.274 279.675 266.389 282.357 258.764C284.81 251.791 287.345 244.581 287.858 241.502C288.902 235.239 288.147 221.54 288.138 221.402L291.972 221.185C292.005 221.765 292.76 235.449 291.645 242.133C291.077 245.539 288.601 252.582 285.979 260.036C283.337 267.549 280.604 275.318 279.619 279.888C277.649 289.018 271.69 324.566 271.63 324.924C271.602 325.17 267.299 356.554 240.624 356.554Z" fill="black"/>
</g>
<path d="M287.504 222.613C285.047 222.613 282.722 221.714 281.074 220.079C274.458 213.519 267.404 186.291 267.107 185.135L268.967 184.657C269.038 184.934 276.184 212.526 282.426 218.716C283.993 220.27 286.373 220.974 288.785 220.594C291.914 220.104 294.709 217.894 296.455 214.531C301.562 204.692 315.481 137.499 315.621 136.822L317.502 137.21C316.928 139.987 303.388 205.343 298.16 215.416C296.129 219.327 292.821 221.906 289.083 222.492C288.554 222.572 288.026 222.613 287.504 222.613Z" fill="#E0E0E0"/>
<path d="M314.892 142.35C315.025 139.653 314.367 137.464 313.912 134.802C313.72 133.682 314.076 131.765 315.012 131.12C315.979 130.454 317.399 131.258 317.794 132.363C318.188 133.468 318.135 135.153 317.979 136.316C317.552 139.512 316.647 140.439 316.123 142.35" fill="#E0E0E0"/>
<path d="M288.45 223.15C288.252 223.15 288.055 223.145 287.855 223.136C283.504 222.926 279.733 220.486 277.769 216.606C275.34 211.806 272.169 205.339 270.869 201.795L274.475 200.473C275.438 203.101 277.825 208.214 281.195 214.871C282.527 217.502 285.085 219.158 288.038 219.3C290.964 219.442 293.615 218.06 295.165 215.612L295.268 215.447C295.34 215.298 295.675 214.475 296.856 211.105L296.991 210.723C297.686 208.778 299.139 204.442 301.073 197.24L304.782 198.236C302.812 205.568 301.322 210.014 300.608 212.013L300.48 212.376C299.024 216.525 298.759 217.1 298.563 217.42L298.405 217.671C296.216 221.131 292.525 223.15 288.45 223.15Z" fill="#FF725E"/>
<g opacity="0.4">
<path d="M288.45 223.15C288.252 223.15 288.055 223.145 287.855 223.136C283.504 222.926 279.733 220.486 277.769 216.606C275.34 211.806 272.169 205.339 270.869 201.795L274.475 200.473C275.438 203.101 277.825 208.214 281.195 214.871C282.527 217.502 285.085 219.158 288.038 219.3C290.964 219.442 293.615 218.06 295.165 215.612L295.268 215.447C295.34 215.298 295.675 214.475 296.856 211.105L296.991 210.723C297.686 208.778 299.139 204.442 301.073 197.24L304.782 198.236C302.812 205.568 301.322 210.014 300.608 212.013L300.48 212.376C299.024 216.525 298.759 217.1 298.563 217.42L298.405 217.671C296.216 221.131 292.525 223.15 288.45 223.15Z" fill="black"/>
</g>
<path d="M165.656 338.612C170.788 338.612 174.949 334.451 174.949 329.318C174.949 324.186 170.788 320.025 165.656 320.025C160.523 320.025 156.362 324.186 156.362 329.318C156.362 334.451 160.523 338.612 165.656 338.612Z" fill="#E0E0E0"/>
<path d="M166.171 335.152C169.094 335.152 171.464 332.783 171.464 329.86C171.464 326.937 169.094 324.567 166.171 324.567C163.248 324.567 160.879 326.937 160.879 329.86C160.879 332.783 163.248 335.152 166.171 335.152Z" fill="#263238"/>
<path d="M159.804 338.612C159.804 338.612 157.764 333.815 159.804 332.066C161.845 330.317 183.126 324.567 183.126 324.567C183.126 324.567 198.139 320.227 199.742 320.025C201.346 319.822 220.878 321.133 220.878 321.133C220.878 321.133 231.955 318.072 233.559 318.072C235.163 318.072 232.831 328.275 232.539 331.628C232.247 334.981 230.061 336.996 232.101 338.611C234.142 340.228 239.546 344.768 239.546 344.768C239.546 344.768 233.85 346.349 229.915 345.912C225.979 345.474 223.211 344.163 223.211 344.163C223.211 344.163 215.194 350.139 210.821 351.013C206.448 351.888 191.872 356.699 188.957 356.261C186.041 355.823 183.855 351.888 183.855 351.888C183.855 351.888 177.005 352.908 175.692 350.139C174.38 347.369 173.943 345.183 173.943 345.183L176.713 343.434C176.713 343.434 173.067 344.455 171.465 341.831C169.862 339.207 169.716 337.181 169.716 337.181C169.716 337.181 162.282 339.327 159.804 338.612Z" fill="#455A64"/>
<path d="M269.214 250.932C269.23 250.936 269.2 251.129 269.127 251.492C269.037 251.907 268.924 252.43 268.784 253.072C268.622 253.755 268.435 254.593 268.264 255.575C268.088 256.555 267.843 257.664 267.682 258.907C267.491 260.146 267.287 261.503 267.153 262.971C266.967 264.433 266.887 266.005 266.775 267.658C266.628 270.966 266.631 274.611 266.909 278.424C267.216 282.235 267.769 285.839 268.419 289.087C268.782 290.702 269.101 292.245 269.508 293.662C269.865 295.092 270.273 296.403 270.65 297.598C270.998 298.803 271.409 299.861 271.734 300.803C272.052 301.747 272.364 302.546 272.628 303.196C272.865 303.809 273.057 304.309 273.208 304.705C273.336 305.052 273.396 305.239 273.379 305.245C273.364 305.252 273.274 305.08 273.115 304.745C272.94 304.358 272.719 303.87 272.447 303.27C272.155 302.629 271.814 301.838 271.471 300.9C271.12 299.964 270.684 298.909 270.313 297.707C269.912 296.513 269.483 295.202 269.106 293.77C268.681 292.35 268.345 290.803 267.967 289.181C267.288 285.92 266.718 282.296 266.409 278.461C266.129 274.626 266.14 270.958 266.314 267.633C266.439 265.972 266.535 264.392 266.739 262.924C266.892 261.45 267.116 260.09 267.33 258.849C267.515 257.603 267.784 256.495 267.988 255.516C268.185 254.536 268.401 253.703 268.592 253.025C268.768 252.391 268.912 251.874 269.027 251.465C269.134 251.111 269.197 250.928 269.214 250.932Z" fill="#263238"/>
</svg>
