<svg width="540" height="540" viewBox="0 0 540 540" fill="none" xmlns="http://www.w3.org/2000/svg">
<path d="M88.02 132.353H35.3603V236.735H88.02V132.353Z" fill="#F5F5F5"/>
<path d="M146.942 132.353H90.0439V236.735H146.942V132.353Z" fill="#F5F5F5"/>
<path d="M146.942 244.028H90.0439V344.884H146.942V244.028Z" fill="#F5F5F5"/>
<path d="M154.234 130.547H214.153V37.9513H216.179V130.547H264.942V35.8971H154.234V130.547Z" fill="#F5F5F5"/>
<path d="M264.942 132.353H216.179V236.735H264.942V132.353Z" fill="#F5F5F5"/>
<path d="M264.942 244.028H216.179V344.884H264.942V244.028Z" fill="#F5F5F5"/>
<path d="M88.02 244.028H35.3603V344.884H88.02V244.028Z" fill="#F5F5F5"/>
<path d="M214.153 244.028H154.234V344.884H214.153V244.028Z" fill="#F5F5F5"/>
<path d="M88.02 346.689H35.3603V437.572H88.02V346.689Z" fill="#F5F5F5"/>
<path d="M264.942 346.689H216.179V437.572H264.942V346.689Z" fill="#F5F5F5"/>
<path d="M88.02 130.547V37.9513H90.0439V130.547H146.942V35.8971H35.3603V130.547H88.02Z" fill="#F5F5F5"/>
<path d="M214.153 346.689H154.234V437.572H214.153V346.689Z" fill="#F5F5F5"/>
<path d="M146.942 346.689H90.0439V437.572H146.942V346.689Z" fill="#F5F5F5"/>
<path d="M214.153 132.353H154.234V236.735H214.153V132.353Z" fill="#F5F5F5"/>
<path d="M482.213 51.4685H473.433V240.255H482.213V51.4685Z" fill="#E0E0E0"/>
<path d="M346.063 53.0551V240.391C346.063 240.461 346.119 240.517 346.19 240.517H471.972C472.042 240.517 472.098 240.46 472.098 240.391V53.0551C472.098 52.9849 472.041 52.9276 471.972 52.9276H346.19C346.119 52.9287 346.063 52.9859 346.063 53.0551Z" fill="#F5F5F5"/>
<path d="M473.433 241.977H344.73C344.659 241.977 344.603 241.921 344.603 241.851V51.5949C344.603 51.5247 344.66 51.4685 344.73 51.4685H473.433C473.503 51.4685 473.559 51.5247 473.559 51.5949V241.851C473.559 241.921 473.502 241.977 473.433 241.977ZM347.65 239.058H470.512C470.582 239.058 470.638 239.001 470.638 238.932V54.5152C470.638 54.445 470.582 54.3888 470.512 54.3888H347.65C347.58 54.3888 347.523 54.4461 347.523 54.5152V238.931C347.523 239.001 347.58 239.058 347.65 239.058Z" fill="#EBEBEB"/>
<path d="M358.753 64.6283V228.694C358.753 228.765 358.811 228.821 358.88 228.821H459.503C459.573 228.821 459.63 228.763 459.63 228.694V64.6283C459.63 64.5581 459.572 64.502 459.503 64.502H358.88C358.809 64.5009 358.753 64.5581 358.753 64.6283Z" fill="white"/>
<path d="M437.333 177.474H380.83C380.791 177.474 380.76 177.443 380.76 177.405V111.156C380.76 111.117 380.792 111.087 380.83 111.087H437.332C437.37 111.087 437.401 111.118 437.401 111.156V177.405C437.402 177.443 437.371 177.474 437.333 177.474Z" fill="#EBEBEB"/>
<path d="M432.918 169.349C432.99 169.562 430.195 170.787 424.876 170.164C422.257 169.808 418.998 168.867 415.837 166.551C412.744 164.235 409.807 160.498 408.812 155.504C407.779 150.549 409.437 144.372 414.184 140.401C415.364 139.416 416.736 138.586 418.257 138.014C419.874 137.414 421.619 137.216 423.352 137.427C425.076 137.637 426.901 138.237 428.447 139.652C430.007 141.067 430.862 143.459 430.456 145.586C430.087 147.734 428.917 149.38 427.658 150.681C426.36 152.006 424.89 152.985 423.391 153.823C420.346 155.506 416.862 156.561 413.212 156.731C409.578 156.905 405.737 156.158 402.364 154.262C399.023 152.386 396.167 149.542 394.38 145.986C392.569 142.473 391.994 138.209 392.948 134.396C393.867 130.598 396.025 127.201 399.057 124.847C400.578 123.668 402.299 122.797 404.177 122.261C406.069 121.776 408.019 121.685 409.942 122.082C411.845 122.482 413.79 123.418 415.175 125.034C416.58 126.635 417.207 128.727 417.226 130.626C417.255 132.534 416.735 134.395 415.86 135.954C415.002 137.515 413.847 138.782 412.63 139.836C410.18 141.911 407.43 143.276 404.606 144.1C401.784 144.911 398.89 145.125 396.164 144.751C393.446 144.368 390.887 143.367 388.817 141.937C384.642 139.104 382.23 134.799 381.8 130.823C381.327 126.773 382.809 123.452 384.4 121.294C386.036 119.094 387.917 117.968 389.208 117.452C390.531 116.951 391.285 116.968 391.319 117.095C391.374 117.275 390.719 117.567 389.647 118.283C388.596 119.012 387.111 120.243 385.908 122.301C384.732 124.321 383.761 127.251 384.376 130.441C384.936 133.62 387.11 137.036 390.615 139.179C394.047 141.359 398.861 141.921 403.486 140.404C405.776 139.666 408.06 138.43 409.926 136.76C411.778 135.099 413.038 132.962 412.934 130.725C412.874 128.483 411.462 126.902 409.056 126.442C407.885 126.213 406.57 126.288 405.354 126.616C404.147 126.985 402.918 127.602 401.86 128.447C399.723 130.128 398.106 132.68 397.454 135.469C396.784 138.254 397.183 141.208 398.535 143.885C399.866 146.556 402.084 148.781 404.63 150.22C407.163 151.664 410.113 152.28 413.015 152.171C415.92 152.066 418.772 151.246 421.26 149.917C422.519 149.238 423.677 148.472 424.551 147.597C425.447 146.721 426.071 145.721 426.221 144.876C426.384 144.02 426.124 143.277 425.546 142.686C424.939 142.085 423.908 141.63 422.819 141.485C421.725 141.319 420.593 141.423 419.608 141.759C418.525 142.13 417.514 142.696 416.615 143.398C414.818 144.806 413.468 146.735 412.713 148.773C411.944 150.817 411.764 152.931 412.056 154.947C412.655 158.997 414.936 162.349 417.452 164.508C420.018 166.679 422.852 167.795 425.211 168.38C430.005 169.496 432.88 168.944 432.918 169.349Z" fill="#E0E0E0"/>
<path d="M523.502 492.47C523.502 492.626 409.03 492.751 267.852 492.751C126.626 492.751 12.177 492.625 12.177 492.47C12.177 492.315 126.626 492.189 267.852 492.189C409.03 492.189 523.502 492.316 523.502 492.47Z" fill="#263238"/>
<path d="M425.032 273.731L429.689 265.804C428.008 260.855 427.63 255.394 428.882 249.924C432.478 234.194 448.146 224.358 463.876 227.955C479.606 231.551 489.442 247.218 485.846 262.949C482.249 278.678 466.582 288.514 450.851 284.918C444.283 283.416 438.749 279.805 434.785 274.968L434.792 274.983L425.032 273.731Z" fill="white"/>
<path d="M425.032 273.732C425.032 273.732 425.224 273.768 425.633 273.829C426.074 273.892 426.684 273.98 427.476 274.093C429.158 274.328 431.603 274.667 434.774 275.109C434.844 275.118 434.907 275.07 434.917 275.001C434.92 274.976 434.916 274.95 434.906 274.929C434.906 274.929 434.902 274.92 434.9 274.914L434.685 275.048C437.081 277.999 440.847 281.455 446.299 283.686C449.001 284.821 452.117 285.558 455.473 285.783C458.824 286.012 462.435 285.676 466.023 284.575C469.607 283.481 473.159 281.622 476.294 278.998C479.429 276.381 482.138 272.992 484.021 269.037C487.829 261.177 487.963 250.886 483.3 242.422C480.977 238.151 477.683 234.492 473.764 231.938C469.876 229.344 465.476 227.754 461.088 227.179C456.69 226.612 452.323 227.112 448.399 228.379C444.466 229.647 440.974 231.691 438.119 234.167C432.381 239.151 429.304 245.699 428.38 251.468C427.4 257.289 428.338 262.3 429.571 265.843L429.582 265.741C428.097 268.334 426.951 270.336 426.161 271.716C425.794 272.365 425.51 272.868 425.304 273.23C425.114 273.568 425.032 273.732 425.032 273.732C425.032 273.732 425.153 273.549 425.363 273.206C425.585 272.842 425.89 272.338 426.287 271.688C427.097 270.344 428.273 268.393 429.796 265.866C429.815 265.835 429.817 265.796 429.806 265.763C428.63 262.233 427.753 257.27 428.76 251.533C429.713 245.844 432.781 239.417 438.441 234.538C441.257 232.115 444.696 230.118 448.562 228.885C452.42 227.652 456.704 227.172 461.017 227.735C465.322 228.308 469.634 229.873 473.443 232.418C477.282 234.925 480.508 238.514 482.786 242.701C487.356 250.998 487.234 261.077 483.514 268.797C481.675 272.679 479.024 276.009 475.953 278.588C472.882 281.175 469.398 283.012 465.878 284.102C462.356 285.199 458.803 285.546 455.502 285.337C452.197 285.133 449.119 284.427 446.446 283.324C441.053 281.161 437.296 277.78 434.882 274.886C434.838 274.831 434.758 274.823 434.703 274.867C434.658 274.903 434.645 274.968 434.668 275.019C434.67 275.024 434.674 275.034 434.674 275.034L434.806 274.855C431.664 274.486 429.243 274.202 427.576 274.008C426.766 273.916 426.141 273.846 425.691 273.795C425.265 273.749 425.032 273.732 425.032 273.732Z" fill="#263238"/>
<path d="M447.615 250.454H452.059C452.059 250.454 452.059 246.723 455.936 246.656C457.95 246.621 458.993 247.94 459.418 248.951C459.91 250.125 459.761 251.462 459.101 252.55C458.348 253.794 456.696 254.923 453.701 254.395V264.414H458.096V258.546C458.096 258.546 464.258 256.953 464.258 250.16C464.258 243.662 458.431 242.153 455.937 242.153C454.03 242.153 447.531 242.614 447.615 250.454Z" fill="#263238"/>
<path d="M458.149 266.479H453.69V270.644H458.149V266.479Z" fill="#263238"/>
<path d="M488.274 330.078C485.26 315.067 470.275 306.397 456.188 310.454C442.393 314.426 434.47 329.519 439.053 343.122C440.589 347.681 443.289 351.516 446.708 354.416C446.833 354.522 446.958 354.616 447.093 354.708C447.104 354.715 447.116 354.723 447.127 354.731C453.104 358.811 460.365 360.793 467.539 359.859C469.944 359.546 472.256 358.939 474.285 357.974C484.689 353.027 490.542 341.373 488.274 330.078Z" fill="white"/>
<path d="M488.274 330.078C488.284 330.076 488.314 330.212 488.366 330.481C488.419 330.778 488.49 331.173 488.581 331.676C488.752 332.729 488.885 334.304 488.828 336.335C488.709 338.359 488.355 340.846 487.393 343.575C486.427 346.288 484.893 349.275 482.476 352.012C481.278 353.386 479.862 354.681 478.262 355.867C476.622 356.988 474.853 358.092 472.826 358.841C468.783 360.309 464.076 360.724 459.314 359.954C456.937 359.551 454.544 358.867 452.23 357.853C451.071 357.356 449.931 356.778 448.822 356.123C448.263 355.804 447.719 355.451 447.176 355.093C446.614 354.735 446.12 354.276 445.644 353.837C441.788 350.273 438.911 345.318 437.929 339.816C437.365 337.079 437.375 334.277 437.752 331.595C437.892 330.24 438.271 328.94 438.602 327.646C438.824 327.015 439.046 326.388 439.266 325.763C439.471 325.131 439.803 324.554 440.064 323.951C441.207 321.591 442.628 319.396 444.369 317.558L444.999 316.853L445.69 316.214C446.157 315.799 446.591 315.348 447.077 314.968C448.067 314.226 449.02 313.456 450.083 312.875C454.21 310.329 458.851 309.276 463.126 309.257C464.2 309.192 465.248 309.361 466.279 309.435C467.308 309.537 468.297 309.799 469.276 309.968C470.227 310.259 471.173 310.508 472.067 310.836C472.938 311.221 473.83 311.516 474.63 311.955C477.89 313.592 480.468 315.734 482.387 317.89C483.288 319.019 484.163 320.046 484.777 321.124C485.48 322.146 485.949 323.177 486.394 324.09C486.634 324.538 486.812 324.983 486.954 325.411C487.106 325.833 487.249 326.228 487.382 326.596C487.677 327.321 487.795 327.976 487.926 328.493C488.041 328.99 488.132 329.381 488.2 329.674C488.259 329.939 488.284 330.076 488.274 330.078C488.265 330.08 488.22 329.947 488.144 329.684C488.063 329.395 487.954 329.01 487.816 328.52C487.669 328.01 487.536 327.364 487.226 326.649C487.085 326.286 486.935 325.897 486.775 325.481C486.627 325.058 486.443 324.621 486.198 324.18C485.741 323.283 485.263 322.269 484.554 321.268C483.934 320.209 483.055 319.204 482.155 318.099C480.237 315.989 477.676 313.899 474.456 312.31C473.666 311.884 472.786 311.601 471.926 311.226C471.044 310.909 470.112 310.671 469.177 310.389C468.212 310.229 467.24 309.976 466.228 309.882C465.214 309.815 464.185 309.653 463.131 309.724C458.935 309.763 454.387 310.813 450.355 313.319C449.313 313.889 448.382 314.647 447.415 315.376C446.938 315.75 446.515 316.193 446.059 316.601L445.384 317.227L444.77 317.921C443.068 319.723 441.681 321.877 440.564 324.19C440.311 324.781 439.984 325.346 439.785 325.965C439.57 326.577 439.354 327.191 439.137 327.809C438.816 329.076 438.444 330.348 438.308 331.673C437.942 334.299 437.932 337.037 438.484 339.712C439.442 345.091 442.253 349.942 446.022 353.433C446.5 353.874 446.959 354.303 447.485 354.64C448.017 354.992 448.55 355.338 449.1 355.654C450.188 356.3 451.307 356.871 452.446 357.361C454.718 358.362 457.067 359.041 459.401 359.443C464.072 360.216 468.707 359.822 472.666 358.403C474.64 357.686 476.394 356.605 478.01 355.514C479.589 354.359 480.99 353.094 482.179 351.75C484.579 349.072 486.115 346.139 487.098 343.47C488.078 340.784 488.459 338.328 488.611 336.324C488.701 334.312 488.605 332.744 488.471 331.692C488.404 331.187 488.351 330.79 488.312 330.493C488.278 330.22 488.265 330.079 488.274 330.078Z" fill="#263238"/>
<path d="M454.884 330.408H458.765C458.765 330.408 458.765 327.149 462.15 327.091C463.909 327.061 464.82 328.213 465.191 329.095C465.62 330.12 465.491 331.288 464.914 332.238C464.256 333.324 462.813 334.31 460.199 333.849V342.598H464.036V337.472C464.036 337.472 469.418 336.081 469.418 330.151C469.418 324.476 464.329 323.159 462.15 323.159C460.485 323.16 454.811 323.563 454.884 330.408Z" fill="#263238"/>
<path d="M464.083 344.401H460.189V348.039H464.083V344.401Z" fill="#263238"/>
<path d="M433.19 334.772C433.19 337.625 430.877 339.937 428.024 339.937C425.171 339.937 422.859 337.624 422.859 334.772C422.859 331.918 425.172 329.606 428.024 329.606C430.877 329.606 433.19 331.918 433.19 334.772Z" fill="white"/>
<path d="M433.19 334.772C433.135 334.774 433.143 334.312 432.922 333.537C432.705 332.777 432.177 331.67 431.029 330.824C429.92 329.976 428.103 329.507 426.353 330.165C424.616 330.768 423.12 332.616 423.14 334.772C423.12 336.929 424.616 338.778 426.353 339.381C428.104 340.039 429.92 339.57 431.029 338.721C432.177 337.875 432.704 336.768 432.922 336.008C433.143 335.232 433.135 334.77 433.19 334.772C433.21 334.772 433.222 334.885 433.23 335.105C433.242 335.324 433.22 335.65 433.135 336.059C432.974 336.867 432.477 338.079 431.271 339.036C430.106 339.994 428.126 340.566 426.177 339.867C424.244 339.231 422.554 337.178 422.578 334.771C422.555 332.365 424.246 330.313 426.177 329.676C428.126 328.978 430.106 329.549 431.271 330.508C432.477 331.465 432.974 332.676 433.135 333.485C433.22 333.895 433.242 334.221 433.23 334.44C433.222 334.658 433.21 334.772 433.19 334.772Z" fill="#263238"/>
<path d="M440.358 189.314C437.251 173.838 421.8 164.899 407.276 169.082C393.053 173.177 384.884 188.738 389.61 202.765C391.193 207.464 393.978 211.419 397.503 214.409C397.631 214.518 397.76 214.616 397.899 214.711C397.911 214.718 397.923 214.727 397.935 214.735C404.096 218.941 411.583 220.985 418.979 220.022C421.458 219.699 423.842 219.073 425.935 218.078C436.661 212.976 442.696 200.96 440.358 189.314Z" fill="white"/>
<path d="M440.358 189.314C440.368 189.312 440.399 189.453 440.452 189.729C440.506 190.034 440.579 190.441 440.672 190.96C440.847 192.046 440.985 193.67 440.925 195.764C440.801 197.851 440.437 200.413 439.443 203.227C438.445 206.023 436.865 209.102 434.374 211.923C433.139 213.339 431.679 214.674 430.03 215.895C428.34 217.051 426.516 218.189 424.427 218.96C420.259 220.473 415.408 220.901 410.499 220.107C408.049 219.691 405.582 218.985 403.199 217.941C402.003 217.429 400.828 216.833 399.685 216.158C399.109 215.829 398.549 215.465 397.989 215.097C397.411 214.728 396.901 214.255 396.41 213.802C392.435 210.129 389.47 205.022 388.459 199.351C387.878 196.53 387.888 193.643 388.276 190.878C388.421 189.483 388.812 188.142 389.152 186.809C389.381 186.159 389.609 185.512 389.837 184.867C390.048 184.216 390.391 183.622 390.66 183.001C391.838 180.567 393.302 178.305 395.097 176.412L395.747 175.684L396.458 175.026C396.939 174.597 397.386 174.134 397.888 173.741C398.909 172.976 399.89 172.182 400.988 171.584C405.241 168.961 410.024 167.874 414.431 167.854C415.538 167.787 416.618 167.959 417.681 168.036C418.743 168.141 419.76 168.411 420.77 168.585C421.75 168.885 422.725 169.142 423.647 169.479C424.546 169.876 425.465 170.18 426.289 170.631C429.65 172.318 432.308 174.527 434.286 176.75C435.215 177.913 436.117 178.971 436.751 180.082C437.476 181.135 437.958 182.198 438.418 183.139C438.666 183.601 438.849 184.059 438.995 184.501C439.153 184.935 439.3 185.343 439.438 185.723C439.742 186.471 439.863 187.145 439.998 187.678C440.118 188.192 440.212 188.595 440.281 188.896C440.341 189.172 440.367 189.313 440.358 189.314C440.348 189.316 440.303 189.178 440.224 188.908C440.141 188.611 440.03 188.214 439.887 187.707C439.735 187.181 439.598 186.515 439.278 185.778C439.133 185.404 438.979 185.002 438.814 184.573C438.66 184.138 438.471 183.686 438.218 183.232C437.747 182.306 437.254 181.261 436.523 180.227C435.884 179.135 434.978 178.098 434.05 176.959C432.072 174.783 429.433 172.627 426.111 170.988C425.296 170.548 424.389 170.256 423.503 169.87C422.593 169.543 421.632 169.296 420.666 169.006C419.672 168.842 418.67 168.58 417.626 168.483C416.581 168.414 415.519 168.247 414.432 168.319C410.104 168.36 405.415 169.442 401.255 172.027C400.181 172.615 399.221 173.397 398.223 174.148C397.733 174.533 397.295 174.989 396.825 175.41L396.129 176.056L395.495 176.771C393.74 178.63 392.309 180.851 391.158 183.236C390.895 183.845 390.559 184.427 390.354 185.066C390.132 185.697 389.909 186.331 389.686 186.969C389.354 188.275 388.972 189.588 388.831 190.954C388.453 193.661 388.444 196.485 389.013 199.245C390.001 204.794 392.901 209.795 396.787 213.397C397.28 213.852 397.753 214.294 398.296 214.641C398.846 215.004 399.395 215.363 399.962 215.687C401.084 216.353 402.238 216.942 403.413 217.447C405.756 218.48 408.178 219.18 410.586 219.595C415.403 220.391 420.184 219.984 424.266 218.522C426.302 217.782 428.111 216.667 429.776 215.542C431.404 214.35 432.849 213.046 434.075 211.659C436.549 208.898 438.133 205.873 439.147 203.12C440.157 200.35 440.549 197.818 440.706 195.751C440.798 193.676 440.697 192.06 440.559 190.974C440.49 190.453 440.435 190.043 440.395 189.738C440.361 189.461 440.348 189.316 440.358 189.314Z" fill="#263238"/>
<path d="M405.932 189.656H409.932C409.932 189.656 409.932 186.297 413.423 186.236C415.236 186.205 416.176 187.393 416.558 188.302C417.002 189.359 416.867 190.563 416.273 191.542C415.595 192.661 414.108 193.679 411.411 193.203V202.225H415.367V196.94C415.367 196.94 420.915 195.506 420.915 189.391C420.915 183.541 415.668 182.182 413.423 182.182C411.707 182.182 405.856 182.597 405.932 189.656Z" fill="#263238"/>
<path d="M415.415 204.082H411.401V207.832H415.415V204.082Z" fill="#263238"/>
<path d="M396.953 224.744C396.953 227.686 394.568 230.07 391.626 230.07C388.684 230.07 386.3 227.686 386.3 224.744C386.3 221.802 388.684 219.417 391.626 219.417C394.568 219.417 396.953 221.802 396.953 224.744Z" fill="white"/>
<path d="M396.953 224.744C396.898 224.746 396.906 224.27 396.68 223.47C396.456 222.685 395.913 221.543 394.728 220.669C393.583 219.792 391.708 219.307 389.9 219.985C388.107 220.608 386.561 222.517 386.582 224.744C386.561 226.971 388.107 228.88 389.9 229.503C391.709 230.181 393.584 229.697 394.729 228.82C395.913 227.946 396.457 226.802 396.681 226.018C396.906 225.218 396.898 224.741 396.953 224.744C396.972 224.744 396.985 224.86 396.992 225.087C397.003 225.313 396.981 225.649 396.892 226.071C396.726 226.904 396.213 228.15 394.97 229.136C393.77 230.122 391.731 230.711 389.724 229.99C387.736 229.335 385.995 227.222 386.02 224.744C385.997 222.266 387.736 220.154 389.724 219.498C391.731 218.778 393.77 219.366 394.97 220.352C396.213 221.337 396.726 222.585 396.892 223.417C396.981 223.84 397.004 224.176 396.992 224.401C396.985 224.627 396.972 224.744 396.953 224.744Z" fill="#263238"/>
<path d="M186.312 144.644H113.991C103.563 144.644 95.1102 153.098 95.1102 163.525V199.234C95.1102 209.661 103.563 218.115 113.991 218.115H167.779L177.069 233.52L185.762 218.115H186.312C196.739 218.115 205.192 209.661 205.192 199.234V163.525C205.192 153.098 196.739 144.644 186.312 144.644Z" fill="white"/>
<path d="M186.312 144.644C186.312 144.644 186.462 144.639 186.759 144.647C187.071 144.657 187.51 144.674 188.082 144.694C188.663 144.747 189.381 144.859 190.231 144.996C191.067 145.206 192.047 145.417 193.099 145.84C195.196 146.646 197.725 148.001 200.002 150.379C201.159 151.546 202.191 152.993 203.11 154.631C204.001 156.29 204.665 158.199 205.043 160.274C205.457 162.361 205.331 164.596 205.357 166.898C205.361 169.211 205.366 171.631 205.372 174.152C205.38 179.196 205.389 184.644 205.399 190.458C205.399 193.366 205.4 196.367 205.4 199.452C205.341 202.565 204.57 205.786 202.93 208.648C202.124 210.087 201.095 211.413 199.932 212.636C198.717 213.799 197.414 214.932 195.893 215.762C194.398 216.623 192.779 217.331 191.058 217.741C190.211 217.999 189.324 218.094 188.443 218.236C187.557 218.305 186.649 218.365 185.762 218.363L185.979 218.237C183.238 223.102 180.309 228.302 177.298 233.648L177.078 234.04L176.846 233.655C173.905 228.785 170.761 223.577 167.547 218.255L167.779 218.387C153.629 218.39 138.475 218.393 122.846 218.396C119.803 218.393 116.779 218.389 113.775 218.386C110.727 218.34 107.718 217.568 105.054 216.178C99.7304 213.368 95.9321 208.033 95.094 202.258L94.932 201.18L94.8769 200.095C94.8262 199.368 94.8326 198.657 94.8348 197.948C94.8359 196.526 94.8359 195.113 94.837 193.706C94.838 190.891 94.8391 188.102 94.8413 185.344C94.8445 179.826 94.8478 174.426 94.851 169.156C94.8521 167.838 94.8532 166.529 94.8542 165.228C94.8413 163.934 94.865 162.624 94.9925 161.327C95.2884 158.742 96.1222 156.259 97.3793 154.066C99.887 149.659 104.089 146.49 108.646 145.184C109.223 145.047 109.788 144.868 110.366 144.768C110.947 144.682 111.526 144.596 112.103 144.512C113.269 144.44 114.42 144.398 115.546 144.42C117.806 144.423 120.026 144.425 122.201 144.428C126.551 144.435 130.726 144.44 134.712 144.447C150.643 144.485 163.537 144.515 172.466 144.536C176.913 144.559 180.369 144.577 182.731 144.589C183.893 144.601 184.783 144.611 185.4 144.617C186.004 144.625 186.312 144.644 186.312 144.644C186.312 144.644 186.004 144.664 185.403 144.674C184.786 144.68 183.895 144.69 182.733 144.702C180.37 144.713 176.915 144.732 172.468 144.755C163.539 144.776 150.645 144.806 134.714 144.844C130.729 144.85 126.553 144.856 122.203 144.863C120.028 144.866 117.809 144.868 115.548 144.871C114.983 144.874 114.416 144.878 113.846 144.881C113.283 144.91 112.717 144.939 112.149 144.968C111.587 145.053 111.022 145.138 110.455 145.222C109.89 145.322 109.339 145.498 108.777 145.633C104.334 146.916 100.245 150.014 97.8091 154.311C96.5876 156.449 95.7809 158.868 95.4958 161.385C95.3748 162.643 95.3521 163.921 95.3662 165.228C95.3672 166.528 95.3683 167.838 95.3694 169.156C95.3726 174.426 95.3759 179.826 95.3791 185.344C95.3802 188.102 95.3813 190.89 95.3824 193.706C95.3834 195.113 95.3834 196.528 95.3845 197.948C95.3824 198.658 95.377 199.372 95.4277 200.071L95.4806 201.126L95.6394 202.173C96.4559 207.779 100.147 212.958 105.316 215.685C107.904 217.032 110.822 217.781 113.782 217.825C116.785 217.828 119.807 217.832 122.847 217.836C138.475 217.839 153.63 217.842 167.78 217.846H167.934L168.012 217.977C171.221 223.304 174.36 228.514 177.295 233.387L176.841 233.393C179.86 228.052 182.796 222.857 185.545 217.995L185.617 217.867L185.763 217.868C186.656 217.872 187.52 217.813 188.39 217.748C189.248 217.611 190.112 217.522 190.939 217.271C192.616 216.876 194.194 216.188 195.653 215.352C197.139 214.546 198.41 213.443 199.598 212.311C200.734 211.119 201.742 209.829 202.531 208.426C204.139 205.636 204.899 202.495 204.965 199.452C204.972 196.368 204.981 193.369 204.988 190.462C204.998 184.649 205.007 179.2 205.015 174.156C205.021 171.636 205.026 169.215 205.03 166.902C205.015 164.588 205.149 162.373 204.753 160.328C204.391 158.284 203.748 156.398 202.879 154.758C201.983 153.136 200.974 151.701 199.839 150.54C197.605 148.174 195.115 146.811 193.045 145.988C192.006 145.556 191.037 145.336 190.209 145.115C189.366 144.966 188.652 144.842 188.076 144.776C187.505 144.738 187.069 144.71 186.759 144.69C186.462 144.665 186.312 144.644 186.312 144.644Z" fill="#263238"/>
<path d="M190.062 164.044C190.062 164.2 172.176 164.325 150.119 164.325C128.053 164.325 110.172 164.199 110.172 164.044C110.172 163.89 128.053 163.764 150.119 163.764C172.177 163.762 190.062 163.889 190.062 164.044Z" fill="#263238"/>
<path d="M190.062 172.711C190.062 172.867 172.176 172.992 150.119 172.992C128.053 172.992 110.172 172.866 110.172 172.711C110.172 172.557 128.053 172.431 150.119 172.431C172.177 172.431 190.062 172.556 190.062 172.711Z" fill="#263238"/>
<path d="M190.062 181.38C190.062 181.535 172.176 181.66 150.119 181.66C128.053 181.66 110.172 181.534 110.172 181.38C110.172 181.225 128.053 181.099 150.119 181.099C172.177 181.098 190.062 181.224 190.062 181.38Z" fill="#263238"/>
<path d="M190.062 190.046C190.062 190.202 172.176 190.327 150.119 190.327C128.053 190.327 110.172 190.201 110.172 190.046C110.172 189.892 128.053 189.766 150.119 189.766C172.177 189.766 190.062 189.892 190.062 190.046Z" fill="#263238"/>
<path d="M190.062 198.715C190.062 198.87 172.176 198.995 150.119 198.995C128.053 198.995 110.172 198.869 110.172 198.715C110.172 198.559 128.053 198.434 150.119 198.434C172.177 198.434 190.062 198.559 190.062 198.715Z" fill="#263238"/>
<path d="M242.666 75.7263H161.046C153.186 75.7263 146.815 82.0983 146.815 89.9575V118.663C146.815 126.523 153.187 132.894 161.046 132.894H219.484L228.774 148.299L237.467 132.894H242.665C250.525 132.894 256.896 126.522 256.896 118.663V89.9575C256.899 82.0983 250.527 75.7263 242.666 75.7263Z" fill="white"/>
<path d="M242.666 75.7263C242.666 75.7263 243.154 75.7252 244.105 75.762C245.04 75.8916 246.467 76.0406 248.179 76.7577C249.888 77.4424 251.866 78.7006 253.633 80.7289C254.487 81.7624 255.285 82.9796 255.903 84.3955C256.497 85.8189 256.897 87.4314 256.998 89.1604C257.098 96.0411 257.059 104.379 257.094 113.968C257.096 115.167 257.098 116.384 257.1 117.621C257.119 118.847 257.072 120.141 256.838 121.409C256.337 123.938 255.159 126.44 253.288 128.438C252.369 129.447 251.297 130.347 250.085 131.055C248.887 131.779 247.567 132.352 246.168 132.68C245.479 132.889 244.753 132.952 244.036 133.058C243.31 133.096 242.577 133.143 241.857 133.129C240.41 133.13 238.948 133.133 237.469 133.134L237.678 133.012C234.929 137.892 232.015 143.069 229 148.424L228.785 148.807L228.558 148.431C225.613 143.555 222.478 138.363 219.257 133.032L219.486 133.162C204.074 133.166 187.305 133.17 169.903 133.175C167.075 133.175 164.263 133.175 161.47 133.175C158.643 133.223 155.774 132.49 153.404 130.98C151.015 129.508 149.089 127.328 147.927 124.822C146.67 122.341 146.46 119.466 146.542 116.835C146.544 111.501 146.546 106.261 146.548 101.129C146.55 98.5629 146.552 96.0238 146.553 93.5139C146.557 92.2579 146.56 91.0094 146.565 89.7674C146.608 88.507 146.745 87.2488 147.106 86.0511C147.746 83.6319 149.105 81.4795 150.786 79.7364C152.52 78.0364 154.631 76.7599 156.898 76.0892C158.036 75.7814 159.193 75.5373 160.358 75.5157C161.524 75.4477 162.644 75.4984 163.774 75.4844C166.027 75.4866 168.243 75.4887 170.423 75.492C179.14 75.5038 187.26 75.5157 194.675 75.5265C209.492 75.5643 221.484 75.5946 229.793 75.6162C233.927 75.6388 237.14 75.6572 239.34 75.6691C240.42 75.681 241.247 75.6907 241.823 75.6972C242.38 75.7069 242.666 75.7263 242.666 75.7263C242.666 75.7263 242.38 75.7458 241.821 75.7555C241.245 75.762 240.418 75.7717 239.338 75.7836C237.138 75.7954 233.925 75.8138 229.791 75.8365C221.482 75.8581 209.49 75.8883 194.673 75.9261C187.258 75.9369 179.137 75.9477 170.421 75.9607C168.241 75.9628 166.024 75.965 163.772 75.9682C161.513 75.9726 159.231 75.8775 157.039 76.5655C154.852 77.2178 152.816 78.4544 151.145 80.0971C149.526 81.783 148.217 83.8609 147.605 86.1937C146.909 88.5092 147.109 91.0008 147.081 93.5161C147.082 96.026 147.084 98.5651 147.085 101.131C147.087 106.263 147.09 111.503 147.092 116.838C147.1 118.178 147.049 119.507 147.274 120.803C147.456 122.11 147.858 123.388 148.428 124.588C149.547 126.997 151.4 129.093 153.698 130.507C155.984 131.958 158.717 132.661 161.469 132.615C164.263 132.615 167.074 132.615 169.902 132.615C187.304 132.62 204.072 132.624 219.485 132.628H219.636L219.714 132.758C222.927 138.093 226.056 143.289 228.995 148.168L228.553 148.175C231.578 142.825 234.503 137.654 237.259 132.778L237.328 132.656H237.468C238.947 132.657 240.41 132.66 241.856 132.661C242.585 132.677 243.288 132.63 243.991 132.596C244.686 132.494 245.389 132.436 246.055 132.235C247.412 131.922 248.691 131.37 249.853 130.67C251.029 129.99 252.071 129.118 252.965 128.142C254.786 126.209 255.935 123.785 256.43 121.331C256.661 120.092 256.711 118.866 256.697 117.621C256.699 116.384 256.701 115.166 256.703 113.968C256.702 104.385 256.779 96.026 256.719 89.1756C256.631 87.4778 256.248 85.8934 255.675 84.4905C255.078 83.0952 254.302 81.892 253.468 80.8671C251.745 78.8551 249.806 77.5915 248.122 76.8927C244.702 75.52 242.638 75.8386 242.666 75.7263Z" fill="#263238"/>
<path d="M244.092 95.8489C244.092 96.0044 226.206 96.1297 204.148 96.1297C182.083 96.1297 164.201 96.0034 164.201 95.8489C164.201 95.6934 182.083 95.5681 204.148 95.5681C226.207 95.5681 244.092 95.6934 244.092 95.8489Z" fill="#263238"/>
<path d="M244.092 104.516C244.092 104.671 226.206 104.797 204.148 104.797C182.083 104.797 164.201 104.671 164.201 104.516C164.201 104.36 182.083 104.235 204.148 104.235C226.207 104.235 244.092 104.361 244.092 104.516Z" fill="#263238"/>
<path d="M244.092 113.184C244.092 113.34 226.206 113.465 204.148 113.465C182.083 113.465 164.201 113.338 164.201 113.184C164.201 113.03 182.083 112.903 204.148 112.903C226.207 112.903 244.092 113.028 244.092 113.184Z" fill="#263238"/>
<path d="M416.916 304.479C415.885 303.254 414.543 302.146 414.217 300.579C413.904 299.072 414.623 297.571 414.946 296.068C415.848 291.877 413.221 287.219 409.169 285.824C406.839 285.022 403.849 284.954 402.665 282.793C401.502 280.67 402.977 278.155 403.843 275.895C405.279 272.149 404.898 267.781 402.919 264.298C402.639 263.498 402.31 262.72 401.928 261.968C398.879 255.962 392.678 251.97 386.324 251.923C385.369 246.996 381.281 243.19 376.699 242.196C376.7 240.447 376.33 238.687 375.535 237.142C373.253 232.706 368.41 230.013 363.486 229.218C356.358 228.068 348.736 230.594 343.707 235.773C340.988 238.571 338.786 242.222 335.101 243.505C331.862 244.633 328.279 243.614 324.877 244.056C320.317 244.647 316.41 247.888 314.072 251.847C311.733 255.805 310.77 260.422 310.229 264.989C309.733 269.179 309.406 273.778 306.499 276.836C303.664 279.818 299.185 280.45 295.66 282.571C289.026 286.563 286.877 296.45 291.253 302.836C292.649 304.872 294.652 306.738 294.814 309.202C294.962 311.45 293.508 313.453 292.828 315.601C291.075 321.131 295.604 327.703 301.396 328.036C304.32 328.203 307.453 327.064 310.074 328.371C312.678 329.67 313.647 332.809 315.312 335.195C318.589 339.889 325.442 341.658 330.58 339.138C332.732 338.083 334.763 336.342 337.153 336.503C339.539 336.664 341.416 338.701 343.764 339.154C346.837 339.748 349.755 337.486 351.582 334.945C353.408 332.403 354.682 329.41 357.021 327.33C360.083 324.606 364.385 323.933 368.259 322.599C373.818 320.685 378.761 317.13 382.484 312.584L382.105 334.163C385.306 334.163 387.177 333.043 388.369 331.388C389.038 331.832 389.747 332.213 390.513 332.467C394.291 333.716 398.791 332.306 401.182 329.126C402.43 327.467 403.203 325.341 404.97 324.254C406.511 323.305 408.441 323.38 410.222 323.056C414.135 322.345 417.572 319.436 418.919 315.695C420.268 311.955 419.476 307.521 416.916 304.479Z" fill="#263238"/>
<path d="M344.46 254.05C339.988 256.868 329.837 269.273 329.639 272.928L330.682 347.157C330.516 352.735 329.562 357.536 332.824 362.064C341.872 372.877 362.813 374.203 367.601 365.298C367.969 364.613 368.238 364.012 368.368 363.506C368.521 362.776 368.731 362.299 368.788 361.676C370.086 355.391 369.878 349.337 369.878 349.337C370.503 342.08 370.722 339.103 370.722 339.171C370.722 339.171 386.229 337.763 390.886 318.013C393.201 308.191 393.912 291.857 394.06 278.473C394.084 276.215 393.506 273.588 392.468 270.811C386.711 255.408 373.477 247.931 357.564 249.298C353.579 249.641 347.479 251.425 344.46 254.05Z" fill="#FFBF9D"/>
<path d="M371.238 306.389C371.237 306.232 372.974 306.063 375.777 305.913C376.487 305.893 377.164 305.802 377.319 305.33C377.523 304.833 377.284 304.052 377.003 303.208C376.468 301.454 375.907 299.616 375.318 297.69C372.993 289.839 371.364 283.405 371.681 283.315C371.998 283.224 374.141 289.513 376.466 297.364C377.023 299.298 377.556 301.143 378.062 302.907C378.269 303.727 378.66 304.67 378.222 305.698C377.994 306.211 377.448 306.554 376.988 306.642C376.526 306.746 376.129 306.724 375.78 306.719C372.973 306.664 371.237 306.547 371.238 306.389Z" fill="#263238"/>
<path d="M370.722 339.171C370.722 339.171 357.212 339.04 344.485 330.045C344.485 330.045 350.189 344.38 370.331 343.993L370.722 339.171Z" fill="#FF9A6C"/>
<path d="M369.578 312.95C368.684 311.565 366.999 310.716 365.26 310.774C364.054 310.814 362.801 311.301 362.002 312.222C361.203 313.143 360.947 314.515 361.54 315.494C362.206 316.595 363.744 316.953 365.088 316.676C366.432 316.4 367.629 315.618 368.769 314.834C369.085 314.617 369.408 314.39 369.617 314.076C369.828 313.762 369.899 313.337 369.689 313.05" fill="#FF9A6C"/>
<path d="M362.979 307.695C363.43 307.703 363.213 310.696 365.619 313.012C368.018 315.334 371.235 315.235 371.227 315.655C371.255 315.846 370.474 316.184 369.124 316.12C367.798 316.067 365.901 315.5 364.43 314.083C362.963 312.664 362.42 310.876 362.409 309.64C362.388 308.38 362.776 307.663 362.979 307.695Z" fill="#263238"/>
<path d="M362.477 277.711C362.15 278.441 359.422 277.88 356.158 278.031C352.889 278.115 350.209 278.869 349.83 278.164C349.663 277.829 350.17 277.157 351.279 276.509C352.378 275.862 354.099 275.297 356.057 275.225C358.016 275.157 359.771 275.596 360.914 276.164C362.067 276.73 362.621 277.363 362.477 277.711Z" fill="#263238"/>
<path d="M389.977 277.706C389.352 278.289 387.134 277.471 384.411 277.238C381.695 276.926 379.346 277.286 378.864 276.591C378.655 276.255 379.065 275.656 380.117 275.137C381.155 274.62 382.852 274.26 384.722 274.447C386.59 274.636 388.172 275.324 389.071 276.036C389.987 276.75 390.255 277.418 389.977 277.706Z" fill="#263238"/>
<path d="M333.656 298.733C333.763 297.245 332.303 293.609 330.85 293.269C326.971 292.367 319.872 292.157 319.068 302.12C317.967 315.74 331.868 314.036 331.924 313.647C331.966 313.343 333.287 303.874 333.656 298.733Z" fill="#FFBF9D"/>
<path d="M328.179 308.152C328.122 308.103 327.928 308.299 327.512 308.45C327.106 308.597 326.424 308.667 325.736 308.343C324.339 307.699 323.312 305.317 323.445 302.857C323.51 301.613 323.865 300.455 324.383 299.513C324.88 298.551 325.58 297.906 326.316 297.837C327.049 297.728 327.527 298.203 327.663 298.599C327.816 298.996 327.707 299.26 327.777 299.289C327.811 299.327 328.087 299.085 328.023 298.514C327.988 298.238 327.856 297.904 327.556 297.616C327.251 297.324 326.782 297.15 326.272 297.164C325.216 297.152 324.193 298.042 323.624 299.075C322.997 300.11 322.568 301.41 322.494 302.806C322.359 305.558 323.557 308.239 325.481 308.967C326.418 309.293 327.241 309.07 327.68 308.781C328.128 308.479 328.224 308.18 328.179 308.152Z" fill="#FF9A6C"/>
<path d="M328.188 272.928C327.94 273.565 328.188 272.244 328.188 272.928V272.928Z" fill="#455A64"/>
<path d="M384.019 253.813C378.95 250.398 374.786 246.454 362.408 246.435C352.85 246.421 345.852 251.981 338.322 258.552C328.649 266.991 322.52 280.742 326.596 292.913L330.659 294.502L334.52 285.166C341.173 270.694 355.009 258.523 369.94 257.808C371.438 257.736 372.834 257.749 374.069 257.873C383.943 258.863 394.062 276.838 394.062 276.838C394.062 276.838 395.893 261.812 384.019 253.813Z" fill="#FF725E"/>
<path d="M330.682 294.436C330.9 297.262 331.333 299.814 331.551 302.64C331.643 303.831 331.946 305.294 333.097 305.615C333.919 305.844 334.798 305.299 335.231 304.564C335.665 303.83 335.758 302.95 335.841 302.101C336.681 293.534 337.396 287.005 338.236 278.438C335.764 281.87 333.233 287.788 330.682 294.436Z" fill="#263238"/>
<path d="M328.426 315.906C328.452 315.904 328.506 316.18 328.327 316.628C328.157 317.074 327.689 317.655 326.906 318.024C326.131 318.402 325.026 318.492 323.951 318.103C322.888 317.73 321.814 316.848 321.378 315.567C320.943 314.303 321.143 312.951 321.724 311.967C322.31 310.962 323.249 310.39 324.056 310.151C324.874 309.9 325.579 309.949 326.034 310.047C326.492 310.15 326.716 310.287 326.704 310.316C326.695 310.429 325.675 309.988 324.184 310.528C323.461 310.793 322.659 311.338 322.175 312.222C321.689 313.095 321.53 314.29 321.908 315.383C322.278 316.479 323.195 317.26 324.131 317.617C325.074 317.986 326.043 317.949 326.746 317.659C327.462 317.375 327.918 316.904 328.129 316.532C328.351 316.158 328.376 315.899 328.426 315.906Z" fill="#E0E0E0"/>
<path d="M357.139 261.216C357.139 261.216 367.905 264.187 371.548 263.061C375.649 261.792 377.436 258.647 377.436 258.647C377.436 258.647 369.074 254.957 357.139 261.216Z" fill="#263238"/>
<path d="M416.897 288.868C416.857 288.827 417.401 288.459 418.035 287.492C418.659 286.547 419.353 284.912 419.182 282.815C419.04 280.742 417.786 278.327 415.507 276.637C413.243 274.926 409.997 274.115 406.616 274.347L406.146 274.379L406.355 273.954C407.448 271.733 408.472 269.265 408.885 266.587C409.208 264.454 409.099 262.296 408.467 260.372C407.841 258.444 406.643 256.822 405.23 255.608C402.362 253.159 398.913 252.262 396.098 252.021C393.247 251.777 390.918 252.04 389.325 252.216C388.575 252.31 387.967 252.386 387.487 252.447C387.067 252.501 386.843 252.52 386.84 252.502C386.837 252.482 387.053 252.426 387.467 252.336C387.883 252.247 388.498 252.126 389.296 252C390.887 251.758 393.225 251.429 396.13 251.626C398.997 251.821 402.564 252.69 405.567 255.216C407.047 256.467 408.324 258.172 408.99 260.2C409.661 262.221 409.776 264.466 409.441 266.674C409.013 269.441 407.958 271.958 406.844 274.198L406.583 273.805C410.065 273.58 413.438 274.443 415.791 276.263C418.152 278.056 419.428 280.611 419.528 282.792C419.658 284.988 418.88 286.66 418.189 287.6C417.486 288.56 416.897 288.868 416.897 288.868Z" fill="#263238"/>
<path d="M305.09 311.836C305.089 311.846 304.99 311.849 304.794 311.845C304.568 311.836 304.282 311.825 303.929 311.812C303.169 311.772 302.047 311.715 300.607 311.545C299.173 311.367 297.402 311.09 295.456 310.365C293.539 309.631 291.379 308.419 289.797 306.279C288.204 304.137 287.614 301.149 287.735 298.104C287.785 296.571 287.968 295 288.194 293.395C288.422 291.795 288.645 290.118 289.218 288.468C289.78 286.829 290.754 285.204 292.29 284.121C293.843 282.982 295.874 282.911 297.7 282.941C299.532 282.96 301.498 283.014 302.995 281.93C304.476 280.852 305.233 278.943 305.407 277.058C305.591 275.135 305.289 273.204 305.191 271.272C305.077 269.337 305.179 267.421 305.427 265.563C305.919 261.843 307.088 258.358 308.735 255.329C310.377 252.299 312.501 249.725 314.859 247.765C317.212 245.789 319.777 244.437 322.229 243.57C327.16 241.793 331.536 241.992 334.358 242.538C337.211 243.121 338.635 243.907 338.635 243.907C338.632 243.916 338.534 243.89 338.348 243.831C338.133 243.757 337.864 243.666 337.53 243.553C336.813 243.311 335.735 242.999 334.319 242.753C331.514 242.279 327.199 242.146 322.364 243.944C319.96 244.821 317.451 246.17 315.158 248.121C312.86 250.059 310.789 252.594 309.19 255.576C307.586 258.554 306.448 261.982 305.973 265.637C305.732 267.462 305.635 269.342 305.748 271.242C305.843 273.138 306.156 275.094 305.965 277.112C305.778 279.101 304.991 281.162 303.322 282.383C302.49 282.971 301.505 283.294 300.539 283.403C299.571 283.522 298.62 283.5 297.693 283.491C295.86 283.459 294.001 283.535 292.596 284.563C291.184 285.55 290.249 287.072 289.706 288.64C289.148 290.221 288.917 291.868 288.682 293.465C288.447 295.062 288.258 296.616 288.199 298.12C288.062 301.114 288.615 303.982 290.118 306.047C291.612 308.113 293.697 309.326 295.568 310.072C297.464 310.811 299.213 311.119 300.634 311.329C302.061 311.53 303.179 311.624 303.936 311.7C304.288 311.736 304.571 311.765 304.797 311.788C304.992 311.81 305.091 311.826 305.09 311.836Z" fill="#263238"/>
<path d="M339.686 258.559C339.715 258.584 339.401 259.018 338.811 259.778C338.511 260.154 338.15 260.618 337.76 261.181C337.367 261.739 336.89 262.353 336.434 263.082C335.469 264.502 334.429 266.264 333.385 268.277C332.37 270.305 331.369 272.592 330.518 275.066C329.688 277.549 329.091 279.974 328.663 282.201C328.267 284.434 328.021 286.466 327.923 288.18C327.841 289.035 327.846 289.813 327.819 290.495C327.787 291.178 327.791 291.766 327.799 292.247C327.806 293.209 327.791 293.745 327.752 293.747C327.713 293.75 327.655 293.219 327.58 292.254C327.537 291.773 327.501 291.182 327.504 290.494C327.5 289.807 327.468 289.023 327.525 288.158C327.573 286.427 327.78 284.369 328.153 282.108C328.557 279.852 329.145 277.395 329.984 274.884C330.845 272.38 331.873 270.073 332.924 268.038C334.004 266.016 335.091 264.258 336.106 262.855C336.586 262.134 337.09 261.532 337.51 260.989C337.926 260.441 338.314 259.995 338.642 259.637C339.287 258.918 339.657 258.534 339.686 258.559Z" fill="#263238"/>
<path d="M350.578 253.397C350.603 253.427 350.134 253.873 349.268 254.651C348.83 255.034 348.301 255.511 347.717 256.095C347.128 256.675 346.431 257.306 345.73 258.075C344.276 259.559 342.655 261.431 340.971 263.599C339.318 265.789 337.62 268.287 336.051 271.039C334.504 273.805 333.242 276.55 332.22 279.097C331.233 281.658 330.467 284.013 329.948 286.025C329.651 287.022 329.471 287.945 329.279 288.749C329.08 289.551 328.946 290.25 328.844 290.822C328.625 291.965 328.485 292.597 328.447 292.591C328.409 292.586 328.476 291.945 328.629 290.786C328.699 290.206 328.802 289.497 328.972 288.685C329.137 287.872 329.29 286.937 329.563 285.927C330.037 283.889 330.769 281.503 331.738 278.91C332.742 276.331 334.002 273.553 335.563 270.762C337.146 267.986 338.873 265.473 340.563 263.282C342.282 261.114 343.948 259.255 345.448 257.797C346.171 257.041 346.893 256.427 347.504 255.866C348.112 255.3 348.665 254.847 349.126 254.487C350.038 253.756 350.553 253.367 350.578 253.397Z" fill="#263238"/>
<path d="M312.394 317.557C312.4 317.564 312.3 317.635 312.099 317.766C311.904 317.905 311.597 318.088 311.173 318.287C310.332 318.684 308.985 319.145 307.19 319.144C305.419 319.14 303.169 318.685 301.063 317.219C298.957 315.775 297.205 313.215 296.512 310.08C296.171 308.513 296.085 306.808 296.35 305.073C296.627 303.343 297.229 301.591 298.172 299.958C299.108 298.324 300.345 296.785 301.848 295.457C303.336 294.104 305.132 293.042 306.963 292.046C308.778 291.032 310.668 289.996 312.124 288.42C313.606 286.871 314.578 284.839 315.179 282.687C315.765 280.519 316.019 278.225 316.137 275.891C316.26 273.56 316.245 271.164 316.485 268.747C316.709 266.334 317.157 263.932 318.101 261.729C319.009 259.511 320.593 257.605 322.524 256.316C324.451 255.01 326.617 254.248 328.723 253.64C330.837 253.039 332.928 252.572 334.911 251.956C336.89 251.344 338.775 250.571 340.345 249.424C340.736 249.138 341.127 248.855 341.453 248.505C341.796 248.174 342.145 247.852 342.435 247.481C343.027 246.75 343.526 245.957 343.997 245.161C344.935 243.572 345.791 241.95 347.003 240.658C348.206 239.371 349.635 238.422 351.105 237.777C354.063 236.505 357.151 236.473 359.564 237.269C362.001 238.048 363.775 239.461 364.963 240.773C366.163 242.099 366.792 243.358 367.147 244.218C367.505 245.083 367.58 245.574 367.58 245.574C367.543 245.585 367.431 245.105 367.043 244.262C366.659 243.425 366.007 242.202 364.802 240.921C363.611 239.653 361.852 238.298 359.472 237.57C357.118 236.823 354.122 236.886 351.265 238.141C349.845 238.777 348.472 239.706 347.323 240.952C346.168 242.196 345.335 243.787 344.399 245.396C343.928 246.202 343.422 247.018 342.808 247.782C342.508 248.172 342.146 248.511 341.789 248.858C341.447 249.225 341.042 249.522 340.636 249.822C339.007 251.023 337.068 251.822 335.066 252.45C333.058 253.081 330.964 253.554 328.871 254.155C326.787 254.761 324.678 255.514 322.834 256.771C320.987 258.011 319.49 259.81 318.614 261.951C317.707 264.074 317.264 266.42 317.045 268.801C316.807 271.186 316.821 273.565 316.695 275.923C316.574 278.275 316.316 280.609 315.71 282.836C315.09 285.046 314.075 287.168 312.516 288.791C310.978 290.442 309.032 291.493 307.215 292.502C305.375 293.494 303.634 294.517 302.178 295.828C300.707 297.117 299.497 298.608 298.578 300.191C297.652 301.773 297.059 303.469 296.78 305.142C296.513 306.819 296.583 308.474 296.902 309.998C297.551 313.047 299.225 315.543 301.247 316.964C303.27 318.41 305.46 318.89 307.193 318.927C308.95 318.962 310.283 318.544 311.127 318.185C311.982 317.827 312.372 317.518 312.394 317.557Z" fill="#455A64"/>
<path d="M386.838 293.599C386.892 295.02 385.732 296.238 384.249 296.321C382.769 296.403 381.523 295.322 381.47 293.9C381.417 292.479 382.576 291.261 384.056 291.179C385.538 291.096 386.784 292.179 386.838 293.599Z" fill="#263238"/>
<path d="M389.111 285.392C388.778 285.744 386.736 284.24 383.841 284.254C380.948 284.227 378.826 285.721 378.512 285.366C378.357 285.21 378.697 284.576 379.62 283.9C380.529 283.227 382.081 282.571 383.885 282.574C385.689 282.58 387.207 283.241 388.081 283.919C388.972 284.602 389.275 285.236 389.111 285.392Z" fill="#263238"/>
<path d="M361.768 293.6C361.821 295.021 360.662 296.238 359.179 296.321C357.699 296.403 356.454 295.322 356.4 293.9C356.347 292.48 357.506 291.261 358.987 291.179C360.468 291.096 361.715 292.179 361.768 293.6Z" fill="#263238"/>
<path d="M361.695 285.393C361.362 285.745 359.317 284.241 356.424 284.255C353.532 284.228 351.409 285.721 351.095 285.368C350.941 285.212 351.275 284.578 352.203 283.903C353.113 283.229 354.664 282.573 356.468 282.576C358.272 282.583 359.79 283.244 360.664 283.921C361.554 284.6 361.858 285.235 361.695 285.393Z" fill="#263238"/>
<path d="M410.824 376.02C398.325 360.811 387.518 358.65 387.518 358.65L387.59 412.922L427.438 463.32L443.649 421.842C443.649 421.842 419.293 386.325 410.824 376.02Z" fill="#FF725E"/>
<path d="M369.815 354.352L387.678 358.689C387.678 358.689 396.901 412.18 393.556 426.016C390.709 437.788 381.576 492.111 381.576 492.111H271.441L308.342 386.1C308.342 386.1 308.555 362.795 302.859 352.026C306.312 351.196 317.974 349.051 328.051 347.158C328.051 347.158 334.75 355.52 350.518 357.909C366.285 360.298 369.815 354.352 369.815 354.352Z" fill="#FF725E"/>
<path d="M391.678 399.154H322.484C316.436 434.542 301.713 448.112 275.747 468.598L271.441 492.111H381.576L387.967 455.168L387.592 441.563L391.678 399.154Z" fill="#455A64"/>
<path d="M305.514 351.503C305.514 351.503 279.197 353.612 269.755 396.727C265.483 416.229 260.088 439.085 258.533 454.446C257.404 465.587 261.389 480.985 272.098 483.535L291.549 486.016C300.238 486.146 306.201 479.086 308.029 471.52L311.063 459.493C313.154 444.786 301.957 443.512 295.662 443.648L309.51 388.883L312.191 362.384L305.514 351.503Z" fill="#FF725E"/>
<path d="M395.405 388.177C395.419 388.175 395.46 388.382 395.526 388.778C395.593 389.216 395.681 389.794 395.791 390.516C395.846 390.898 395.906 391.317 395.972 391.773C396.02 392.239 396.071 392.74 396.125 393.277C396.234 394.355 396.365 395.584 396.423 396.95C396.622 399.674 396.618 402.932 396.487 406.54C396.335 410.149 395.926 414.104 395.322 418.226C394.717 422.349 393.957 426.247 393.186 429.772C392.429 433.3 391.652 436.455 390.997 439.102C390.327 441.746 389.772 443.882 389.369 445.353C389.174 446.057 389.017 446.62 388.899 447.045C388.787 447.431 388.722 447.632 388.708 447.628C388.694 447.624 388.732 447.416 388.817 447.024C388.917 446.593 389.047 446.024 389.21 445.312C389.574 443.785 390.083 441.65 390.707 439.031C391.325 436.376 392.071 433.217 392.807 429.69C393.556 426.166 394.304 422.275 394.906 418.163C395.508 414.054 395.927 410.115 396.101 406.521C396.252 402.927 396.287 399.682 396.126 396.964C396.088 395.602 395.978 394.376 395.891 393.297C395.849 392.76 395.81 392.258 395.774 391.794C395.722 391.337 395.673 390.917 395.629 390.534C395.551 389.809 395.49 389.228 395.443 388.789C395.404 388.391 395.391 388.179 395.405 388.177Z" fill="#263238"/>
<path d="M274.882 458.771C274.858 458.766 274.915 458.376 275.09 457.687C275.263 456.996 275.583 456.013 276.106 454.851C277.136 452.533 279.169 449.501 282.344 447.19C285.521 444.879 289.032 443.877 291.554 443.609C292.822 443.467 293.855 443.466 294.566 443.513C295.275 443.558 295.664 443.624 295.662 443.648C295.66 443.735 294.086 443.549 291.592 443.904C289.117 444.243 285.699 445.27 282.593 447.53C279.489 449.79 277.46 452.726 276.376 454.978C275.272 457.241 274.965 458.796 274.882 458.771Z" fill="#263238"/>
<path d="M280.965 437.292C280.965 437.263 281.191 437.243 281.601 437.233C282.012 437.216 282.606 437.24 283.336 437.309C284.796 437.445 286.807 437.855 288.888 438.707C290.968 439.565 292.685 440.69 293.818 441.621C294.386 442.085 294.825 442.486 295.105 442.786C295.389 443.082 295.534 443.255 295.515 443.276C295.466 443.327 294.804 442.714 293.637 441.857C292.473 441 290.766 439.939 288.728 439.097C286.687 438.261 284.73 437.815 283.299 437.605C281.866 437.393 280.964 437.363 280.965 437.292Z" fill="#263238"/>
<path d="M308.207 381.464C308.178 381.462 308.156 381.051 308.143 380.311C308.138 379.57 308.096 378.499 308.005 377.18C307.829 374.543 307.339 370.91 306.255 367.025C305.159 363.141 303.686 359.784 302.464 357.44C301.855 356.267 301.334 355.33 300.953 354.695C300.579 354.055 300.384 353.694 300.407 353.677C300.431 353.661 300.674 353.993 301.092 354.608C301.517 355.218 302.08 356.138 302.726 357.3C304.023 359.622 305.554 362.992 306.66 366.911C307.755 370.83 308.202 374.505 308.302 377.163C308.355 378.492 308.353 379.569 308.308 380.312C308.271 381.055 308.236 381.465 308.207 381.464Z" fill="#263238"/>
<g opacity="0.3">
<path d="M394.194 424.379C400.908 413.008 401.052 398.233 395.194 386.398C396.941 399.001 396.799 411.919 393.995 424.329" fill="black"/>
</g>
<path d="M303.15 481.264C303.106 481.226 302.693 481.814 301.711 482.623C300.724 483.418 299.093 484.34 296.894 484.922C294.703 485.524 291.973 485.772 288.968 485.619C285.962 485.402 282.647 485.05 279.201 484.538C275.765 484.004 272.465 483.385 269.667 482.341C268.294 481.77 267.142 480.898 266.164 480.002C265.188 479.096 264.379 478.141 263.713 477.22C262.378 475.375 261.548 473.713 261.024 472.552C260.774 471.965 260.577 471.51 260.46 471.193C260.336 470.88 260.264 470.718 260.251 470.722C260.237 470.727 260.282 470.898 260.38 471.221C260.472 471.547 260.644 472.015 260.874 472.615C261.355 473.805 262.151 475.502 263.472 477.393C264.13 478.338 264.938 479.32 265.926 480.258C266.917 481.184 268.089 482.094 269.515 482.698C272.39 483.793 275.679 484.415 279.138 484.955C282.604 485.469 285.915 485.809 288.949 486.006C291.99 486.14 294.755 485.858 296.973 485.209C299.199 484.581 300.844 483.597 301.815 482.749C302.288 482.307 302.644 481.957 302.842 481.679C303.056 481.414 303.16 481.273 303.15 481.264Z" fill="#263238"/>
<path d="M307.492 395.205C307.38 395.177 304.604 405.95 301.295 419.266C297.985 432.585 295.393 443.401 295.506 443.43C295.619 443.458 298.393 432.687 301.703 419.367C305.014 406.052 307.605 395.233 307.492 395.205Z" fill="#263238"/>
<path d="M310.843 456.005C310.872 456.006 310.922 455.692 310.977 455.119C311.026 454.547 311.105 453.714 311.034 452.673C310.973 451.635 310.621 450.378 309.851 449.222C309.469 448.648 309.046 448.06 308.5 447.525C307.96 446.991 307.318 446.533 306.63 446.133C303.828 444.608 301.004 443.971 298.97 443.661C297.948 443.515 297.115 443.46 296.539 443.445C295.963 443.428 295.645 443.451 295.644 443.477C295.639 443.547 296.911 443.595 298.922 443.954C300.913 444.331 303.705 445.019 306.421 446.498C307.085 446.884 307.7 447.319 308.214 447.821C308.728 448.315 309.15 448.888 309.527 449.433C310.282 450.535 310.639 451.696 310.738 452.701C310.845 453.707 310.813 454.539 310.814 455.112C310.809 455.685 310.813 456.004 310.843 456.005Z" fill="#263238"/>
<path d="M364.065 454.495C364.05 454.503 364.033 454.509 364.017 454.518C364.031 454.51 364.047 454.503 364.065 454.495Z" fill="#FFBF9D"/>
<path d="M363.776 454.633C363.739 454.651 363.703 454.668 363.671 454.683C363.701 454.668 363.734 454.652 363.776 454.633Z" fill="#FFBF9D"/>
<path d="M364.016 454.518C363.922 454.562 363.84 454.602 363.776 454.633C363.859 454.594 363.945 454.553 364.016 454.518Z" fill="#FFBF9D"/>
<path d="M364.171 454.445C364.131 454.464 364.1 454.478 364.065 454.495C364.126 454.465 364.171 454.445 364.171 454.445Z" fill="#FFBF9D"/>
<path d="M388.89 477.152C386.777 473.156 370.265 462.617 370.265 462.617L374.735 461.584L379.67 463.671C379.67 463.671 379.979 465.706 381.793 468.293C383.608 470.881 386.688 468.205 386.688 468.205L384.602 458.211L374.839 452.334C374.839 452.334 365.652 453.738 364.17 454.445L360.253 458.029C358.535 459.376 353.574 464.687 352.216 464.848C350.859 465.009 308.242 455.422 308.242 455.422C302.399 460.049 299.321 469.242 298.392 475.873C298.392 475.873 297.353 479.13 298.484 480.898L350.8 485.003L361.885 488.067C361.885 488.067 368.019 490.572 370.994 491.197C374.682 491.971 377.167 490.783 377.266 488.741C377.365 486.699 374.504 486.478 374.504 486.478C374.504 486.478 369.849 484.795 367.375 483.343C364.901 481.892 363.351 478.928 363.351 478.928L367.304 479.401C367.304 479.401 375.706 485.233 378.865 486.944C382.024 488.655 382.647 485.515 382.902 484.558C383.157 483.601 373.465 474.12 373.465 474.12C373.465 474.12 382.681 479.802 384.339 481.235C385.996 482.668 388.453 483.097 388.979 482.136C389.506 481.175 391.002 481.148 388.89 477.152Z" fill="#FFBF9D"/>
<path d="M363.669 454.683C363.631 454.701 363.6 454.716 363.577 454.726C363.603 454.715 363.634 454.7 363.669 454.683Z" fill="#FFBF9D"/>
<path d="M363.525 454.751C363.511 454.758 363.511 454.758 363.525 454.751V454.751Z" fill="#FFBF9D"/>
<path d="M363.577 454.728C363.554 454.738 363.537 454.747 363.526 454.751C363.536 454.747 363.552 454.739 363.577 454.728Z" fill="#FFBF9D"/>
<path d="M343.423 478.076C343.396 478.077 343.38 477.848 343.373 477.428C343.36 477.218 343.382 476.963 343.424 476.667C343.452 476.369 343.504 476.033 343.605 475.671C343.935 474.2 344.88 472.307 346.283 470.51C347.684 468.707 349.193 467.295 350.313 466.32C351.439 465.349 352.184 464.81 352.215 464.848C352.253 464.894 351.57 465.506 350.498 466.523C349.431 467.544 347.967 468.974 346.589 470.747C345.21 472.515 344.257 474.331 343.87 475.742C343.462 477.148 343.504 478.078 343.423 478.076Z" fill="#FF9A6C"/>
<path d="M369.885 462.306C369.901 462.402 368.585 462.569 367.067 462.053C365.546 461.549 364.596 460.622 364.667 460.554C364.738 460.461 365.747 461.21 367.19 461.685C368.628 462.176 369.885 462.188 369.885 462.306Z" fill="#FF9A6C"/>
<path d="M372.628 473.247C372.587 473.347 370.706 472.666 368.425 471.728C366.144 470.789 364.328 469.949 364.369 469.85C364.41 469.75 366.292 470.431 368.573 471.369C370.854 472.308 372.669 473.149 372.628 473.247Z" fill="#FF9A6C"/>
<path d="M363.774 478.838C363.722 478.935 362.786 478.53 361.619 478.075C360.453 477.617 359.49 477.28 359.517 477.173C359.542 477.073 360.569 477.247 361.759 477.713C362.951 478.179 363.825 478.747 363.774 478.838Z" fill="#FF9A6C"/>
<path d="M371.269 473.976C371.312 474.083 370.355 474.439 369.64 475.4C368.903 476.346 368.817 477.363 368.702 477.35C368.655 477.349 368.605 477.089 368.67 476.669C368.733 476.252 368.937 475.684 369.331 475.164C369.726 474.646 370.219 474.297 370.604 474.126C370.991 473.954 371.255 473.931 371.269 473.976Z" fill="#FF9A6C"/>
<path d="M375.147 467.87C375.197 467.971 374.475 468.362 373.999 469.201C373.503 470.027 373.517 470.849 373.405 470.854C373.306 470.89 373.101 469.958 373.664 469.005C374.217 468.046 375.129 467.766 375.147 467.87Z" fill="#FF9A6C"/>
<path d="M373.831 456.96C373.788 456.98 373.638 456.799 373.522 456.439C373.406 456.084 373.355 455.547 373.49 454.983C373.627 454.421 373.918 453.966 374.183 453.704C374.45 453.437 374.667 453.344 374.695 453.382C374.77 453.466 374.098 454.057 373.866 455.074C373.609 456.086 373.936 456.919 373.831 456.96Z" fill="#FF9A6C"/>
<path d="M298.021 482.397C298.05 482.396 298.074 481.967 298.091 481.195C298.095 480.808 298.106 480.336 298.146 479.789C298.182 479.241 298.196 478.617 298.276 477.932C298.513 475.189 299.125 471.402 300.56 467.449C301.288 465.479 302.149 463.67 303.038 462.083C303.519 461.312 303.94 460.555 304.422 459.905C304.653 459.576 304.878 459.256 305.094 458.947C305.326 458.654 305.55 458.372 305.765 458.101C307.503 455.963 308.835 454.871 308.772 454.802C308.753 454.78 308.421 455.049 307.834 455.558C307.533 455.806 307.182 456.126 306.805 456.53C306.422 456.927 305.968 457.366 305.536 457.911C305.312 458.18 305.078 458.46 304.837 458.749C304.604 459.05 304.379 459.375 304.137 459.704C303.637 460.354 303.198 461.112 302.704 461.889C301.784 463.484 300.901 465.311 300.164 467.305C298.713 471.305 298.143 475.143 297.98 477.911C297.918 478.603 297.926 479.232 297.912 479.782C297.894 480.333 297.907 480.808 297.928 481.196C297.959 481.97 297.991 482.397 298.021 482.397Z" fill="#263238"/>
<g opacity="0.3">
<path d="M334.265 406.448V407.872L326.308 408.39L322.276 376.337C322.276 376.337 320.562 365.552 319.454 361.621C318.345 357.69 313.616 349.868 313.616 349.868L317.118 349.207L323.94 360.311L334.265 406.448Z" fill="black"/>
</g>
<path d="M335.313 406.4C335.313 406.4 331.786 376.632 328.454 364.741C325.122 352.85 319.926 348.612 319.926 348.612L314.801 349.577C314.801 349.577 319.903 355.788 321.878 366.736C323.853 377.683 327.545 406.757 327.545 406.757L335.313 406.4Z" fill="#455A64"/>
<path d="M335.313 406.4C335.322 406.407 335.161 406.422 334.836 406.446C334.473 406.47 333.988 406.502 333.367 406.544C332.009 406.624 330.064 406.739 327.551 406.886L327.432 406.893L327.415 406.772C326.667 401.36 325.537 393.194 324.157 383.216C323.43 378.218 322.659 372.756 321.649 367.001C321.147 364.134 320.344 361.24 319.245 358.385C318.133 355.543 316.731 352.712 314.882 350.146L314.584 349.754L314.302 349.383L314.749 349.299C316.505 348.969 318.238 348.644 319.874 348.336L320.013 348.31L320.104 348.394C321.728 349.891 322.944 351.629 324.025 353.412C325.096 355.199 325.983 357.048 326.748 358.901C328.257 362.62 329.228 366.367 329.963 369.939C331.428 377.09 332.385 383.547 333.167 388.95C333.938 394.356 334.483 398.718 334.838 401.727C335.002 403.203 335.131 404.362 335.222 405.189C335.257 405.562 335.284 405.859 335.305 406.091C335.318 406.309 335.32 406.406 335.313 406.4C335.308 406.394 335.284 406.283 335.249 406.096C335.215 405.866 335.169 405.572 335.114 405.204C334.999 404.38 334.837 403.226 334.629 401.755C334.211 398.754 333.609 394.402 332.789 389.007C331.957 383.616 330.96 377.167 329.469 370.045C328.722 366.486 327.748 362.782 326.245 359.108C325.486 357.277 324.606 355.454 323.55 353.698C322.497 351.956 321.26 350.22 319.749 348.829L319.978 348.888C318.343 349.195 316.61 349.522 314.852 349.853L315.018 349.398L315.334 349.813C317.228 352.443 318.639 355.301 319.764 358.185C320.875 361.077 321.681 364.01 322.181 366.907C323.179 372.682 323.93 378.145 324.631 383.151C326.007 393.164 327.028 401.363 327.673 406.74L327.538 406.627C330.021 406.545 331.942 406.482 333.283 406.438C333.918 406.421 334.414 406.408 334.785 406.399C335.126 406.392 335.304 406.392 335.313 406.4Z" fill="#263238"/>
<path d="M387.518 358.65C387.518 358.65 388.704 391.189 384.626 407.871L376.85 407.622C376.85 407.622 382.628 367.159 381.866 357.064C381.866 357.064 385.138 357.053 387.518 358.65Z" fill="#455A64"/>
<path d="M387.518 358.65C387.487 358.668 387.08 358.377 386.153 357.999C385.233 357.642 383.781 357.227 381.866 357.189L381.988 357.057C382.276 361.602 381.726 368.708 380.857 377.443C379.956 386.179 378.685 396.554 377.127 407.663L376.858 407.343C376.922 407.345 376.99 407.347 377.059 407.349C379.655 407.432 382.209 407.515 384.634 407.593L384.355 407.806C385.897 401.023 386.491 394.448 386.885 388.533C387.265 382.608 387.405 377.308 387.475 372.88C387.543 368.452 387.523 364.894 387.51 362.445C387.504 361.252 387.499 360.314 387.495 359.63C387.493 358.982 387.503 358.664 387.518 358.65C387.533 358.635 387.567 358.988 387.6 359.625C387.628 360.309 387.666 361.247 387.714 362.439C387.789 364.889 387.865 368.448 387.847 372.882C387.827 377.315 387.73 382.623 387.38 388.562C387.016 394.495 386.446 401.085 384.897 407.937L384.847 408.156L384.617 408.148C382.191 408.072 379.637 407.991 377.042 407.91C376.973 407.907 376.905 407.905 376.841 407.903L376.528 407.893L376.571 407.582C378.127 396.482 379.431 386.114 380.386 377.392C381.31 368.672 381.936 361.578 381.743 357.074L381.738 356.937L381.866 356.942C383.832 357.019 385.281 357.48 386.203 357.881C386.664 358.089 386.992 358.276 387.211 358.423C387.428 358.57 387.528 358.644 387.518 358.65Z" fill="#263238"/>
<path d="M379.401 403.148C379.401 404.433 380.442 405.474 381.727 405.474C383.012 405.474 384.053 404.433 384.053 403.148C384.053 401.863 383.012 400.822 381.727 400.822C380.442 400.822 379.401 401.864 379.401 403.148Z" fill="#E0E0E0"/>
<path d="M381.727 405.502C380.429 405.502 379.373 404.446 379.373 403.148C379.373 401.85 380.429 400.793 381.727 400.793C383.025 400.793 384.081 401.85 384.081 403.148C384.08 404.447 383.025 405.502 381.727 405.502ZM381.727 400.85C380.459 400.85 379.428 401.881 379.428 403.149C379.428 404.417 380.459 405.448 381.727 405.448C382.995 405.448 384.026 404.417 384.026 403.149C384.026 401.881 382.995 400.85 381.727 400.85Z" fill="#263238"/>
<path d="M330.894 404.698C332.178 404.698 333.22 403.656 333.22 402.371C333.22 401.086 332.178 400.045 330.894 400.045C329.609 400.045 328.567 401.086 328.567 402.371C328.567 403.656 329.609 404.698 330.894 404.698Z" fill="#E0E0E0"/>
<path d="M330.893 404.725C329.596 404.725 328.539 403.669 328.539 402.371C328.539 401.073 329.596 400.017 330.893 400.017C332.191 400.017 333.247 401.073 333.247 402.371C333.247 403.669 332.192 404.725 330.893 404.725ZM330.893 400.073C329.625 400.073 328.594 401.104 328.594 402.372C328.594 403.64 329.625 404.671 330.893 404.671C332.161 404.671 333.192 403.64 333.192 402.372C333.192 401.104 332.161 400.073 330.893 400.073Z" fill="#263238"/>
<path d="M377.339 426.976C377.349 426.976 377.355 427.097 377.357 427.332C377.356 427.598 377.354 427.942 377.352 428.377C377.337 429.295 377.314 430.649 377.177 432.391C377.032 434.128 376.801 436.271 376.084 438.665C375.407 441.073 373.991 443.612 371.989 446.023C368.085 450.98 361.03 454.783 352.8 455.827C350.737 456.063 348.599 456.109 346.429 455.913C344.269 455.721 342.032 455.234 339.993 454.211C335.88 452.239 332.422 448.716 330.192 444.464C327.949 440.193 327.01 435.479 326.852 430.979C326.822 429.844 326.795 428.746 326.889 427.611C326.948 427.047 327.055 426.471 327.319 425.935C327.574 425.4 328.026 424.925 328.584 424.688C329.718 424.227 330.832 424.444 331.868 424.449C332.922 424.491 333.964 424.532 334.993 424.574C343.221 424.912 350.633 425.216 356.871 425.472C363.07 425.748 368.1 425.971 371.618 426.127C373.33 426.215 374.674 426.285 375.626 426.333C376.059 426.361 376.404 426.384 376.668 426.401C376.903 426.42 377.023 426.434 377.023 426.443C377.023 426.453 376.902 426.458 376.666 426.458C376.401 426.455 376.056 426.451 375.622 426.447C374.668 426.423 373.324 426.388 371.61 426.345C368.089 426.232 363.058 426.07 356.856 425.869C350.616 425.646 343.202 425.383 334.973 425.09C333.944 425.052 332.901 425.014 331.846 424.976C330.799 424.962 329.695 424.794 328.801 425.179C327.893 425.558 327.514 426.618 327.43 427.664C327.344 428.723 327.37 429.852 327.402 430.958C327.565 435.394 328.495 440.024 330.688 444.201C332.867 448.357 336.244 451.793 340.23 453.712C342.211 454.708 344.352 455.179 346.479 455.375C348.605 455.573 350.712 455.535 352.741 455.31C360.856 454.303 367.803 450.608 371.682 445.766C373.681 443.397 375.087 440.932 375.783 438.57C376.518 436.221 376.781 434.096 376.958 432.369C377.127 430.638 377.186 429.286 377.238 428.37C377.262 427.937 377.283 427.592 377.298 427.328C377.316 427.096 377.329 426.976 377.339 426.976Z" fill="#263238"/>
<g opacity="0.3">
<path d="M316.97 457.295C317.562 453.293 316.369 449.325 313.823 446.183C311.278 443.04 307.381 441.031 303.344 440.778C302.887 427.156 303.885 413.486 306.317 400.074L295.516 443.276C295.516 443.276 310.557 443.484 310.845 456.005L316.97 457.295Z" fill="black"/>
</g>
<g opacity="0.3">
<path d="M328.451 292.807C329.585 283.962 332.697 275.376 337.495 267.859C338.023 267.032 338.583 265.981 338.087 265.135C337.662 264.41 336.613 264.266 335.845 264.609C335.078 264.951 334.534 265.646 334.049 266.333C328.763 273.823 326.721 283.523 328.539 292.507" fill="black"/>
</g>
<path d="M515.098 417.277L499.819 492.288H393.895H367.198C365.736 492.288 364.549 491.102 364.549 489.638C364.549 488.176 365.734 486.989 367.198 486.989H393.895L408.061 417.229C408.333 415.891 409.503 414.924 410.868 414.909L512.228 413.802C514.074 413.782 515.467 415.469 515.098 417.277Z" fill="#E0E0E0"/>
<path d="M515.098 417.277C515.098 417.277 515.115 417.203 515.139 417.052C515.164 416.902 515.184 416.672 515.152 416.37C515.1 415.79 514.784 414.816 513.75 414.178C513.496 414.021 513.197 413.908 512.874 413.83C512.546 413.757 512.191 413.762 511.83 413.765C511.102 413.771 510.307 413.777 509.444 413.784C507.717 413.798 505.723 413.815 503.477 413.833C494.48 413.919 481.422 414.043 465.151 414.196C457.013 414.278 448.072 414.369 438.434 414.465C433.615 414.515 428.621 414.567 423.467 414.62C420.89 414.647 418.272 414.674 415.616 414.701C414.288 414.715 412.951 414.729 411.603 414.743C411.262 414.751 410.941 414.737 410.577 414.768C410.223 414.804 409.874 414.906 409.553 415.063C408.911 415.378 408.383 415.927 408.097 416.589C407.948 416.921 407.887 417.282 407.82 417.609L407.615 418.618C407.478 419.292 407.34 419.968 407.202 420.646C406.927 422.002 406.648 423.368 406.368 424.741C405.809 427.489 405.243 430.271 404.671 433.085C403.526 438.715 402.353 444.476 401.157 450.356C398.767 462.116 396.28 474.349 393.718 486.953L393.895 486.808C388.881 486.808 383.743 486.807 378.521 486.807C375.909 486.807 373.276 486.807 370.628 486.807H368.639H367.642C367.319 486.81 366.964 486.791 366.609 486.869C365.909 487.013 365.277 487.44 364.872 488.027C364.461 488.613 364.293 489.36 364.402 490.066C364.523 490.935 365.085 491.713 365.849 492.129C366.232 492.334 366.663 492.45 367.096 492.466L368.32 492.471C369.942 492.471 371.56 492.471 373.172 492.471C376.398 492.471 379.605 492.471 382.791 492.471C389.163 492.47 395.454 492.47 401.648 492.469C414.035 492.466 426.041 492.464 437.551 492.461C460.573 492.449 481.621 492.438 499.82 492.429H499.934L499.957 492.317C504.627 469.261 508.426 450.507 511.058 437.509C512.365 431.015 513.381 425.961 514.072 422.523C514.413 420.81 514.672 419.501 514.848 418.614C515.021 417.731 515.098 417.277 515.098 417.277C515.098 417.277 514.993 417.726 514.807 418.605C514.622 419.489 514.349 420.796 513.991 422.506C513.283 425.94 512.242 430.989 510.904 437.477C508.243 450.468 504.402 469.215 499.681 492.26L499.819 492.147C481.62 492.138 460.571 492.128 437.55 492.116C426.04 492.113 414.035 492.111 401.647 492.107C395.453 492.106 389.162 492.106 382.79 492.105C379.604 492.105 376.397 492.105 373.171 492.104C371.559 492.104 369.941 492.104 368.319 492.104L367.108 492.1C366.73 492.086 366.357 491.985 366.023 491.807C365.359 491.444 364.868 490.766 364.764 490.011C364.669 489.394 364.814 488.746 365.172 488.236C365.525 487.724 366.077 487.352 366.685 487.227C366.985 487.159 367.302 487.175 367.642 487.173H368.639H370.628C373.277 487.173 375.909 487.173 378.521 487.173C383.743 487.173 388.881 487.172 393.895 487.172H394.043L394.073 487.026C396.629 474.421 399.111 462.187 401.497 450.426C402.689 444.545 403.856 438.783 404.998 433.152C405.568 430.337 406.132 427.555 406.689 424.807C406.968 423.433 407.244 422.068 407.519 420.712C407.656 420.034 407.793 419.358 407.93 418.684L408.134 417.675C408.204 417.333 408.258 417.012 408.391 416.719C408.646 416.126 409.118 415.634 409.693 415.352C409.98 415.209 410.292 415.12 410.61 415.086C410.92 415.059 411.275 415.07 411.606 415.061C412.953 415.046 414.291 415.03 415.619 415.015C418.274 414.985 420.892 414.954 423.469 414.925C428.623 414.866 433.617 414.809 438.436 414.752C448.074 414.639 457.014 414.534 465.152 414.438C481.423 414.237 494.48 414.075 503.477 413.965C505.724 413.935 507.717 413.908 509.444 413.884C510.307 413.872 511.102 413.86 511.829 413.851C512.194 413.844 512.537 413.837 512.856 413.906C513.172 413.979 513.464 414.086 513.714 414.237C514.731 414.852 515.054 415.803 515.117 416.376C515.179 416.972 515.079 417.276 515.098 417.277Z" fill="#263238"/>
<path d="M453.986 451.605C453.986 454.024 455.947 455.986 458.366 455.986C460.785 455.986 462.747 454.024 462.747 451.605C462.747 449.186 460.785 447.225 458.366 447.225C455.947 447.226 453.986 449.187 453.986 451.605Z" fill="white"/>
<path d="M514.975 417.884C514.975 417.884 514.821 417.874 514.519 417.869C514.203 417.867 513.758 417.865 513.177 417.862C511.985 417.863 510.25 417.865 508.021 417.868C503.532 417.89 497.055 417.921 489.059 417.96C473.037 418.074 450.923 418.229 426.499 418.402C423.443 418.427 420.426 418.45 417.45 418.474C416.706 418.481 415.965 418.486 415.228 418.493C414.868 418.5 414.482 418.477 414.093 418.561C413.71 418.638 413.344 418.787 413.017 418.997C412.36 419.413 411.869 420.077 411.671 420.822C411.506 421.555 411.382 422.25 411.236 422.961C410.115 428.611 409.033 434.062 408.002 439.253C405.95 449.637 404.103 458.988 402.548 466.846C401.012 474.694 399.766 481.048 398.903 485.455C398.483 487.643 398.155 489.347 397.93 490.518C397.825 491.088 397.744 491.526 397.686 491.836C397.633 492.134 397.615 492.288 397.615 492.288C397.615 492.288 397.657 492.139 397.723 491.844C397.789 491.536 397.882 491.1 398.003 490.533C398.244 489.365 398.593 487.668 399.043 485.484C399.933 481.084 401.217 474.737 402.802 466.898C404.377 459.044 406.252 449.698 408.333 439.321C409.37 434.13 410.458 428.681 411.587 423.033C411.731 422.333 411.863 421.603 412.018 420.919C412.194 420.258 412.629 419.672 413.21 419.304C413.5 419.119 413.825 418.987 414.163 418.918C414.495 418.844 414.854 418.864 415.23 418.858C415.967 418.852 416.709 418.846 417.452 418.84C420.427 418.818 423.445 418.794 426.501 418.77C450.925 418.556 473.038 418.362 489.061 418.221C497.057 418.134 503.533 418.063 508.022 418.013C510.253 417.981 511.986 417.955 513.178 417.937C513.758 417.924 514.204 417.916 514.519 417.908C514.82 417.899 514.975 417.884 514.975 417.884Z" fill="#263238"/>
<path d="M299.74 218.98C303.432 221.175 308.711 220.113 311.268 216.659C313.823 213.206 313.297 207.846 310.118 204.956C313.655 203.564 316.092 199.768 315.885 195.972C315.677 192.177 312.843 188.668 309.175 187.669C310.571 184.185 310.003 179.987 307.73 176.999C305.457 174.012 301.563 172.344 297.833 172.76C295.511 167.818 289.471 164.954 284.176 166.284C281.128 164.175 276.708 164.314 273.798 166.61C270.89 168.908 269.728 173.175 271.073 176.629" fill="#263238"/>
<path d="M300.396 220.623C306.922 202.368 298.334 182.165 280.662 174.193L278.906 173.4C259.473 165.966 242.302 178.314 235.408 197.945L205.191 265.584L220.787 315.725L244.092 290.832L255.416 277.737C255.416 277.737 274.893 283.119 283.328 265.022C287.402 256.282 294.326 237.602 300.396 220.623Z" fill="#AE7461"/>
<path d="M255.579 277.779C255.579 277.779 243.643 273.236 234.883 260.043C234.883 260.043 232.977 275.074 251.874 281.627L255.579 277.779Z" fill="#6F4439"/>
<path d="M288.155 235.021C287.585 236.415 285.933 237.081 284.467 236.512C283.002 235.944 282.274 234.356 282.844 232.961C283.415 231.567 285.066 230.898 286.53 231.467C287.998 232.036 288.725 233.628 288.155 235.021Z" fill="#263238"/>
<path d="M292.467 227.762C291.992 227.956 290.681 225.611 287.882 224.356C285.103 223.063 282.402 223.576 282.253 223.097C282.172 222.877 282.776 222.413 283.963 222.166C285.135 221.914 286.92 221.962 288.659 222.754C290.397 223.55 291.573 224.852 292.118 225.888C292.68 226.938 292.694 227.682 292.467 227.762Z" fill="#263238"/>
<path d="M262.452 224.05C261.882 225.445 260.23 226.111 258.764 225.541C257.299 224.974 256.571 223.384 257.141 221.99C257.712 220.596 259.364 219.928 260.829 220.496C262.295 221.064 263.022 222.656 262.452 224.05Z" fill="#263238"/>
<path d="M264.744 215.882C264.268 216.076 262.954 213.73 260.156 212.477C257.378 211.184 254.676 211.697 254.527 211.218C254.446 211 255.047 210.534 256.239 210.288C257.41 210.036 259.195 210.084 260.933 210.876C262.671 211.671 263.847 212.975 264.394 214.011C264.953 215.057 264.969 215.802 264.744 215.882Z" fill="#263238"/>
<path d="M265.536 241.201C265.595 241.036 267.468 241.519 270.448 242.43C271.196 242.678 271.935 242.841 272.276 242.408C272.676 241.969 272.725 241.064 272.754 240.076C272.862 238.046 272.976 235.917 273.095 233.686C273.655 224.621 274.404 217.298 274.769 217.323C275.134 217.35 274.977 224.718 274.416 233.782C274.261 236.009 274.115 238.135 273.972 240.165C273.876 241.098 273.926 242.229 273.078 243.135C272.645 243.582 271.946 243.733 271.433 243.65C270.913 243.583 270.508 243.409 270.145 243.271C267.24 242.145 265.476 241.364 265.536 241.201Z" fill="#263238"/>
<path d="M269.887 206.745C269.198 207.288 267.148 205.439 264.24 204.012C261.365 202.521 258.628 201.955 258.69 201.096C258.732 200.693 259.543 200.292 260.863 200.204C262.174 200.112 263.976 200.397 265.71 201.271C267.443 202.148 268.718 203.415 269.392 204.509C270.074 205.606 270.203 206.481 269.887 206.745Z" fill="#263238"/>
<path d="M297.273 218.015C296.397 218.385 294.387 216.684 291.625 215.401C288.901 214.038 286.307 213.515 286.066 212.607C285.974 212.177 286.631 211.707 287.929 211.57C289.211 211.427 291.125 211.7 293.01 212.61C294.894 213.52 296.287 214.842 296.96 215.929C297.646 217.024 297.673 217.823 297.273 218.015Z" fill="#263238"/>
<path d="M230.342 216.976C231.495 214.115 230.076 210.806 227.156 209.811C223.617 208.602 218.971 208.826 216.031 215.94C210.816 228.56 224.562 231.192 224.734 230.839C224.85 230.601 228.206 222.277 230.342 216.976Z" fill="#AE7461"/>
<path d="M223.95 224.956C223.911 224.894 223.666 225.02 223.224 225.036C222.793 225.053 222.124 224.91 221.566 224.392C220.436 223.352 220.187 220.77 221.066 218.47C221.509 217.309 222.201 216.314 222.982 215.577C223.749 214.812 224.613 214.415 225.332 214.572C226.065 214.693 226.373 215.291 226.381 215.711C226.405 216.134 226.22 216.352 226.278 216.402C226.301 216.448 226.637 216.301 226.75 215.739C226.801 215.466 226.776 215.108 226.581 214.743C226.38 214.371 225.986 214.061 225.498 213.919C224.496 213.584 223.251 214.118 222.393 214.926C221.479 215.718 220.673 216.824 220.176 218.129C219.206 220.706 219.524 223.624 221.131 224.905C221.923 225.503 222.774 225.541 223.28 225.401C223.801 225.252 223.983 224.997 223.95 224.956Z" fill="#6F4439"/>
<path d="M301.73 190.078C301.757 189.717 301.745 189.349 301.696 188.995C301.311 186.304 299.477 183.953 297.095 182.673C295.948 181.239 294.75 179.963 293.56 178.874C293.149 175.14 290.991 171.588 287.736 169.685C284.04 167.525 279.186 167.627 275.517 169.801C274.974 169.643 274.425 169.499 273.874 169.359C272.152 166.349 269.114 164.103 265.71 163.415C261.892 162.643 257.729 163.844 254.91 166.532C252.243 164.371 248.265 163.984 245.232 165.593C242.2 167.201 240.288 170.711 240.581 174.132C237.768 174.401 234.851 175.759 233.643 178.313C232.507 180.717 233.653 184.097 236.114 184.862C232.986 190.624 230.459 197.936 227.979 204.267C226.233 208.725 230.612 213.815 229.659 216.945C224.788 232.916 233.486 226.798 249.48 196.403C249.902 196.303 250.336 196.187 250.792 196.042C251.71 195.748 252.204 195.07 253.074 194.657C254.114 194.165 255.255 194.981 256.247 195.562C259.691 197.577 264.55 196.691 267.058 193.587C267.357 195.384 269.538 196.295 271.339 196.025C273.142 195.755 274.704 194.687 276.362 193.929C278.019 193.171 280.058 192.743 281.597 193.72C282.458 194.265 283.072 195.201 284.033 195.536C285.733 196.128 287.393 194.575 288.373 193.065C289.197 191.793 290.075 190.323 291.394 189.733C292.601 189.721 293.795 189.836 294.962 190.257C295.55 190.606 296.12 191.015 296.681 191.376C296.944 191.544 297.234 191.691 297.533 191.824C297.845 192.109 298.153 192.424 298.458 192.789C302.753 197.927 302.412 211.489 302.412 211.489C306.053 204.442 304.842 196.653 301.73 190.078Z" fill="#263238"/>
<path d="M265.985 170.098C265.974 170.084 266.073 169.993 266.275 169.829C266.474 169.664 266.789 169.441 267.219 169.194C268.072 168.7 269.432 168.1 271.242 167.914C273.03 167.726 275.318 167.994 277.433 169.282C279.529 170.535 281.433 172.752 282.174 175.586L281.809 175.394C283.033 174.946 284.368 174.617 285.756 174.498C289.11 174.165 292.432 175.211 294.625 177.172C296.861 179.086 297.973 181.747 297.939 183.964C297.942 186.193 297.141 187.896 296.403 188.863C296.037 189.355 295.693 189.689 295.45 189.899C295.2 190.1 295.064 190.198 295.051 190.183C295.007 190.137 295.561 189.733 296.223 188.738C296.887 187.762 297.594 186.098 297.541 183.971C297.523 181.86 296.434 179.371 294.288 177.565C292.18 175.72 289.034 174.742 285.806 175.058C284.472 175.173 283.185 175.487 282.002 175.915L281.713 176.019L281.637 175.724C280.951 173.048 279.161 170.919 277.179 169.699C275.184 168.446 273.009 168.146 271.274 168.278C269.522 168.409 268.179 168.937 267.313 169.368C266.442 169.807 266.012 170.136 265.985 170.098Z" fill="white"/>
<path d="M238.668 174.057C238.663 174.047 238.73 174.004 238.866 173.929C239.004 173.858 239.203 173.735 239.482 173.62C240.042 173.394 240.91 173.122 242.061 173.084C243.201 173.058 244.639 173.233 246.102 173.954C247.56 174.64 249.072 175.894 249.941 177.765L249.558 177.717C251.218 175.53 254.194 173.992 257.512 173.812C259.165 173.711 260.906 173.908 262.589 174.463C264.273 175.021 265.874 175.914 267.344 177.028C270.204 179.216 272.287 182.029 273.91 184.705L273.495 184.652C275.904 182.34 279.029 181.314 281.762 181.301C284.531 181.273 286.867 182.275 288.494 183.41C290.141 184.56 291.128 185.847 291.704 186.757C291.991 187.216 292.184 187.586 292.294 187.845C292.409 188.102 292.461 188.239 292.447 188.245C292.407 188.264 292.164 187.732 291.556 186.855C290.943 185.99 289.936 184.765 288.307 183.684C286.696 182.617 284.428 181.694 281.769 181.754C279.141 181.798 276.149 182.817 273.869 185.033L273.629 185.266L273.453 184.98C271.838 182.349 269.781 179.599 267.004 177.475C265.58 176.394 264.028 175.529 262.416 174.99C260.807 174.453 259.133 174.257 257.545 174.343C254.355 174.5 251.518 175.941 249.915 177.994L249.685 178.288L249.532 177.946C248.741 176.187 247.331 174.965 245.943 174.28C244.554 173.558 243.171 173.353 242.067 173.339C239.813 173.362 238.695 174.156 238.668 174.057Z" fill="white"/>
<path d="M291.876 188.985C291.887 189 291.732 189.126 291.446 189.37C291.171 189.631 290.778 190.026 290.328 190.595C289.874 191.161 289.359 191.891 288.728 192.73C288.079 193.541 287.373 194.575 286.128 195.242C285.502 195.559 284.689 195.644 283.959 195.384C283.22 195.148 282.575 194.696 281.906 194.293C281.241 193.893 280.517 193.515 279.722 193.493C278.925 193.472 278.092 193.741 277.278 194.079C276.461 194.422 275.64 194.86 274.785 195.278C273.954 195.689 273.086 196.254 272.026 196.423C270.989 196.596 269.903 196.463 268.888 196.106C268.379 195.925 267.876 195.684 267.426 195.329C266.977 194.986 266.588 194.455 266.504 193.822L266.993 193.954C266.491 194.593 265.911 195.196 265.217 195.678C264.519 196.148 263.738 196.516 262.909 196.754C261.241 197.201 259.419 197.144 257.723 196.62C257.013 196.423 256.347 196.115 255.699 195.792C255.042 195.423 254.527 195.025 253.891 194.979C253.249 194.903 252.67 195.078 252.077 195.432C251.461 195.762 250.821 196.033 250.175 196.262C247.613 197.163 244.786 197.409 242.419 196.37C240.102 195.262 238.558 193.252 237.712 191.233C236.871 189.188 236.739 187.066 237.129 185.271L237.279 185.499C235.537 185.115 234.285 183.923 233.671 182.704C233.036 181.462 233.052 180.204 233.261 179.285C233.471 178.349 233.869 177.705 234.166 177.312C234.319 177.117 234.444 176.976 234.538 176.891C234.63 176.804 234.68 176.762 234.686 176.769C234.766 176.806 233.848 177.5 233.467 179.329C233.296 180.221 233.317 181.413 233.94 182.564C234.541 183.7 235.746 184.796 237.356 185.123L237.544 185.161L237.506 185.351C237.159 187.074 237.309 189.107 238.136 191.057C238.958 192.979 240.476 194.891 242.628 195.901C244.815 196.853 247.525 196.625 249.992 195.746C250.613 195.523 251.229 195.261 251.819 194.943C252.393 194.589 253.201 194.317 253.957 194.426C254.338 194.468 254.71 194.588 255.051 194.768L255.964 195.3C256.58 195.605 257.213 195.899 257.886 196.085C259.494 196.583 261.209 196.632 262.762 196.221C263.534 195.999 264.257 195.661 264.905 195.228C265.548 194.784 266.086 194.227 266.558 193.634L266.962 193.127L267.047 193.766C267.169 194.685 268.161 195.287 269.068 195.61C270.01 195.944 271.008 196.07 271.945 195.918C272.879 195.78 273.702 195.263 274.567 194.84C275.427 194.427 276.249 193.995 277.101 193.647C277.949 193.307 278.828 193.021 279.742 193.052C280.667 193.092 281.45 193.528 282.125 193.943C282.802 194.365 283.421 194.805 284.08 195.024C284.733 195.265 285.417 195.2 285.981 194.932C287.118 194.357 287.86 193.356 288.517 192.568C289.163 191.752 289.705 191.034 290.186 190.481C290.664 189.923 291.087 189.541 291.386 189.301C291.696 189.071 291.869 188.973 291.876 188.985Z" fill="#455A64"/>
<path d="M28.04 426.653C28.04 426.653 22.4618 441.519 20.5081 445.509C18.5544 449.498 20.5081 492.47 20.5081 492.47H147.625L149.421 454.676L88.223 417.779L28.04 426.653Z" fill="#263238"/>
<path d="M298.201 366.474L348.235 375.919C348.235 375.919 347.285 397.558 347.92 397.019C348.555 396.479 277.788 396.354 277.788 396.354L298.201 366.474Z" fill="#AE7461"/>
<path d="M347.35 375.868L382.032 386.574L397.262 397.28L410.833 411.906C410.833 411.906 410.682 415.978 405.555 413.414C400.428 410.85 395.452 406.026 395.452 406.026L405.555 424.574C405.555 424.574 401.483 428.645 398.166 422.764C394.848 416.883 389.872 409.344 389.872 409.344L386.857 407.082C386.857 407.082 390.024 412.661 390.024 414.169C390.024 415.677 386.857 424.121 386.857 424.121L381.88 430.907C381.88 430.907 378.865 430.606 379.091 427.439C379.317 424.272 381.127 422.011 381.127 422.011L375.095 427.289C375.095 427.289 372.983 426.083 374.793 422.162L377.055 419.749L377.809 415.979L375.999 413.114C375.999 413.114 371.324 413.415 367.705 407.987C364.086 402.559 358.507 403.614 350.666 398.94C342.825 394.266 343.579 389.139 343.579 389.139L347.35 375.868Z" fill="#AE7461"/>
<path d="M365.969 389.087C366.081 389.064 366.065 390.827 367.282 393.263C367.885 394.472 368.782 395.825 369.996 397.144C371.198 398.475 372.695 399.775 374.313 401.091C375.91 402.418 377.576 403.597 378.685 405.124C379.803 406.626 380.206 408.458 379.772 409.854C379.324 411.266 378.241 411.989 377.493 412.202C377.11 412.316 376.797 412.32 376.592 412.304C376.385 412.278 376.283 412.247 376.285 412.228C376.286 412.171 376.727 412.262 377.422 411.995C378.093 411.74 379.041 411.013 379.389 409.748C379.732 408.484 379.335 406.822 378.268 405.433C377.212 404.018 375.57 402.864 373.956 401.527C372.331 400.204 370.819 398.87 369.608 397.488C368.387 396.119 367.495 394.699 366.921 393.433C366.342 392.165 366.091 391.055 365.995 390.287C365.903 389.517 365.939 389.088 365.969 389.087Z" fill="#6F4439"/>
<path d="M395.126 405.207C395.106 405.241 394.775 405.094 394.19 404.8C393.606 404.505 392.772 404.059 391.751 403.49C389.709 402.35 386.924 400.715 383.913 398.803C381.513 397.28 379.332 395.813 377.603 394.605L377.8 394.633C376.25 395.108 374.972 395.488 374.077 395.738C373.183 395.987 372.672 396.106 372.657 396.062C372.643 396.017 373.127 395.814 373.997 395.491C374.868 395.169 376.126 394.726 377.66 394.201L377.76 394.166L377.857 394.229C379.69 395.412 381.863 396.812 384.214 398.329C387.218 400.237 389.965 401.923 391.951 403.148C393.941 404.369 395.165 405.137 395.126 405.207Z" fill="#6F4439"/>
<path d="M386.682 405.797C386.797 405.885 385.738 407.066 383.914 407.536C382.094 408.024 380.592 407.517 380.649 407.383C380.678 407.218 382.106 407.444 383.771 406.991C385.443 406.567 386.576 405.667 386.682 405.797Z" fill="#6F4439"/>
<path d="M380.886 409.357C381.033 409.316 382.048 412.125 383.14 415.681C383.448 416.643 383.185 417.666 382.841 418.392C382.496 419.144 382.121 419.753 381.869 420.29C381.323 421.352 381.392 422.107 381.296 422.114C381.237 422.144 381.019 421.308 381.502 420.133C381.72 419.551 382.066 418.906 382.363 418.188C382.66 417.466 382.858 416.664 382.595 415.826C381.517 412.313 380.733 409.399 380.886 409.357Z" fill="#6F4439"/>
<path d="M24.5721 419.193L69.1729 371.05C69.1729 371.05 127.86 270.279 139.531 260.99C168.722 237.758 201.856 249.922 201.856 249.922L213.663 245.44L233.555 295.972C233.555 295.972 226.183 306.764 225.447 308.923C224.709 311.082 136.246 444.915 136.246 444.915L104.637 489.181C104.637 489.181 55.6491 480.01 34.6831 453.25C25.1003 441.019 24.5721 419.193 24.5721 419.193Z" fill="#455A64"/>
<path d="M238.499 294.847L245.041 289.269L245.115 306.289L256.428 322.268C256.428 322.268 223.317 362.15 216.507 368.797C209.697 375.444 155.219 440.121 155.219 440.121C155.219 440.121 152.337 470.799 148.671 479.491C145.004 488.183 120.269 485.895 120.269 485.895L132.56 450.695L137.67 425.295L199.481 343.49L223.746 311.725L238.499 294.847Z" fill="#455A64"/>
<path d="M221.941 349.574C221.941 350.589 255.581 382.746 255.581 382.746C255.581 382.746 258.009 388.84 260.783 389.855C263.558 390.87 277.429 397.302 277.429 397.302L299.162 366.16C299.162 366.16 288.181 356.005 285.058 354.312C281.937 352.62 274.425 343.876 274.425 343.876L249.246 313.644L229.917 323.504L221.941 349.574Z" fill="#455A64"/>
<path d="M223.747 311.724C223.737 311.717 223.787 311.615 223.895 311.422C224.024 311.197 224.185 310.918 224.383 310.576C224.852 309.795 225.494 308.723 226.303 307.376C228.018 304.577 230.434 300.634 233.363 295.854L233.614 296.193C228.355 297.595 222.102 299.263 215.316 301.072L215.048 301.143L214.977 300.874C214.357 298.523 213.71 296.069 213.05 293.567C209.921 281.547 207.089 270.671 205.023 262.735C204.032 258.823 203.226 255.639 202.652 253.376C202.394 252.306 202.188 251.456 202.036 250.824C201.901 250.238 201.839 249.929 201.857 249.924C201.876 249.918 201.975 250.219 202.145 250.794C202.323 251.42 202.563 252.261 202.864 253.319C203.48 255.572 204.345 258.74 205.407 262.633C207.514 270.558 210.403 281.421 213.595 293.423C214.253 295.926 214.896 298.381 215.514 300.732L215.175 300.535C221.97 298.762 228.232 297.127 233.498 295.754L234.055 295.608L233.749 296.093C230.751 300.83 228.277 304.737 226.522 307.511C225.669 308.831 224.991 309.881 224.497 310.646C224.277 310.975 224.098 311.242 223.953 311.458C223.826 311.639 223.757 311.729 223.747 311.724Z" fill="#263238"/>
<path d="M245.111 305.684C245.128 305.705 244.922 305.899 244.525 306.245C244.057 306.637 243.478 307.124 242.778 307.714C241.172 309.017 239.014 310.769 236.456 312.845L236.001 313.215L236.063 312.628C236.409 309.381 236.812 305.593 237.241 301.551C237.373 300.365 237.502 299.201 237.625 298.089L238.092 298.32C234.209 302.01 230.768 305.245 228.286 307.544C227.092 308.636 226.107 309.538 225.347 310.232C224.651 310.854 224.258 311.183 224.233 311.158C224.209 311.133 224.555 310.755 225.209 310.089C225.938 309.363 226.885 308.421 228.032 307.279C230.446 304.909 233.839 301.625 237.708 297.919L238.259 297.392L238.177 298.15C238.056 299.263 237.928 300.428 237.8 301.614C237.343 305.652 236.913 309.438 236.546 312.683L236.153 312.466C238.761 310.454 240.962 308.757 242.599 307.493C243.334 306.947 243.942 306.494 244.431 306.13C244.86 305.818 245.095 305.664 245.111 305.684Z" fill="#263238"/>
<path d="M249.247 329.715C249.262 329.727 249.159 329.885 248.949 330.174C248.694 330.511 248.384 330.924 248.007 331.423C247.181 332.501 245.964 334.043 244.444 335.936C241.405 339.721 237.132 344.895 232.299 350.51C227.463 356.124 222.981 361.117 219.688 364.686C218.042 366.47 216.698 367.902 215.755 368.879C215.317 369.325 214.956 369.694 214.66 369.996C214.405 370.247 214.264 370.373 214.249 370.359C214.235 370.346 214.348 370.195 214.576 369.919C214.85 369.599 215.186 369.207 215.593 368.732C216.547 367.65 217.832 366.192 219.393 364.42C222.609 360.785 227.04 355.755 231.873 350.143C236.703 344.533 241.019 339.404 244.136 335.684C245.657 333.876 246.907 332.39 247.836 331.286C248.246 330.813 248.584 330.423 248.86 330.103C249.099 329.836 249.232 329.702 249.247 329.715Z" fill="#263238"/>
<path d="M283.519 354.479C283.551 354.502 283.254 354.945 282.691 355.725C282.131 356.507 281.291 357.617 280.232 358.972C278.112 361.681 275.073 365.342 271.498 369.19C267.919 373.036 264.489 376.334 261.941 378.646C260.667 379.801 259.62 380.719 258.881 381.335C258.144 381.953 257.725 382.281 257.699 382.252C257.673 382.223 258.043 381.84 258.735 381.173C259.506 380.432 260.491 379.487 261.669 378.356C264.142 375.975 267.518 372.643 271.085 368.808C274.648 364.972 277.726 361.364 279.922 358.724C280.964 357.467 281.836 356.415 282.518 355.592C283.133 354.852 283.488 354.455 283.519 354.479Z" fill="#263238"/>
<path d="M115.229 475.53C115.229 475.53 115.31 475.377 115.491 475.094C115.687 474.792 115.957 474.377 116.305 473.843C117.046 472.729 118.113 471.124 119.48 469.067C122.275 464.912 126.294 458.938 131.255 451.565C141.212 436.797 155.037 416.445 170.135 393.851C185.196 371.221 198.794 350.716 207.798 335.342C212.426 327.73 216.451 321.734 219.469 317.766C220.963 315.772 222.176 314.264 223.025 313.264C223.438 312.779 223.759 312.402 223.993 312.127C224.213 311.874 224.338 311.753 224.338 311.753C224.338 311.753 224.244 311.898 224.037 312.164C223.814 312.447 223.508 312.836 223.114 313.335C222.294 314.357 221.111 315.885 219.645 317.896C216.687 321.898 212.721 327.915 208.139 335.548C199.222 350.974 185.662 371.537 170.602 394.163C155.503 416.76 141.626 437.078 131.584 451.789C126.562 459.12 122.492 465.06 119.662 469.19C118.257 471.221 117.161 472.807 116.399 473.907C116.032 474.427 115.747 474.832 115.539 475.126C115.342 475.399 115.229 475.53 115.229 475.53Z" fill="#263238"/>
<path d="M117.706 421.928C117.693 421.943 117.535 421.831 117.245 421.603C116.909 421.33 116.496 420.995 115.994 420.588C114.913 419.7 113.379 418.378 111.513 416.714C107.779 413.386 102.759 408.628 97.5121 403.081C92.2698 397.526 87.8029 392.244 84.6925 388.327C83.1362 386.369 81.9039 384.764 81.0788 383.634C80.7008 383.111 80.3887 382.68 80.136 382.329C79.9254 382.026 79.8228 381.862 79.8379 381.85C79.853 381.838 79.9869 381.98 80.2256 382.26C80.501 382.592 80.8401 383.003 81.2516 383.499C82.1901 384.644 83.458 386.192 85.0003 388.075C88.1841 391.923 92.6888 397.153 97.9192 402.694C103.154 408.229 108.119 413.022 111.779 416.42C113.572 418.067 115.045 419.421 116.136 420.423C116.609 420.862 116.999 421.223 117.316 421.518C117.585 421.773 117.719 421.914 117.706 421.928Z" fill="#263238"/>
<path d="M186.623 265.907C186.572 265.938 186.147 265.202 185.188 264.019C184.216 262.856 182.647 261.269 180.319 259.865C178.002 258.444 174.948 257.288 171.453 256.415C167.967 255.538 164.022 254.888 159.879 255.063C155.74 255.235 151.855 256.302 148.713 258.029C145.545 259.722 143.106 261.927 141.336 263.978C139.568 266.046 138.438 267.956 137.729 269.302C137.013 270.649 136.701 271.44 136.647 271.417C136.629 271.409 136.696 271.209 136.839 270.831C136.983 270.453 137.191 269.893 137.534 269.204C138.187 267.817 139.278 265.853 141.033 263.721C142.791 261.605 145.246 259.328 148.467 257.574C151.661 255.784 155.641 254.676 159.855 254.501C164.075 254.323 168.071 255 171.583 255.914C175.099 256.822 178.195 258.036 180.527 259.527C182.873 261.003 184.427 262.665 185.358 263.883C185.81 264.508 186.147 265.001 186.338 265.359C186.542 265.709 186.64 265.897 186.623 265.907Z" fill="#263238"/>
<path d="M132.561 280.253C132.561 280.253 130.658 347.027 132.561 378.674C133.142 388.333 136.731 394.72 137.471 394.938C139.412 395.511 178.623 392.192 178.623 392.192C178.623 392.192 178.938 380.21 181.896 375.715C184.854 371.221 177.273 373.096 177.273 373.096C177.273 373.096 193.465 290.787 191.441 275.642" fill="#455A64"/>
<path d="M191.442 275.643C191.442 275.643 191.546 276.283 191.631 277.527C191.679 278.771 191.708 280.618 191.569 283.004C191.339 287.781 190.617 294.718 189.438 303.393C187.083 320.745 182.955 345.062 177.539 373.149L177.211 372.837C178.206 372.61 179.207 372.45 180.249 372.44C180.768 372.439 181.301 372.476 181.835 372.661C182.099 372.76 182.372 372.912 182.575 373.166C182.781 373.419 182.862 373.757 182.853 374.057C182.806 374.655 182.552 375.148 182.286 375.604C182.01 376.064 181.773 376.463 181.55 376.92C181.134 377.832 180.794 378.792 180.536 379.783C179.49 383.749 179.09 387.966 178.903 392.2L178.892 392.452L178.648 392.471C173.309 392.902 167.669 393.358 161.949 393.82C157.123 394.191 152.353 394.547 147.647 394.85C145.292 394.995 142.959 395.146 140.632 395.23C140.052 395.26 139.47 395.271 138.886 395.273C138.588 395.267 138.32 395.297 137.994 395.258L137.523 395.216C137.412 395.257 137.087 395.034 137.031 394.94C136.22 393.976 135.77 392.932 135.285 391.878C133.473 387.636 132.576 383.151 132.298 378.747C132.191 376.553 132.084 374.382 131.979 372.235C131.909 370.088 131.841 367.965 131.773 365.868C131.364 349.093 131.473 333.985 131.613 321.301C131.763 308.617 131.994 298.354 132.182 291.263C132.289 287.731 132.371 284.985 132.429 283.098C132.465 282.179 132.492 281.473 132.513 280.976C132.535 280.498 132.561 280.254 132.561 280.254C132.561 280.254 132.573 280.499 132.57 280.978C132.564 281.476 132.554 282.182 132.542 283.103C132.51 284.989 132.462 287.737 132.402 291.268C132.282 298.361 132.111 308.623 132.011 321.305C131.921 333.987 131.854 349.094 132.29 365.854C132.362 367.948 132.434 370.069 132.507 372.215C132.615 374.357 132.724 376.525 132.834 378.715C133.112 383.062 134.007 387.499 135.789 391.658C136.246 392.67 136.749 393.752 137.425 394.551C137.47 394.61 137.508 394.636 137.524 394.643C137.527 394.669 137.583 394.682 137.658 394.681L138.048 394.709C138.295 394.742 138.606 394.715 138.886 394.72C139.458 394.717 140.033 394.706 140.613 394.676C142.926 394.592 145.26 394.439 147.611 394.294C152.312 393.988 157.082 393.632 161.906 393.262C167.625 392.8 173.263 392.347 178.602 391.917L178.347 392.188C178.539 387.907 178.939 383.686 180.008 379.641C180.273 378.631 180.621 377.641 181.058 376.688C181.499 375.724 182.235 374.908 182.31 374.038C182.332 373.62 182.078 373.327 181.648 373.172C181.225 373.023 180.736 372.981 180.251 372.983C179.279 372.99 178.286 373.147 177.34 373.36L176.933 373.452L177.012 373.047C182.462 344.978 186.659 320.678 189.106 303.349C190.331 294.686 191.105 287.762 191.39 282.997C191.556 280.615 191.557 278.775 191.539 277.532C191.53 276.911 191.471 276.441 191.46 276.125C191.44 275.806 191.442 275.643 191.442 275.643Z" fill="#263238"/>
<path d="M178.51 373.511C178.515 373.548 177.913 373.669 176.815 373.855C175.718 374.041 174.126 374.274 172.151 374.513C168.204 375.003 162.727 375.491 156.663 375.753C150.596 376.01 145.097 375.991 141.123 375.839C139.135 375.77 137.528 375.674 136.42 375.582C135.312 375.491 134.701 375.422 134.703 375.383C134.705 375.344 135.321 375.339 136.431 375.363C137.641 375.382 139.223 375.409 141.132 375.441C145.101 375.49 150.587 375.446 156.639 375.19C162.689 374.929 168.157 374.505 172.108 374.116C174.007 373.922 175.582 373.761 176.785 373.638C177.891 373.519 178.505 373.472 178.51 373.511Z" fill="#263238"/>
<path d="M137.471 394.938L160.526 491.988H183.58L177.132 392.468L137.471 394.938Z" fill="#AE7461"/>
<path d="M181.531 478.257L204.508 482.273L225.192 488.527C227.108 489.181 228.335 490.291 227.567 492.691L160.525 491.987V480.333L181.531 478.257Z" fill="#AE7461"/>
<path d="M218.285 492.593C218.223 492.586 218.379 492.109 218.248 491.282C218.14 490.47 217.442 489.325 216.028 488.813C214.641 488.293 212.764 488.306 210.752 488.062C208.717 487.854 206.499 487.629 204.172 487.392C199.504 486.901 195.281 486.426 192.228 486.053C190.793 485.866 189.583 485.708 188.616 485.583C187.763 485.46 187.295 485.374 187.299 485.335C187.303 485.296 187.78 485.309 188.638 485.366C189.611 485.445 190.826 485.542 192.269 485.658C195.333 485.929 199.562 486.342 204.23 486.833C206.555 487.085 208.772 487.325 210.806 487.547C211.811 487.662 212.77 487.771 213.676 487.875C214.577 487.982 215.438 488.131 216.176 488.444C217.698 489.047 218.424 490.373 218.464 491.252C218.511 491.697 218.446 492.038 218.403 492.262C218.345 492.485 218.305 492.598 218.285 492.593Z" fill="#6F4439"/>
<g opacity="0.3">
<path d="M178.51 412.952L186.623 377.56V366.474L183.58 364.535L190.71 291.929L177.276 373.096L178.896 372.958C180.743 372.8 183.041 372.37 182.595 374.169L180.065 379.717L177.259 394.415L178.51 412.952Z" fill="black"/>
</g>
<path d="M254.614 242.153C252.055 244.834 251.298 248.688 253.42 251.726C254.156 252.781 255.369 253.521 256.639 253.718C258.193 253.959 259.781 253.831 260.996 252.679C262.138 251.598 263.213 250.422 263.724 248.936C261.215 246.95 257.123 244.141 254.614 242.153Z" fill="#6F4439"/>
<path d="M260.172 253.313C260.184 253.338 259.827 253.556 259.097 253.708C258.376 253.848 257.25 253.9 255.982 253.426C254.718 252.982 253.359 251.9 252.593 250.271C251.799 248.665 251.686 246.529 252.458 244.616C252.836 243.639 253.389 242.767 254.034 242.031L254.203 241.84L254.406 241.99C257.031 243.934 259.317 245.656 260.936 246.904C262.554 248.153 263.506 248.929 263.466 248.983C263.426 249.037 262.4 248.362 260.724 247.191C259.048 246.021 256.721 244.356 254.08 242.433L254.45 242.392C253.849 243.087 253.335 243.908 252.982 244.818C252.266 246.606 252.356 248.55 253.063 250.05C253.75 251.568 254.963 252.591 256.128 253.055C257.297 253.545 258.363 253.559 259.066 253.49C259.775 253.412 260.155 253.268 260.172 253.313Z" fill="#263238"/>
</svg>
