<svg width="92" height="21" viewBox="0 0 92 21" fill="none" xmlns="http://www.w3.org/2000/svg">
<path d="M0.368 20V3.2H8.456C10.024 3.2 11.376 3.456 12.512 3.968C13.664 4.48 14.552 5.216 15.176 6.176C15.8 7.12 16.112 8.24 16.112 9.536C16.112 10.832 15.8 11.952 15.176 12.896C14.552 13.84 13.664 14.576 12.512 15.104C11.376 15.616 10.024 15.872 8.456 15.872H3.512L6.032 13.448V20H0.368ZM6.032 14.072L3.512 11.504H8.096C8.88 11.504 9.456 11.328 9.824 10.976C10.208 10.624 10.4 10.144 10.4 9.536C10.4 8.928 10.208 8.448 9.824 8.096C9.456 7.744 8.88 7.568 8.096 7.568H3.512L6.032 5V14.072ZM25.0496 20.24C23.4496 20.24 22.0496 19.944 20.8496 19.352C19.6656 18.76 18.7456 17.952 18.0896 16.928C17.4336 15.888 17.1056 14.72 17.1056 13.424C17.1056 12.096 17.4256 10.92 18.0656 9.896C18.7216 8.872 19.6096 8.072 20.7296 7.496C21.8656 6.92 23.1376 6.632 24.5456 6.632C25.8416 6.632 27.0336 6.888 28.1216 7.4C29.2256 7.912 30.1056 8.672 30.7616 9.68C31.4336 10.688 31.7696 11.936 31.7696 13.424C31.7696 13.616 31.7616 13.832 31.7456 14.072C31.7296 14.296 31.7136 14.504 31.6976 14.696H21.5936V12.08H28.8176L26.7776 12.776C26.7776 12.264 26.6816 11.832 26.4896 11.48C26.3136 11.112 26.0656 10.832 25.7456 10.64C25.4256 10.432 25.0416 10.328 24.5936 10.328C24.1456 10.328 23.7536 10.432 23.4176 10.64C23.0976 10.832 22.8496 11.112 22.6736 11.48C22.4976 11.832 22.4096 12.264 22.4096 12.776V13.592C22.4096 14.152 22.5216 14.632 22.7456 15.032C22.9696 15.432 23.2896 15.736 23.7056 15.944C24.1216 16.136 24.6256 16.232 25.2176 16.232C25.8256 16.232 26.3216 16.152 26.7056 15.992C27.1056 15.832 27.5216 15.592 27.9536 15.272L30.7856 18.128C30.1456 18.816 29.3536 19.344 28.4096 19.712C27.4816 20.064 26.3616 20.24 25.0496 20.24ZM39.8173 20.24C38.0093 20.24 36.6013 19.808 35.5933 18.944C34.5853 18.064 34.0813 16.72 34.0813 14.912V3.92H39.5053V14.864C39.5053 15.264 39.6093 15.576 39.8173 15.8C40.0413 16.024 40.3133 16.136 40.6333 16.136C41.0973 16.136 41.5053 16.016 41.8573 15.776L43.1533 19.544C42.7373 19.784 42.2333 19.96 41.6413 20.072C41.0653 20.184 40.4573 20.24 39.8173 20.24ZM32.2812 11.552V7.592H42.1933V11.552H32.2812ZM44.6883 20V3.2H50.3523V15.608H57.9363V20H44.6883ZM59.3328 20V6.872H64.7568V20H59.3328ZM62.0448 5.816C61.0528 5.816 60.2608 5.552 59.6688 5.024C59.0768 4.496 58.7808 3.84 58.7808 3.056C58.7808 2.272 59.0768 1.616 59.6688 1.088C60.2608 0.559999 61.0528 0.295999 62.0448 0.295999C63.0368 0.295999 63.8288 0.543999 64.4208 1.04C65.0128 1.536 65.3088 2.176 65.3088 2.96C65.3088 3.792 65.0128 4.48 64.4208 5.024C63.8288 5.552 63.0368 5.816 62.0448 5.816ZM67.7609 20V7.52C67.7609 5.824 68.2649 4.472 69.2729 3.464C70.2969 2.456 71.7449 1.952 73.6169 1.952C74.1929 1.952 74.7689 2.008 75.3449 2.12C75.9369 2.216 76.4329 2.376 76.8329 2.6L75.5369 6.368C75.3609 6.288 75.1689 6.216 74.9609 6.152C74.7529 6.088 74.5369 6.056 74.3129 6.056C73.9289 6.056 73.6169 6.176 73.3769 6.416C73.1369 6.656 73.0169 7.04 73.0169 7.568V8.192L73.1849 10.424V20H67.7609ZM65.9609 11.552V7.592H75.8729V11.552H65.9609ZM84.5105 20.24C82.9105 20.24 81.5105 19.944 80.3105 19.352C79.1265 18.76 78.2065 17.952 77.5505 16.928C76.8945 15.888 76.5665 14.72 76.5665 13.424C76.5665 12.096 76.8865 10.92 77.5265 9.896C78.1825 8.872 79.0705 8.072 80.1905 7.496C81.3265 6.92 82.5985 6.632 84.0065 6.632C85.3025 6.632 86.4945 6.888 87.5825 7.4C88.6865 7.912 89.5665 8.672 90.2225 9.68C90.8945 10.688 91.2305 11.936 91.2305 13.424C91.2305 13.616 91.2225 13.832 91.2065 14.072C91.1905 14.296 91.1745 14.504 91.1585 14.696H81.0545V12.08H88.2785L86.2385 12.776C86.2385 12.264 86.1425 11.832 85.9505 11.48C85.7745 11.112 85.5265 10.832 85.2065 10.64C84.8865 10.432 84.5025 10.328 84.0545 10.328C83.6065 10.328 83.2145 10.432 82.8785 10.64C82.5585 10.832 82.3105 11.112 82.1345 11.48C81.9585 11.832 81.8705 12.264 81.8705 12.776V13.592C81.8705 14.152 81.9825 14.632 82.2065 15.032C82.4305 15.432 82.7505 15.736 83.1665 15.944C83.5825 16.136 84.0865 16.232 84.6785 16.232C85.2865 16.232 85.7825 16.152 86.1665 15.992C86.5665 15.832 86.9825 15.592 87.4145 15.272L90.2465 18.128C89.6065 18.816 88.8145 19.344 87.8705 19.712C86.9425 20.064 85.8225 20.24 84.5105 20.24Z" fill="#FF725E"/>
</svg>
